999
dxfrw 0.6.3
  0
SECTION
  2
HEADER
  9
$ACADVER
  1
AC1021
  9
$DWGCODEPAGE
  3
ANSI_1250
  9
$INSBASE
 10
0
 20
0
 30
0
  9
$EXTMIN
 10
10000000000
 20
10000000000
 30
0
  9
$EXTMAX
 10
-10000000000
 20
-10000000000
 30
0
  9
$LIMMIN
 10
0
 20
0
  9
$LIMMAX
 10
12
 20
9
  9
$ORTHOMODE
 70
    0
  9
$REGENMODE
 70
    1
  9
$FILLMODE
 70
    1
  9
$QTEXTMODE
 70
    0
  9
$MIRRTEXT
 70
    0
  9
$LTSCALE
 40
1
  9
$ATTMODE
 70
    1
  9
$TEXTSIZE
 40
0.2
  9
$TRACEWID
 40
0.05
  9
$TEXTSTYLE
  7
Tekst notatki (ISO)
  9
$CLAYER
  8
0
  9
$CELTYPE
  6
ByLayer
  9
$CECOLOR
 62
  256
  9
$CELTSCALE
 40
1
  9
$DISPSILH
 70
    0
  9
$DIMSCALE
 40
1
  9
$DIMASZ
 40
2.5
  9
$DIMEXO
 40
0
  9
$DIMDLI
 40
8
  9
$DIMRND
 40
0
  9
$DIMDLE
 40
0
  9
$DIMEXE
 40
1.5
  9
$DIMTP
 40
0
  9
$DIMTM
 40
0
  9
$DIMTXT
 40
3
  9
$DIMCEN
 40
0.09
  9
$DIMTSZ
 40
0
  9
$DIMTOL
 70
    0
  9
$DIMLIM
 70
    0
  9
$DIMTIH
 70
    1
  9
$DIMTOH
 70
    1
  9
$DIMSE1
 70
    0
  9
$DIMSE2
 70
    0
  9
$DIMTAD
 70
    0
  9
$DIMZIN
 70
    8
  9
$DIMBLK
  1
Filled-1
  9
$DIMASO
 70
    1
  9
$DIMSHO
 70
    1
  9
$DIMPOST
  1

  9
$DIMAPOST
  1

  9
$DIMALT
 70
    0
  9
$DIMALTD
 70
    3
  9
$DIMALTF
 40
0.03937
  9
$DIMLFAC
 40
1
  9
$DIMTOFL
 70
    0
  9
$DIMTVP
 40
0
  9
$DIMTIX
 70
    0
  9
$DIMSOXD
 70
    0
  9
$DIMSAH
 70
    0
  9
$DIMBLK1
  1

  9
$DIMBLK2
  1

  9
$DIMSTYLE
  2
Domyślne (ISO)
  9
$DIMCLRD
 70
  256
  9
$DIMCLRE
 70
  256
  9
$DIMCLRT
 70
  256
  9
$DIMTFAC
 40
1
  9
$DIMGAP
 40
0.5
  9
$DIMJUST
 70
    0
  9
$DIMSD1
 70
    0
  9
$DIMSD2
 70
    0
  9
$DIMTOLJ
 70
    1
  9
$DIMTZIN
 70
    8
  9
$DIMALTZ
 70
    0
  9
$DIMALTTZ
 70
    0
  9
$DIMUPT
 70
    0
  9
$DIMDEC
 70
    3
  9
$DIMTDEC
 70
    3
  9
$DIMALTU
 70
    2
  9
$DIMALTTD
 70
    3
  9
$DIMTXSTY
  7
3NN
  9
$DIMAUNIT
 70
    0
  9
$DIMADEC
 70
    2
  9
$DIMALTRND
 40
0
  9
$DIMAZIN
 70
    2
  9
$DIMDSEP
 70
   44
  9
$DIMATFIT
 70
    3
  9
$DIMFRAC
 70
    0
  9
$DIMLDRBLK
  1

  9
$DIMLUNIT
 70
    2
  9
$DIMLWD
 70
   -1
  9
$DIMLWE
 70
   -1
  9
$DIMTMOVE
 70
    0
  9
$DIMFXL
 40
1
  9
$DIMFXLON
 70
    0
  9
$DIMJOGANG
 40
0.7853981633974483
  9
$DIMTFILL
 70
    0
  9
$DIMTFILLCLR
 70
    0
  9
$DIMARCSYM
 70
    0
  9
$DIMLTYPE
  6
Ciągła
  9
$DIMLTEX1
  6
Ciągła
  9
$DIMLTEX2
  6
Ciągła
  9
$LUNITS
 70
    2
  9
$LUPREC
 70
    4
  9
$SKETCHINC
 40
0.1
  9
$FILLETRAD
 40
0
  9
$AUNITS
 70
    0
  9
$AUPREC
 70
    0
  9
$MENU
  1
.
  9
$ELEVATION
 40
0
  9
$PELEVATION
 40
0
  9
$THICKNESS
 40
0
  9
$LIMCHECK
 70
    0
  9
$CHAMFERA
 40
0
  9
$CHAMFERB
 40
0
  9
$CHAMFERC
 40
0
  9
$CHAMFERD
 40
0
  9
$SKPOLY
 70
    0
  9
$USRTIMER
 70
    1
  9
$ANGBASE
 50
0
  9
$ANGDIR
 70
    0
  9
$PDMODE
 70
    0
  9
$PDSIZE
 40
0
  9
$PLINEWID
 40
0
  9
$SPLFRAME
 70
    0
  9
$SPLINETYPE
 70
    6
  9
$SPLINESEGS
 70
    8
  9
$HANDSEED
  5
20000
  9
$SURFTAB1
 70
    6
  9
$SURFTAB2
 70
    6
  9
$SURFTYPE
 70
    6
  9
$SURFU
 70
    6
  9
$SURFV
 70
    6
  9
$UCSBASE
  2

  9
$UCSNAME
  2

  9
$UCSORG
 10
0
 20
0
 30
0
  9
$UCSXDIR
 10
1
 20
0
 30
0
  9
$UCSYDIR
 10
0
 20
1
 30
0
  9
$UCSORTHOREF
  2

  9
$UCSORTHOVIEW
 70
    0
  9
$UCSORGTOP
 10
0
 20
0
 30
0
  9
$UCSORGBOTTOM
 10
0
 20
0
 30
0
  9
$UCSORGLEFT
 10
0
 20
0
 30
0
  9
$UCSORGRIGHT
 10
0
 20
0
 30
0
  9
$UCSORGFRONT
 10
0
 20
0
 30
0
  9
$UCSORGBACK
 10
0
 20
0
 30
0
  9
$PUCSBASE
  2

  9
$PUCSNAME
  2

  9
$PUCSORG
 10
0
 20
0
 30
0
  9
$PUCSXDIR
 10
1
 20
0
 30
0
  9
$PUCSYDIR
 10
0
 20
1
 30
0
  9
$PUCSORTHOREF
  2

  9
$PUCSORTHOVIEW
 70
    0
  9
$PUCSORGTOP
 10
0
 20
0
 30
0
  9
$PUCSORGBOTTOM
 10
0
 20
0
 30
0
  9
$PUCSORGLEFT
 10
0
 20
0
 30
0
  9
$PUCSORGRIGHT
 10
0
 20
0
 30
0
  9
$PUCSORGFRONT
 10
0
 20
0
 30
0
  9
$PUCSORGBACK
 10
0
 20
0
 30
0
  9
$USERI1
 70
    0
  9
$USERI2
 70
    0
  9
$USERI3
 70
    0
  9
$USERI4
 70
    0
  9
$USERI5
 70
    0
  9
$USERR1
 40
0
  9
$USERR2
 40
0
  9
$USERR3
 40
0
  9
$USERR4
 40
0
  9
$USERR5
 40
0
  9
$WORLDVIEW
 70
    1
  9
$SHADEDGE
 70
    3
  9
$SHADEDIF
 70
   70
  9
$TILEMODE
 70
    1
  9
$MAXACTVP
 70
   64
  9
$PINSBASE
 10
0
 20
0
 30
0
  9
$PLIMCHECK
 70
    0
  9
$PEXTMIN
 10
0
 20
0
 30
0
  9
$PEXTMAX
 10
420
 20
384.1265966058373
 30
0
  9
$GRIDMODE
 70
    0
  9
$SNAPSTYLE
 70
    0
  9
$PLIMMIN
 10
0
 20
0
  9
$PLIMMAX
 10
12
 20
9
  9
$UNITMODE
 70
    0
  9
$VISRETAIN
 70
    1
  9
$PLINEGEN
 70
    0
  9
$PSLTSCALE
 70
    1
  9
$TREEDEPTH
 70
 3020
  9
$CMLSTYLE
  2
Standard
  9
$CMLJUST
 70
    0
  9
$CMLSCALE
 40
1
  9
$PROXYGRAPHICS
 70
    1
  9
$MEASUREMENT
 70
    1
  9
$CELWEIGHT
370
   -1
  9
$ENDCAPS
280
    0
  9
$JOINSTYLE
280
    0
  9
$LWDISPLAY
290
    0
  9
$INSUNITS
 70
    4
  9
$HYPERLINKBASE
  1

  9
$STYLESHEET
  1

  9
$XEDIT
290
    1
  9
$CEPSNTYPE
380
    0
  9
$PSTYLEMODE
290
    1
  9
$EXTNAMES
290
    1
  9
$PSVPSCALE
 40
0
  9
$OLESTARTUP
290
    0
  9
$SORTENTS
280
  127
  9
$INDEXCTL
280
    0
  9
$HIDETEXT
280
    1
  9
$XCLIPFRAME
290
    0
  9
$HALOGAP
280
    0
  9
$OBSCOLOR
 70
  257
  9
$OBSLTYPE
280
    0
  9
$INTERSECTIONDISPLAY
280
    0
  9
$INTERSECTIONCOLOR
 70
  257
  9
$DIMASSOC
280
    2
  9
$PROJECTNAME
  1

  9
$CAMERADISPLAY
290
    0
  9
$LENSLENGTH
 40
50
  9
$CAMERAHEIGHT
 40
0
  9
$STEPSPERSEC
 40
2
  9
$STEPSIZE
 40
6
  9
$3DDWFPREC
 40
2
  9
$PSOLWIDTH
 40
0.25
  9
$PSOLHEIGHT
 40
4
  9
$LOFTANG1
 40
1.570796326794896
  9
$LOFTANG2
 40
1.570796326794896
  9
$LOFTMAG1
 40
0
  9
$LOFTMAG2
 40
0
  9
$LOFTPARAM
 70
    7
  9
$LOFTNORMALS
280
    1
  9
$LATITUDE
 40
37.795
  9
$LONGITUDE
 40
-122.394
  9
$NORTHDIRECTION
 40
0
  9
$TIMEZONE
 70
-8000
  9
$LIGHTGLYPHDISPLAY
280
    1
  9
$TILEMODELIGHTSYNCH
280
    1
  9
$SOLIDHIST
280
    0
  9
$SHOWHIST
280
    1
  9
$DWFFRAME
280
    2
  9
$DGNFRAME
280
    0
  9
$REALWORLDSCALE
290
    1
  9
$INTERFERECOLOR
 62
    1
  9
$CSHADOW
280
    0
  9
$SHADOWPLANELOCATION
 40
0
  0
ENDSEC
  0
SECTION
  2
CLASSES
  0
ENDSEC
  0
SECTION
  2
TABLES
  0
TABLE
  2
VPORT
  5
8
330
0
100
AcDbSymbolTable
 70
    1
  0
VPORT
  5
31
330
2
100
AcDbSymbolTableRecord
100
AcDbViewportTableRecord
  2
*ACTIVE
 70
    0
 10
0
 20
0
 11
1
 21
1
 12
256.9180012923357
 22
308.8131066441016
 13
0
 23
0
 14
10
 24
10
 15
10
 25
10
 16
0
 26
0
 36
1
 17
0
 27
0
 37
0
 40
8.562854251741783
 41
2.022684310018904
 42
50
 43
0
 44
0
 50
0
 51
0
 71
    0
 72
  100
 73
    1
 74
    3
 75
    0
 76
    0
 77
    0
 78
    0
281
    0
 65
    1
110
0
120
0
130
0
111
1
121
0
131
0
112
0
122
1
132
0
 79
    0
146
0
348
10020
 60
    7
 61
    5
292
1
282
    1
141
0
142
0
 63
  250
421
3358443
  0
ENDTAB
  0
TABLE
  2
LTYPE
  5
5
330
0
100
AcDbSymbolTable
 70
    4
  0
LTYPE
  5
14
330
5
100
AcDbSymbolTableRecord
100
AcDbLinetypeTableRecord
  2
ByBlock
 70
    0
  3

 72
   65
 73
    0
 40
0
  0
LTYPE
  5
15
330
5
100
AcDbSymbolTableRecord
100
AcDbLinetypeTableRecord
  2
ByLayer
 70
    0
  3

 72
   65
 73
    0
 40
0
  0
LTYPE
  5
16
330
5
100
AcDbSymbolTableRecord
100
AcDbLinetypeTableRecord
  2
Continuous
 70
    0
  3
Solid line
 72
   65
 73
    0
 40
0
  0
LTYPE
  5
32
330
5
100
AcDbSymbolTableRecord
100
AcDbLinetypeTableRecord
  2
DOT
 70
    0
  3
Dot . . . . . . . . . . . . . . . . . . . . . .
 72
   65
 73
    2
 40
6.35
 49
0
 74
    0
 49
-6.35
 74
    0
  0
LTYPE
  5
33
330
5
100
AcDbSymbolTableRecord
100
AcDbLinetypeTableRecord
  2
DOTTINY
 70
    0
  3
Dot (.15x) .....................................
 72
   65
 73
    2
 40
0.9525
 49
0
 74
    0
 49
-0.9525
 74
    0
  0
LTYPE
  5
34
330
5
100
AcDbSymbolTableRecord
100
AcDbLinetypeTableRecord
  2
DOT2
 70
    0
  3
Dot (.5x) .....................................
 72
   65
 73
    2
 40
3.175
 49
0
 74
    0
 49
-3.175
 74
    0
  0
LTYPE
  5
35
330
5
100
AcDbSymbolTableRecord
100
AcDbLinetypeTableRecord
  2
DOTX2
 70
    0
  3
Dot (2x) .  .  .  .  .  .  .  .  .  .  .  .  .
 72
   65
 73
    2
 40
12.7
 49
0
 74
    0
 49
-12.7
 74
    0
  0
LTYPE
  5
36
330
5
100
AcDbSymbolTableRecord
100
AcDbLinetypeTableRecord
  2
DASHED
 70
    0
  3
Dashed _ _ _ _ _ _ _ _ _ _ _ _ _ _ _ _ _
 72
   65
 73
    2
 40
19.05
 49
12.7
 74
    0
 49
-6.35
 74
    0
  0
LTYPE
  5
37
330
5
100
AcDbSymbolTableRecord
100
AcDbLinetypeTableRecord
  2
DASHEDTINY
 70
    0
  3
Dashed (.15x) _ _ _ _ _ _ _ _ _ _ _ _ _ _ _ _ _
 72
   65
 73
    2
 40
2.8575
 49
1.905
 74
    0
 49
-0.9525
 74
    0
  0
LTYPE
  5
38
330
5
100
AcDbSymbolTableRecord
100
AcDbLinetypeTableRecord
  2
DASHED2
 70
    0
  3
Dashed (.5x) _ _ _ _ _ _ _ _ _ _ _ _ _ _ _ _ _
 72
   65
 73
    2
 40
9.524999999999999
 49
6.35
 74
    0
 49
-3.175
 74
    0
  0
LTYPE
  5
39
330
5
100
AcDbSymbolTableRecord
100
AcDbLinetypeTableRecord
  2
DASHEDX2
 70
    0
  3
Dashed (2x) ____  ____  ____  ____  ____  ___
 72
   65
 73
    2
 40
38.09999999999999
 49
25.4
 74
    0
 49
-12.7
 74
    0
  0
LTYPE
  5
3A
330
5
100
AcDbSymbolTableRecord
100
AcDbLinetypeTableRecord
  2
DASHDOT
 70
    0
  3
Dash dot __ . __ . __ . __ . __ . __ . __ . __
 72
   65
 73
    4
 40
25.4
 49
12.7
 74
    0
 49
-6.35
 74
    0
 49
0
 74
    0
 49
-6.35
 74
    0
  0
LTYPE
  5
3B
330
5
100
AcDbSymbolTableRecord
100
AcDbLinetypeTableRecord
  2
DASHDOTTINY
 70
    0
  3
Dash dot (.15x) _._._._._._._._._._._._._._._.
 72
   65
 73
    4
 40
3.81
 49
1.905
 74
    0
 49
-0.9525
 74
    0
 49
0
 74
    0
 49
-0.9525
 74
    0
  0
LTYPE
  5
3C
330
5
100
AcDbSymbolTableRecord
100
AcDbLinetypeTableRecord
  2
DASHDOT2
 70
    0
  3
Dash dot (.5x) _._._._._._._._._._._._._._._.
 72
   65
 73
    4
 40
12.7
 49
6.35
 74
    0
 49
-3.175
 74
    0
 49
0
 74
    0
 49
-3.175
 74
    0
  0
LTYPE
  5
3D
330
5
100
AcDbSymbolTableRecord
100
AcDbLinetypeTableRecord
  2
DASHDOTX2
 70
    0
  3
Dash dot (2x) ____  .  ____  .  ____  .  ___
 72
   65
 73
    4
 40
50.8
 49
25.4
 74
    0
 49
-12.7
 74
    0
 49
0
 74
    0
 49
-12.7
 74
    0
  0
LTYPE
  5
3E
330
5
100
AcDbSymbolTableRecord
100
AcDbLinetypeTableRecord
  2
DIVIDE
 70
    0
  3
Divide ____ . . ____ . . ____ . . ____ . . ____
 72
   65
 73
    6
 40
31.75
 49
12.7
 74
    0
 49
-6.35
 74
    0
 49
0
 74
    0
 49
-6.35
 74
    0
 49
0
 74
    0
 49
-6.35
 74
    0
  0
LTYPE
  5
3F
330
5
100
AcDbSymbolTableRecord
100
AcDbLinetypeTableRecord
  2
DIVIDETINY
 70
    0
  3
Divide (.15x) __..__..__..__..__..__..__..__.._
 72
   65
 73
    6
 40
4.7625
 49
1.905
 74
    0
 49
-0.9525
 74
    0
 49
0
 74
    0
 49
-0.9525
 74
    0
 49
0
 74
    0
 49
-0.9525
 74
    0
  0
LTYPE
  5
40
330
5
100
AcDbSymbolTableRecord
100
AcDbLinetypeTableRecord
  2
DIVIDE2
 70
    0
  3
Divide (.5x) __..__..__..__..__..__..__..__.._
 72
   65
 73
    6
 40
15.875
 49
6.35
 74
    0
 49
-3.175
 74
    0
 49
0
 74
    0
 49
-3.175
 74
    0
 49
0
 74
    0
 49
-3.175
 74
    0
  0
LTYPE
  5
41
330
5
100
AcDbSymbolTableRecord
100
AcDbLinetypeTableRecord
  2
DIVIDEX2
 70
    0
  3
Divide (2x) ________  .  .  ________  .  .  _
 72
   65
 73
    6
 40
63.5
 49
25.4
 74
    0
 49
-12.7
 74
    0
 49
0
 74
    0
 49
-12.7
 74
    0
 49
0
 74
    0
 49
-12.7
 74
    0
  0
LTYPE
  5
42
330
5
100
AcDbSymbolTableRecord
100
AcDbLinetypeTableRecord
  2
BORDER
 70
    0
  3
Border __ __ . __ __ . __ __ . __ __ . __ __ .
 72
   65
 73
    6
 40
44.45
 49
12.7
 74
    0
 49
-6.35
 74
    0
 49
12.7
 74
    0
 49
-6.35
 74
    0
 49
0
 74
    0
 49
-6.35
 74
    0
  0
LTYPE
  5
43
330
5
100
AcDbSymbolTableRecord
100
AcDbLinetypeTableRecord
  2
BORDERTINY
 70
    0
  3
Border (.15x) __.__.__.__.__.__.__.__.__.__.__.
 72
   65
 73
    6
 40
6.6675
 49
1.905
 74
    0
 49
-0.9525
 74
    0
 49
1.905
 74
    0
 49
-0.9525
 74
    0
 49
0
 74
    0
 49
-0.9525
 74
    0
  0
LTYPE
  5
44
330
5
100
AcDbSymbolTableRecord
100
AcDbLinetypeTableRecord
  2
BORDER2
 70
    0
  3
Border (.5x) __.__.__.__.__.__.__.__.__.__.__.
 72
   65
 73
    6
 40
22.225
 49
6.35
 74
    0
 49
-3.175
 74
    0
 49
6.35
 74
    0
 49
-3.175
 74
    0
 49
0
 74
    0
 49
-3.175
 74
    0
  0
LTYPE
  5
45
330
5
100
AcDbSymbolTableRecord
100
AcDbLinetypeTableRecord
  2
BORDERX2
 70
    0
  3
Border (2x) ____  ____  .  ____  ____  .  ___
 72
   65
 73
    6
 40
88.89999999999999
 49
25.4
 74
    0
 49
-12.7
 74
    0
 49
25.4
 74
    0
 49
-12.7
 74
    0
 49
0
 74
    0
 49
-12.7
 74
    0
  0
LTYPE
  5
46
330
5
100
AcDbSymbolTableRecord
100
AcDbLinetypeTableRecord
  2
CENTER
 70
    0
  3
Center ____ _ ____ _ ____ _ ____ _ ____ _ ____
 72
   65
 73
    4
 40
50.8
 49
31.75
 74
    0
 49
-6.35
 74
    0
 49
6.35
 74
    0
 49
-6.35
 74
    0
  0
LTYPE
  5
47
330
5
100
AcDbSymbolTableRecord
100
AcDbLinetypeTableRecord
  2
CENTERTINY
 70
    0
  3
Center (.15x) ___ _ ___ _ ___ _ ___ _ ___ _ ___
 72
   65
 73
    4
 40
7.619999999999999
 49
4.7625
 74
    0
 49
-0.9525
 74
    0
 49
0.9525
 74
    0
 49
-0.9525
 74
    0
  0
LTYPE
  5
48
330
5
100
AcDbSymbolTableRecord
100
AcDbLinetypeTableRecord
  2
CENTER2
 70
    0
  3
Center (.5x) ___ _ ___ _ ___ _ ___ _ ___ _ ___
 72
   65
 73
    4
 40
28.575
 49
19.05
 74
    0
 49
-3.175
 74
    0
 49
3.175
 74
    0
 49
-3.175
 74
    0
  0
LTYPE
  5
49
330
5
100
AcDbSymbolTableRecord
100
AcDbLinetypeTableRecord
  2
CENTERX2
 70
    0
  3
Center (2x) ________  __  ________  __  _____
 72
   65
 73
    4
 40
101.6
 49
63.5
 74
    0
 49
-12.7
 74
    0
 49
12.7
 74
    0
 49
-12.7
 74
    0
  0
ENDTAB
  0
TABLE
  2
LAYER
  5
2
330
0
100
AcDbSymbolTable
 70
    1
  0
LAYER
  5
10
330
2
100
AcDbSymbolTableRecord
100
AcDbLayerTableRecord
  2
0
 70
    0
 62
    7
  6
CONTINUOUS
370
   -3
390
F
  0
LAYER
  5
4A
330
2
100
AcDbSymbolTableRecord
100
AcDbLayerTableRecord
  2
3D Geometria szkicu (ISO)
 70
    0
 62
    7
  6
CONTINUOUS
370
    9
390
F
  0
LAYER
  5
4B
330
2
100
AcDbSymbolTableRecord
100
AcDbLayerTableRecord
  2
Geometria szkicu (ISO)
 70
    0
 62
    7
  6
CONTINUOUS
370
   18
390
F
  0
LAYER
  5
4C
330
2
100
AcDbSymbolTableRecord
100
AcDbLayerTableRecord
  2
IDW_BlockReferenceLayer
 70
    0
 62
    7
  6
CONTINUOUS
370
   -3
390
F
  0
LAYER
  5
4D
330
2
100
AcDbSymbolTableRecord
100
AcDbLayerTableRecord
  2
Kreskowanie (ISO)
 70
    0
 62
    7
  6
CONTINUOUS
370
    9
390
F
  0
LAYER
  5
4E
330
2
100
AcDbSymbolTableRecord
100
AcDbLayerTableRecord
  2
Linia przekroju (ISO)
 70
    0
 62
    7
  6
CONTINUOUS
370
   18
390
F
  0
LAYER
  5
4F
330
2
100
AcDbSymbolTableRecord
100
AcDbLayerTableRecord
  2
Linia przerwania (ISO)
 70
    0
 62
    7
  6
CONTINUOUS
370
   18
390
F
  0
LAYER
  5
50
330
2
100
AcDbSymbolTableRecord
100
AcDbLayerTableRecord
  2
Linia środkowa (ISO)
 70
    0
 62
    7
  6
CONTINUOUS
370
    9
390
F
  0
LAYER
  5
51
330
2
100
AcDbSymbolTableRecord
100
AcDbLayerTableRecord
  2
Linia środkowa rolki
 70
    0
 62
    7
  6
CONTINUOUS
370
   18
390
F
  0
LAYER
  5
52
330
2
100
AcDbSymbolTableRecord
100
AcDbLayerTableRecord
  2
Linia środkowa zgięcia (ISO)
 70
    0
 62
    7
  6
CONTINUOUS
370
   18
390
F
  0
LAYER
  5
53
330
2
100
AcDbSymbolTableRecord
100
AcDbLayerTableRecord
  2
Nakładkowy (ISO)
 70
    0
 62
    7
  6
CONTINUOUS
370
   35
390
F
  0
LAYER
  5
54
330
2
100
AcDbSymbolTableRecord
100
AcDbLayerTableRecord
  2
Obramowanie (ISO)
 70
    0
 62
    7
  6
CONTINUOUS
370
   35
390
F
  0
LAYER
  5
55
330
2
100
AcDbSymbolTableRecord
100
AcDbLayerTableRecord
  2
Obramowanie detalu (ISO)
 70
    0
 62
    7
  6
CONTINUOUS
370
   18
390
F
  0
LAYER
  5
56
330
2
100
AcDbSymbolTableRecord
100
AcDbLayerTableRecord
  2
Odniesienie (ISO)
 70
    0
 62
    7
  6
CONTINUOUS
370
   18
390
F
  0
LAYER
  5
57
330
2
100
AcDbSymbolTableRecord
100
AcDbLayerTableRecord
  2
Oś konstrukcyjna (ISO)
 70
    0
 62
    7
  6
CONTINUOUS
370
   18
390
F
  0
LAYER
  5
58
330
2
100
AcDbSymbolTableRecord
100
AcDbLayerTableRecord
  2
Punkt konstrukcyjny (ISO)
 70
    0
 62
    7
  6
CONTINUOUS
370
   18
390
F
  0
LAYER
  5
59
330
2
100
AcDbSymbolTableRecord
100
AcDbLayerTableRecord
  2
Płaszczyzna konstrukcyjna (ISO)
 70
    0
 62
    7
  6
CONTINUOUS
370
   18
390
F
  0
LAYER
  5
5A
330
2
100
AcDbSymbolTableRecord
100
AcDbLayerTableRecord
  2
Symbol (ISO)
 70
    0
 62
    7
  6
CONTINUOUS
370
   18
390
F
  0
LAYER
  5
5B
330
2
100
AcDbSymbolTableRecord
100
AcDbLayerTableRecord
  2
Tor rozsunięcia (ISO)
 70
    0
 62
    7
  6
CONTINUOUS
370
   18
390
F
  0
LAYER
  5
5C
330
2
100
AcDbSymbolTableRecord
100
AcDbLayerTableRecord
  2
Tytuł (ISO)
 70
    0
 62
    7
  6
CONTINUOUS
370
   20
390
F
  0
LAYER
  5
5D
330
2
100
AcDbSymbolTableRecord
100
AcDbLayerTableRecord
  2
Ukryte (ISO)
 70
    0
 62
    7
  6
CONTINUOUS
370
   18
390
F
  0
LAYER
  5
5E
330
2
100
AcDbSymbolTableRecord
100
AcDbLayerTableRecord
  2
Ukryte wąskie (ISO)
 70
    0
 62
    7
  6
CONTINUOUS
370
   18
390
F
  0
LAYER
  5
5F
330
2
100
AcDbSymbolTableRecord
100
AcDbLayerTableRecord
  2
Widoczne (ISO)
 70
    0
 62
    7
  6
CONTINUOUS
370
   35
390
F
  0
LAYER
  5
60
330
2
100
AcDbSymbolTableRecord
100
AcDbLayerTableRecord
  2
Widoczne wąskie (ISO)
 70
    0
 62
    7
  6
CONTINUOUS
370
   18
390
F
  0
LAYER
  5
61
330
2
100
AcDbSymbolTableRecord
100
AcDbLayerTableRecord
  2
Wymiar (ISO)
 70
    0
 62
    7
  6
CONTINUOUS
370
   18
390
F
  0
LAYER
  5
62
330
2
100
AcDbSymbolTableRecord
100
AcDbLayerTableRecord
  2
Zakres zgięcia (ISO)
 70
    0
 62
    7
  6
CONTINUOUS
370
   35
390
F
  0
LAYER
  5
63
330
2
100
AcDbSymbolTableRecord
100
AcDbLayerTableRecord
  2
Znacznik środka (ISO)
 70
    0
 62
    7
  6
CONTINUOUS
370
   18
390
F
  0
ENDTAB
  0
TABLE
  2
STYLE
  5
3
330
0
100
AcDbSymbolTable
 70
    3
  0
STYLE
  5
64
330
2
100
AcDbSymbolTableRecord
100
AcDbTextStyleTableRecord
  2
STANDARD
 70
    0
 40
0
 41
1
 50
0
 71
    0
 42
1
  3
STANDARD
  4

  0
ENDTAB
  0
TABLE
  2
VIEW
  5
6
330
0
100
AcDbSymbolTable
 70
    0
  0
ENDTAB
  0
TABLE
  2
UCS
  5
7
330
0
100
AcDbSymbolTable
 70
    0
  0
ENDTAB
  0
TABLE
  2
APPID
  5
9
330
0
100
AcDbSymbolTable
 70
    1
  0
APPID
  5
12
330
9
100
AcDbSymbolTableRecord
100
AcDbRegAppTableRecord
  2
ACAD
 70
    0
  0
APPID
  5
65
330
9
100
AcDbSymbolTableRecord
100
AcDbRegAppTableRecord
  2
LibreCad
 70
    0
  0
ENDTAB
  0
TABLE
  2
DIMSTYLE
  5
A
330
0
100
AcDbSymbolTable
 70
    1
100
AcDbDimStyleTable
 71
    1
  0
DIMSTYLE
105
66
330
A
100
AcDbSymbolTableRecord
100
AcDbDimStyleTableRecord
  2
Standard
 70
    0
 40
1
 41
2.5
 42
0
 43
0.38
 44
1.5
 45
0
 46
0
 47
0
 48
0
 49
1
140
3
141
0.09
142
0
143
25.4
144
1
145
0
146
1
147
0.5
148
0
 71
    0
 72
    0
 73
    1
 74
    1
 75
    0
 76
    0
 77
    0
 78
    8
 79
    2
170
    0
171
    2
172
    0
173
    0
174
    0
175
    0
176
  256
177
  256
178
  256
179
    2
271
    3
272
    4
273
    2
274
    2
275
    0
276
    0
277
    2
278
   44
279
    0
280
    0
281
    0
282
    0
283
    1
284
    0
285
    0
286
    0
288
    0
289
    3
340
3NN
341

371
   -1
372
   -1
  0
ENDTAB
  0
TABLE
  2
BLOCK_RECORD
  5
1
330
0
100
AcDbSymbolTable
 70
    2
  0
BLOCK_RECORD
  5
1F
330
1
100
AcDbSymbolTableRecord
100
AcDbBlockTableRecord
  2
*Model_Space
 70
    0
280
    1
281
    0
  0
BLOCK_RECORD
  5
1E
330
1
100
AcDbSymbolTableRecord
100
AcDbBlockTableRecord
  2
*Paper_Space
 70
    0
280
    1
281
    0
  0
BLOCK_RECORD
  5
67
330
1
100
AcDbSymbolTableRecord
100
AcDbBlockTableRecord
  2
Filled-1
 70
    0
280
    1
281
    0
  0
BLOCK_RECORD
  5
6A
330
1
100
AcDbSymbolTableRecord
100
AcDbBlockTableRecord
  2
*I1
 70
    0
280
    1
281
    0
  0
BLOCK_RECORD
  5
6D
330
1
100
AcDbSymbolTableRecord
100
AcDbBlockTableRecord
  2
*I2
 70
    0
280
    1
281
    0
  0
BLOCK_RECORD
  5
70
330
1
100
AcDbSymbolTableRecord
100
AcDbBlockTableRecord
  2
*I3
 70
    0
280
    1
281
    0
  0
BLOCK_RECORD
  5
73
330
1
100
AcDbSymbolTableRecord
100
AcDbBlockTableRecord
  2
*I4
 70
    0
280
    1
281
    0
  0
BLOCK_RECORD
  5
76
330
1
100
AcDbSymbolTableRecord
100
AcDbBlockTableRecord
  2
*I5
 70
    0
280
    1
281
    0
  0
BLOCK_RECORD
  5
79
330
1
100
AcDbSymbolTableRecord
100
AcDbBlockTableRecord
  2
*I6
 70
    0
280
    1
281
    0
  0
BLOCK_RECORD
  5
7C
330
1
100
AcDbSymbolTableRecord
100
AcDbBlockTableRecord
  2
C-1068951_Arkusz_WIDOK1
 70
    0
280
    1
281
    0
  0
BLOCK_RECORD
  5
7F
330
1
100
AcDbSymbolTableRecord
100
AcDbBlockTableRecord
  2
*I8
 70
    0
280
    1
281
    0
  0
BLOCK_RECORD
  5
82
330
1
100
AcDbSymbolTableRecord
100
AcDbBlockTableRecord
  2
C-1068951_Arkusz_WIDOK2
 70
    0
280
    1
281
    0
  0
BLOCK_RECORD
  5
85
330
1
100
AcDbSymbolTableRecord
100
AcDbBlockTableRecord
  2
*I10
 70
    0
280
    1
281
    0
  0
BLOCK_RECORD
  5
88
330
1
100
AcDbSymbolTableRecord
100
AcDbBlockTableRecord
  2
C-1068951_Arkusz_WIDOK3
 70
    0
280
    1
281
    0
  0
BLOCK_RECORD
  5
8B
330
1
100
AcDbSymbolTableRecord
100
AcDbBlockTableRecord
  2
*I12
 70
    0
280
    1
281
    0
  0
BLOCK_RECORD
  5
8E
330
1
100
AcDbSymbolTableRecord
100
AcDbBlockTableRecord
  2
*I13
 70
    0
280
    1
281
    0
  0
BLOCK_RECORD
  5
91
330
1
100
AcDbSymbolTableRecord
100
AcDbBlockTableRecord
  2
*I14
 70
    0
280
    1
281
    0
  0
BLOCK_RECORD
  5
94
330
1
100
AcDbSymbolTableRecord
100
AcDbBlockTableRecord
  2
*I15
 70
    0
280
    1
281
    0
  0
BLOCK_RECORD
  5
97
330
1
100
AcDbSymbolTableRecord
100
AcDbBlockTableRecord
  2
C-1068951_Arkusz_WIDOK4
 70
    0
280
    1
281
    0
  0
BLOCK_RECORD
  5
9A
330
1
100
AcDbSymbolTableRecord
100
AcDbBlockTableRecord
  2
*I17
 70
    0
280
    1
281
    0
  0
BLOCK_RECORD
  5
9D
330
1
100
AcDbSymbolTableRecord
100
AcDbBlockTableRecord
  2
*I18
 70
    0
280
    1
281
    0
  0
BLOCK_RECORD
  5
A0
330
1
100
AcDbSymbolTableRecord
100
AcDbBlockTableRecord
  2
*I19
 70
    0
280
    1
281
    0
  0
BLOCK_RECORD
  5
A3
330
1
100
AcDbSymbolTableRecord
100
AcDbBlockTableRecord
  2
*I20
 70
    0
280
    1
281
    0
  0
BLOCK_RECORD
  5
A6
330
1
100
AcDbSymbolTableRecord
100
AcDbBlockTableRecord
  2
*I21
 70
    0
280
    1
281
    0
  0
BLOCK_RECORD
  5
A9
330
1
100
AcDbSymbolTableRecord
100
AcDbBlockTableRecord
  2
*I22
 70
    0
280
    1
281
    0
  0
BLOCK_RECORD
  5
AC
330
1
100
AcDbSymbolTableRecord
100
AcDbBlockTableRecord
  2
*I23
 70
    0
280
    1
281
    0
  0
BLOCK_RECORD
  5
AF
330
1
100
AcDbSymbolTableRecord
100
AcDbBlockTableRecord
  2
*I24
 70
    0
280
    1
281
    0
  0
BLOCK_RECORD
  5
B2
330
1
100
AcDbSymbolTableRecord
100
AcDbBlockTableRecord
  2
*I25
 70
    0
280
    1
281
    0
  0
BLOCK_RECORD
  5
B5
330
1
100
AcDbSymbolTableRecord
100
AcDbBlockTableRecord
  2
*I26
 70
    0
280
    1
281
    0
  0
BLOCK_RECORD
  5
B8
330
1
100
AcDbSymbolTableRecord
100
AcDbBlockTableRecord
  2
*I27
 70
    0
280
    1
281
    0
  0
BLOCK_RECORD
  5
BB
330
1
100
AcDbSymbolTableRecord
100
AcDbBlockTableRecord
  2
*I28
 70
    0
280
    1
281
    0
  0
BLOCK_RECORD
  5
BE
330
1
100
AcDbSymbolTableRecord
100
AcDbBlockTableRecord
  2
C-1068951_Arkusz_A
 70
    0
280
    1
281
    0
  0
BLOCK_RECORD
  5
C1
330
1
100
AcDbSymbolTableRecord
100
AcDbBlockTableRecord
  2
*I30
 70
    0
280
    1
281
    0
  0
BLOCK_RECORD
  5
C4
330
1
100
AcDbSymbolTableRecord
100
AcDbBlockTableRecord
  2
*I31
 70
    0
280
    1
281
    0
  0
BLOCK_RECORD
  5
C7
330
1
100
AcDbSymbolTableRecord
100
AcDbBlockTableRecord
  2
*I32
 70
    0
280
    1
281
    0
  0
ENDTAB
  0
ENDSEC
  0
SECTION
  2
BLOCKS
  0
BLOCK
  5
20
330
1F
100
AcDbEntity
  8
0
100
AcDbBlockBegin
  2
*Model_Space
 70
    0
 10
0
 20
0
 30
0
  3
*Model_Space
  1

  0
ENDBLK
  5
21
330
1F
100
AcDbEntity
  8
0
100
AcDbBlockEnd
  0
BLOCK
  5
1C
330
1B
100
AcDbEntity
  8
0
100
AcDbBlockBegin
  2
*Paper_Space
 70
    0
 10
0
 20
0
 30
0
  3
*Paper_Space
  1

  0
ENDBLK
  5
1D
330
1F
100
AcDbEntity
  8
0
100
AcDbBlockEnd
  0
BLOCK
  5
68
330
67
100
AcDbEntity
  8
0
100
AcDbBlockBegin
  2
Filled-1
 70
    0
 10
0
 20
0
  3
Filled-1
  1

  0
LINE
  5
CA
100
AcDbEntity
  8
0
  6
ByLayer
 62
    0
370
   -1
100
AcDbLine
 10
-1
 20
0
 11
0
 21
0
  0
SOLID
  5
CB
100
AcDbEntity
  8
0
  6
ByLayer
 62
    0
370
   -1
100
AcDbTrace
 10
-1
 20
-0.2
 30
0
 11
0
 21
0
 31
0
 12
-1
 22
0.2
 32
0
 13
-1
 23
0.2
 33
0
  0
LINE
  5
CC
100
AcDbEntity
  8
0
  6
ByLayer
 62
    0
370
   -1
100
AcDbLine
 10
-1
 20
-0.2
 11
0
 21
0
  0
LINE
  5
CD
100
AcDbEntity
  8
0
  6
ByLayer
 62
    0
370
   -1
100
AcDbLine
 10
0
 20
0
 11
-1
 21
0.2
  0
LINE
  5
CE
100
AcDbEntity
  8
0
  6
ByLayer
 62
    0
370
   -1
100
AcDbLine
 10
-1
 20
0.2
 11
-1
 21
-0.2
  0
ENDBLK
  5
69
330
67
100
AcDbEntity
  8
0
100
AcDbBlockEnd
  0
BLOCK
  5
6B
330
6A
100
AcDbEntity
  8
0
100
AcDbBlockBegin
  2
*I1
 70
    0
 10
0
 20
0
  3
*I1
  1

  0
LWPOLYLINE
  5
CF
100
AcDbEntity
  8
Obramowanie (ISO)
  6
ByLayer
 62
  256
370
   -1
100
AcDbPolyline
 90
    2
 70
    0
 43
0
 10
410
 20
222.7499961853027
 10
413.4000015258789
 20
222.7499961853027
  0
LWPOLYLINE
  5
D0
100
AcDbEntity
  8
Obramowanie (ISO)
  6
ByLayer
 62
  256
370
   -1
100
AcDbPolyline
 90
    2
 70
    0
 43
0
 10
10
 20
222.7499961853027
 10
6.599999666213989
 20
222.7499961853027
  0
LWPOLYLINE
  5
D1
100
AcDbEntity
  8
Obramowanie (ISO)
  6
ByLayer
 62
  256
370
   -1
100
AcDbPolyline
 90
    2
 70
    0
 43
0
 10
410
 20
74.25000190734863
 10
413.4000015258789
 20
74.25000190734863
  0
LWPOLYLINE
  5
D2
100
AcDbEntity
  8
Obramowanie (ISO)
  6
ByLayer
 62
  256
370
   -1
100
AcDbPolyline
 90
    2
 70
    0
 43
0
 10
10
 20
74.25000190734863
 10
6.599999666213989
 20
74.25000190734863
  0
LWPOLYLINE
  5
D3
100
AcDbEntity
  8
Obramowanie (ISO)
  6
ByLayer
 62
  256
370
   -1
100
AcDbPolyline
 90
    2
 70
    0
 43
0
 10
350
 20
287.0000076293946
 10
350
 20
290.4000091552735
  0
LWPOLYLINE
  5
D4
100
AcDbEntity
  8
Obramowanie (ISO)
  6
ByLayer
 62
  256
370
   -1
100
AcDbPolyline
 90
    2
 70
    0
 43
0
 10
350
 20
10
 10
350
 20
6.599999666213989
  0
LWPOLYLINE
  5
D5
100
AcDbEntity
  8
Obramowanie (ISO)
  6
ByLayer
 62
  256
370
   -1
100
AcDbPolyline
 90
    2
 70
    0
 43
0
 10
280
 20
287.0000076293946
 10
280
 20
290.4000091552735
  0
LWPOLYLINE
  5
D6
100
AcDbEntity
  8
Obramowanie (ISO)
  6
ByLayer
 62
  256
370
   -1
100
AcDbPolyline
 90
    2
 70
    0
 43
0
 10
280
 20
10
 10
280
 20
6.599999666213989
  0
LWPOLYLINE
  5
D7
100
AcDbEntity
  8
Obramowanie (ISO)
  6
ByLayer
 62
  256
370
   -1
100
AcDbPolyline
 90
    2
 70
    0
 43
0
 10
140
 20
287.0000076293946
 10
140
 20
290.4000091552735
  0
LWPOLYLINE
  5
D8
100
AcDbEntity
  8
Obramowanie (ISO)
  6
ByLayer
 62
  256
370
   -1
100
AcDbPolyline
 90
    2
 70
    0
 43
0
 10
140
 20
10
 10
140
 20
6.599999666213989
  0
LWPOLYLINE
  5
D9
100
AcDbEntity
  8
Obramowanie (ISO)
  6
ByLayer
 62
  256
370
   -1
100
AcDbPolyline
 90
    2
 70
    0
 43
0
 10
70
 20
287.0000076293946
 10
70
 20
290.4000091552735
  0
LWPOLYLINE
  5
DA
100
AcDbEntity
  8
Obramowanie (ISO)
  6
ByLayer
 62
  256
370
   -1
100
AcDbPolyline
 90
    2
 70
    0
 43
0
 10
70
 20
10
 10
70
 20
6.599999666213989
  0
LWPOLYLINE
  5
DB
100
AcDbEntity
  8
Obramowanie (ISO)
  6
ByLayer
 62
  256
370
   -1
100
AcDbPolyline
 90
    5
 70
    0
 43
0
 10
420
 20
148.5000038146973
 10
410
 20
148.5000038146973
 10
415
 20
151.3867473602295
 10
415
 20
145.6132507324219
 10
410
 20
148.5000038146973
  0
MTEXT
  5
DC
100
AcDbEntity
  8
Obramowanie (ISO)
  6
ByLayer
 62
  256
370
   -1
100
AcDbMText
 10
410.8008922210297
 20
261.3750000596046
 30
0
 40
3.000000119209289
 41
37.6666681634064
 71
    1
 72
    5
  1
\fTahoma|b0|i0;\W1.;D
  7
STANDARD
210
0
220
0
230
1
 50
0
 73
    1
 44
1
  0
MTEXT
  5
DD
100
AcDbEntity
  8
Obramowanie (ISO)
  6
ByLayer
 62
  256
370
   -1
100
AcDbMText
 10
7.000892101820431
 20
261.3750000596046
 30
0
 40
3.000000119209289
 41
37.6666681634064
 71
    1
 72
    5
  1
\fTahoma|b0|i0;\W1.;D
  7
STANDARD
210
0
220
0
230
1
 50
0
 73
    1
 44
1
  0
MTEXT
  5
DE
100
AcDbEntity
  8
Obramowanie (ISO)
  6
ByLayer
 62
  256
370
   -1
100
AcDbMText
 10
410.7933455508573
 20
187.1784847974777
 30
0
 40
3.000000119209289
 41
37.3333348168274
 71
    1
 72
    5
  1
\fTahoma|b0|i0;\W1.;C
  7
STANDARD
210
0
220
0
230
1
 50
0
 73
    1
 44
1
  0
MTEXT
  5
DF
100
AcDbEntity
  8
Obramowanie (ISO)
  6
ByLayer
 62
  256
370
   -1
100
AcDbMText
 10
6.993345431647989
 20
187.1784847974777
 30
0
 40
3.000000119209289
 41
37.3333348168274
 71
    1
 72
    5
  1
\fTahoma|b0|i0;\W1.;C
  7
STANDARD
210
0
220
0
230
1
 50
0
 73
    1
 44
1
  0
MTEXT
  5
E0
100
AcDbEntity
  8
Obramowanie (ISO)
  6
ByLayer
 62
  256
370
   -1
100
AcDbMText
 10
410.9844415953716
 20
112.8750000596046
 30
0
 40
3.000000119209289
 41
37.66666816340621
 71
    1
 72
    5
  1
\fTahoma|b0|i0;\W1.;B
  7
STANDARD
210
0
220
0
230
1
 50
0
 73
    1
 44
1
  0
MTEXT
  5
E1
100
AcDbEntity
  8
Obramowanie (ISO)
  6
ByLayer
 62
  256
370
   -1
100
AcDbMText
 10
7.184441476162396
 20
112.8750000596046
 30
0
 40
3.000000119209289
 41
37.66666816340621
 71
    1
 72
    5
  1
\fTahoma|b0|i0;\W1.;B
  7
STANDARD
210
0
220
0
230
1
 50
0
 73
    1
 44
1
  0
MTEXT
  5
E2
100
AcDbEntity
  8
Obramowanie (ISO)
  6
ByLayer
 62
  256
370
   -1
100
AcDbMText
 10
410.6239117989161
 20
38.62500005960465
 30
0
 40
3.000000119209289
 41
38.00000150998503
 71
    1
 72
    5
  1
\fTahoma|b0|i0;\W1.;A
  7
STANDARD
210
0
220
0
230
1
 50
0
 73
    1
 44
1
  0
MTEXT
  5
E3
100
AcDbEntity
  8
Obramowanie (ISO)
  6
ByLayer
 62
  256
370
   -1
100
AcDbMText
 10
6.823911679706819
 20
38.62500005960465
 30
0
 40
3.000000119209289
 41
38.00000150998503
 71
    1
 72
    5
  1
\fTahoma|b0|i0;\W1.;A
  7
STANDARD
210
0
220
0
230
1
 50
0
 73
    1
 44
1
  0
MTEXT
  5
E4
100
AcDbEntity
  8
Obramowanie (ISO)
  6
ByLayer
 62
  256
370
   -1
100
AcDbMText
 10
34.04239257368826
 20
9.655915713310241
 30
0
 40
3.000000119209289
 41
37.33333481682759
 71
    1
 72
    5
  1
\fTahoma|b0|i0;\W1.;6
  7
STANDARD
210
0
220
0
230
1
 50
0
 73
    1
 44
1
  0
MTEXT
  5
E5
100
AcDbEntity
  8
Obramowanie (ISO)
  6
ByLayer
 62
  256
370
   -1
100
AcDbMText
 10
34.04239257368826
 20
290.4559158325195
 30
0
 40
3.000000119209289
 41
37.33333481682759
 71
    1
 72
    5
  1
\fTahoma|b0|i0;\W1.;6
  7
STANDARD
210
0
220
0
230
1
 50
0
 73
    1
 44
1
  0
MTEXT
  5
E6
100
AcDbEntity
  8
Obramowanie (ISO)
  6
ByLayer
 62
  256
370
   -1
100
AcDbMText
 10
104.1215927795879
 20
9.6
 30
0
 40
3.000000119209289
 41
37.33333481682759
 71
    1
 72
    5
  1
\fTahoma|b0|i0;\W1.;5
  7
STANDARD
210
0
220
0
230
1
 50
0
 73
    1
 44
1
  0
MTEXT
  5
E7
100
AcDbEntity
  8
Obramowanie (ISO)
  6
ByLayer
 62
  256
370
   -1
100
AcDbMText
 10
104.1215927795879
 20
290.4000001192093
 30
0
 40
3.000000119209289
 41
37.33333481682759
 71
    1
 72
    5
  1
\fTahoma|b0|i0;\W1.;5
  7
STANDARD
210
0
220
0
230
1
 50
0
 73
    1
 44
1
  0
LWPOLYLINE
  5
E8
100
AcDbEntity
  8
Obramowanie (ISO)
  6
ByLayer
 62
  256
370
   -1
100
AcDbPolyline
 90
    5
 70
    0
 43
0
 10
0
 20
148.5000038146973
 10
10
 20
148.5000038146973
 10
5
 20
151.3867473602295
 10
5
 20
145.6132507324219
 10
10
 20
148.5000038146973
  0
LWPOLYLINE
  5
E9
100
AcDbEntity
  8
Obramowanie (ISO)
  6
ByLayer
 62
  256
370
   -1
100
AcDbPolyline
 90
    5
 70
    0
 43
0
 10
210
 20
297.0000076293946
 10
210
 20
287.0000076293946
 10
207.1132469177246
 20
292.0000076293945
 10
212.8867530822754
 20
292.0000076293945
 10
210
 20
287.0000076293946
  0
LWPOLYLINE
  5
EA
100
AcDbEntity
  8
Obramowanie (ISO)
  6
ByLayer
 62
  256
370
   -1
100
AcDbPolyline
 90
    5
 70
    0
 43
0
 10
210
 20
0
 10
210
 20
10
 10
207.1132469177246
 20
5
 10
212.8867530822754
 20
5
 10
210
 20
10
  0
LWPOLYLINE
  5
EB
100
AcDbEntity
  8
Obramowanie (ISO)
  6
ByLayer
 62
  256
370
   -1
100
AcDbPolyline
 90
    5
 70
    0
 43
0
 10
10
 20
10
 10
10
 20
287.0000076293946
 10
410
 20
287.0000076293946
 10
410
 20
10
 10
10
 20
10
  0
MTEXT
  5
EC
100
AcDbEntity
  8
Obramowanie (ISO)
  6
ByLayer
 62
  256
370
   -1
100
AcDbMText
 10
173.953592342831
 20
9.6
 30
0
 40
3.000000119209289
 41
37.66666816340621
 71
    1
 72
    5
  1
\fTahoma|b0|i0;\W1.;4
  7
STANDARD
210
0
220
0
230
1
 50
0
 73
    1
 44
1
  0
MTEXT
  5
ED
100
AcDbEntity
  8
Obramowanie (ISO)
  6
ByLayer
 62
  256
370
   -1
100
AcDbMText
 10
173.953592342831
 20
290.4000001192093
 30
0
 40
3.000000119209289
 41
37.66666816340621
 71
    1
 72
    5
  1
\fTahoma|b0|i0;\W1.;4
  7
STANDARD
210
0
220
0
230
1
 50
0
 73
    1
 44
1
  0
MTEXT
  5
EE
100
AcDbEntity
  8
Obramowanie (ISO)
  6
ByLayer
 62
  256
370
   -1
100
AcDbMText
 10
244.0663926360821
 20
9.663209235668182
 30
0
 40
3.000000119209289
 41
37.33333481682759
 71
    1
 72
    5
  1
\fTahoma|b0|i0;\W1.;3
  7
STANDARD
210
0
220
0
230
1
 50
0
 73
    1
 44
1
  0
MTEXT
  5
EF
100
AcDbEntity
  8
Obramowanie (ISO)
  6
ByLayer
 62
  256
370
   -1
100
AcDbMText
 10
244.0663926360821
 20
290.4632093548774
 30
0
 40
3.000000119209289
 41
37.33333481682759
 71
    1
 72
    5
  1
\fTahoma|b0|i0;\W1.;3
  7
STANDARD
210
0
220
0
230
1
 50
0
 73
    1
 44
1
  0
MTEXT
  5
F0
100
AcDbEntity
  8
Obramowanie (ISO)
  6
ByLayer
 62
  256
370
   -1
100
AcDbMText
 10
314.0903926984759
 20
9.663209235668182
 30
0
 40
3.000000119209289
 41
37.3333348168274
 71
    1
 72
    5
  1
\fTahoma|b0|i0;\W1.;2
  7
STANDARD
210
0
220
0
230
1
 50
0
 73
    1
 44
1
  0
MTEXT
  5
F1
100
AcDbEntity
  8
Obramowanie (ISO)
  6
ByLayer
 62
  256
370
   -1
100
AcDbMText
 10
314.0903926984759
 20
290.4632093548774
 30
0
 40
3.000000119209289
 41
37.3333348168274
 71
    1
 72
    5
  1
\fTahoma|b0|i0;\W1.;2
  7
STANDARD
210
0
220
0
230
1
 50
0
 73
    1
 44
1
  0
MTEXT
  5
F2
100
AcDbEntity
  8
Obramowanie (ISO)
  6
ByLayer
 62
  256
370
   -1
100
AcDbMText
 10
384.3231933036961
 20
9.609724497795105
 30
0
 40
3.000000119209289
 41
36.66666812366979
 71
    1
 72
    5
  1
\fTahoma|b0|i0;\W1.;1
  7
STANDARD
210
0
220
0
230
1
 50
0
 73
    1
 44
1
  0
MTEXT
  5
F3
100
AcDbEntity
  8
Obramowanie (ISO)
  6
ByLayer
 62
  256
370
   -1
100
AcDbMText
 10
384.3231933036961
 20
290.4097246170044
 30
0
 40
3.000000119209289
 41
36.66666812366979
 71
    1
 72
    5
  1
\fTahoma|b0|i0;\W1.;1
  7
STANDARD
210
0
220
0
230
1
 50
0
 73
    1
 44
1
  0
ENDBLK
  5
6C
330
6A
100
AcDbEntity
  8
0
100
AcDbBlockEnd
  0
BLOCK
  5
6E
330
6D
100
AcDbEntity
  8
0
100
AcDbBlockBegin
  2
*I2
 70
    0
 10
0
 20
0
  3
*I2
  1

  0
LINE
  5
F4
100
AcDbEntity
  8
Tytuł (ISO)
  6
ByLayer
 62
  256
370
   -1
100
AcDbLine
 10
265
 20
10.00000000000003
 11
410
 21
10.00000000000007
  0
LINE
  5
F5
100
AcDbEntity
  8
Obramowanie (ISO)
  6
ByLayer
 62
  256
370
   -1
100
AcDbLine
 10
410
 20
43.00000000000006
 11
265
 21
43.00000000000003
  0
LINE
  5
F6
100
AcDbEntity
  8
Obramowanie (ISO)
  6
ByLayer
 62
  256
370
   -1
100
AcDbLine
 10
265
 20
43.00000000000003
 11
265
 21
10.00000000000003
  0
LINE
  5
F7
100
AcDbEntity
  8
Tytuł (ISO)
  6
ByLayer
 62
  256
370
   -1
100
AcDbLine
 10
265
 20
10.00000000000004
 11
312.1953264267305
 21
10.00000000000005
  0
LINE
  5
F8
100
AcDbEntity
  8
Tytuł (ISO)
  6
ByLayer
 62
  256
370
   -1
100
AcDbLine
 10
390
 20
43.00000000000006
 11
390
 21
10.00000000000005
  0
LINE
  5
F9
100
AcDbEntity
  8
Tytuł (ISO)
  6
ByLayer
 62
  256
370
   -1
100
AcDbLine
 10
265
 20
33.50000000000006
 11
270
 21
33.50000000000007
  0
LINE
  5
FA
100
AcDbEntity
  8
Tytuł (ISO)
  6
ByLayer
 62
  256
370
   -1
100
AcDbLine
 10
410
 20
21.28188719246003
 11
410
 21
43.00000000000006
  0
LINE
  5
FB
100
AcDbEntity
  8
Tytuł (ISO)
  6
ByLayer
 62
  256
370
   -1
100
AcDbLine
 10
390
 20
19.50000000000006
 11
410
 21
19.50000000000006
  0
LINE
  5
FC
100
AcDbEntity
  8
Tytuł (ISO)
  6
ByLayer
 62
  256
370
   -1
100
AcDbLine
 10
270
 20
33.50000000000007
 11
390
 21
33.50000000000007
  0
LINE
  5
FD
100
AcDbEntity
  8
Tytuł (ISO)
  6
ByLayer
 62
  256
370
   -1
100
AcDbLine
 10
390
 20
33.50000000000007
 11
410
 21
33.50000000000007
  0
LINE
  5
FE
100
AcDbEntity
  8
Tytuł (ISO)
  6
ByLayer
 62
  256
370
   -1
100
AcDbLine
 10
327
 20
19.50000000000006
 11
384.6446399610247
 21
19.50000000000007
  0
LINE
  5
FF
100
AcDbEntity
  8
Tytuł (ISO)
  6
ByLayer
 62
  256
370
   -1
100
AcDbLine
 10
384.6446399610247
 20
19.50000000000007
 11
390
 21
19.50000000000006
  0
LINE
  5
100
100
AcDbEntity
  8
Tytuł (ISO)
  6
ByLayer
 62
  256
370
   -1
100
AcDbLine
 10
390
 20
33.50000000000007
 11
390
 21
43.00000000000006
  0
LINE
  5
101
100
AcDbEntity
  8
Tytuł (ISO)
  6
ByLayer
 62
  256
370
   -1
100
AcDbLine
 10
327
 20
19.50000000000006
 11
265
 21
19.50000000000001
  0
LINE
  5
102
100
AcDbEntity
  8
Tytuł (ISO)
  6
ByLayer
 62
  256
370
   -1
100
AcDbLine
 10
290
 20
19.5
 11
290
 21
10
  0
LINE
  5
103
100
AcDbEntity
  8
Tytuł (ISO)
  6
ByLayer
 62
  256
370
   -1
100
AcDbLine
 10
325
 20
19.50000000000003
 11
325
 21
10.00000000000005
  0
LINE
  5
104
100
AcDbEntity
  8
Tytuł (ISO)
  6
ByLayer
 62
  256
370
   -1
100
AcDbLine
 10
390
 20
26.50000000000009
 11
410
 21
26.50000000000009
  0
LINE
  5
105
100
AcDbEntity
  8
Tytuł (ISO)
  6
ByLayer
 62
  256
370
   -1
100
AcDbLine
 10
325
 20
33.50000000000007
 11
325
 21
43.00000000000004
  0
LINE
  5
106
100
AcDbEntity
  8
Tytuł (ISO)
  6
ByLayer
 62
  256
370
   -1
100
AcDbLine
 10
325
 20
38.25000000000007
 11
390
 21
38.25000000000007
  0
LINE
  5
107
100
AcDbEntity
  8
Tytuł (ISO)
  6
ByLayer
 62
  256
370
   -1
100
AcDbLine
 10
357.5
 20
38.25000000000007
 11
357.5
 21
43.00000000000006
  0
LINE
  5
108
100
AcDbEntity
  8
Tytuł (ISO)
  6
ByLayer
 62
  256
370
   -1
100
AcDbLine
 10
357.5
 20
38.25000000000007
 11
357.5
 21
33.50000000000007
  0
LINE
  5
109
100
AcDbEntity
  8
Tytuł (ISO)
  6
ByLayer
 62
  256
370
   -1
100
AcDbLine
 10
330
 20
43.00000000000006
 11
330
 21
33.50000000000007
  0
LINE
  5
10A
100
AcDbEntity
  8
Tytuł (ISO)
  6
ByLayer
 62
  256
370
   -1
100
AcDbLine
 10
362.5
 20
43.00000000000003
 11
362.5
 21
33.50000000000007
  0
LINE
  5
10B
100
AcDbEntity
  8
Tytuł (ISO)
  6
ByLayer
 62
  256
370
   -1
100
AcDbLine
 10
355
 20
43.00000000000006
 11
355
 21
33.50000000000007
  0
LINE
  5
10C
100
AcDbEntity
  8
Tytuł (ISO)
  6
ByLayer
 62
  256
370
   -1
100
AcDbLine
 10
387.5
 20
43.00000000000006
 11
387.5
 21
33.50000000000007
  0
LINE
  5
10D
100
AcDbEntity
  8
Tytuł (ISO)
  6
ByLayer
 62
  256
370
   -1
100
AcDbLine
 10
285
 20
43.00000000000003
 11
285
 21
33.50000000000007
  0
LINE
  5
10E
100
AcDbEntity
  8
Tytuł (ISO)
  6
ByLayer
 62
  256
370
   -1
100
AcDbLine
 10
357.5
 20
19.50000000000006
 11
357.5
 21
10.00000000000004
  0
LINE
  5
10F
100
AcDbEntity
  8
Tytuł (ISO)
  6
ByLayer
 62
  256
370
   -1
100
AcDbLine
 10
325
 20
33.50000000000007
 11
325
 21
19.50000000000003
  0
LINE
  5
110
100
AcDbEntity
  8
Tytuł (ISO)
  6
ByLayer
 62
  256
370
   -1
100
AcDbLine
 10
357.5
 20
33.50000000000008
 11
357.5
 21
19.50000000000003
  0
LINE
  5
111
100
AcDbEntity
  8
Tytuł (ISO)
  6
ByLayer
 62
  256
370
   -1
100
AcDbLine
 10
307
 20
43.00000000000004
 11
307
 21
33.50000000000007
  0
LINE
  5
112
100
AcDbEntity
  8
Tytuł (ISO)
  6
ByLayer
 62
  256
370
   -1
100
AcDbLine
 10
401
 20
33.50000000000007
 11
401
 21
26.50000000000009
  0
MTEXT
  5
113
100
AcDbEntity
  8
Tytuł (ISO)
  6
ByLayer
 62
  256
370
   -1
100
AcDbMText
 10
401.6000002574907
 20
33.00000000000004
 30
0
 40
1.000000014901161
 41
21.38888899560634
 71
    1
 72
    5
  1
\fTahoma|b0|i0;\W1.;Format / Size
  7
STANDARD
210
0
220
0
230
1
 50
0
 73
    1
 44
1
  0
MTEXT
  5
114
100
AcDbEntity
  8
Tytuł (ISO)
  6
ByLayer
 62
  256
370
   -1
100
AcDbMText
 10
403.5147942219259
 20
30.30267417291185
 30
0
 40
2.5
 41
33.61111111111185
 71
    1
 72
    5
  1
\fTahoma|b0|i0;\W1.;A3
  7
STANDARD
210
0
220
0
230
1
 50
0
 73
    1
 44
1
  0
MTEXT
  5
115
100
AcDbEntity
  8
Tytuł (ISO)
  6
ByLayer
 62
  256
370
   -1
100
AcDbMText
 10
310.2451842209309
 20
36.59403146803388
 30
0
 40
1.700000017881393
 41
33.1972222110029
 71
    1
 72
    5
  1
\fTahoma|b0|i0;\W1.;S. Źródelny
  7
STANDARD
210
0
220
0
230
1
 50
0
 73
    1
 44
1
  0
MTEXT
  5
116
100
AcDbEntity
  8
Tytuł (ISO)
  6
ByLayer
 62
  256
370
   -1
100
AcDbMText
 10
309.2740950236116
 20
39.2149637788535
 30
0
 40
2.000000029802322
 41
37.3333338896438
 71
    1
 72
    5
  1
\fTahoma|b0|i0;\W1.;07.08.2024
  7
STANDARD
210
0
220
0
230
1
 50
0
 73
    1
 44
1
  0
MTEXT
  5
117
100
AcDbEntity
  8
Tytuł (ISO)
  6
ByLayer
 62
  256
370
   -1
100
AcDbMText
 10
307.6100002810047
 20
40.68887904286387
 30
0
 40
1.099999994039535
 41
29.85277761601785
 71
    1
 72
    5
  1
\fTahoma|b0|i0;\W1.;Modification date / by
  7
STANDARD
210
0
220
0
230
1
 50
0
 73
    1
 44
1
  0
MTEXT
  5
118
100
AcDbEntity
  8
Tytuł (ISO)
  6
ByLayer
 62
  256
370
   -1
100
AcDbMText
 10
307.6100002810047
 20
42.50000000000002
 30
0
 40
1.099999994039535
 41
31.93055538253709
 71
    1
 72
    5
  1
\fTahoma|b0|i0;\W1.;Data modyfikacji / przez
  7
STANDARD
210
0
220
0
230
1
 50
0
 73
    1
 44
1
  0
MTEXT
  5
119
100
AcDbEntity
  8
Tytuł (ISO)
  6
ByLayer
 62
  256
370
   -1
100
AcDbMText
 10
398.5930324791362
 20
23.81874470232668
 30
0
 40
3.000000119209289
 41
38.00000150998503
 71
    1
 72
    5
  1
\fTahoma|b0|i0;\W1.;A
  7
STANDARD
210
0
220
0
230
1
 50
0
 73
    1
 44
1
  0
MTEXT
  5
11A
100
AcDbEntity
  8
Tytuł (ISO)
  6
ByLayer
 62
  256
370
   -1
100
AcDbMText
 10
369.8782422982124
 20
14.75000000000007
 30
0
 40
2.5
 41
38.33333333333391
 71
    1
 72
    5
  1
\fTahoma|b0|i0;\W1.;BRAK
  7
STANDARD
210
0
220
0
230
1
 50
0
 73
    1
 44
1
  0
MTEXT
  5
11B
100
AcDbEntity
  8
Tytuł (ISO)
  6
ByLayer
 62
  256
370
   -1
100
AcDbMText
 10
366.9039833558075
 20
26.76893799984829
 30
0
 40
2.485507130622863
 41
44.39391902751478
 71
    1
 72
    5
  1
\fTahoma|b0|i0;\W1.;AW 5754
  7
STANDARD
210
0
220
0
230
1
 50
0
 73
    1
 44
1
  0
MTEXT
  5
11C
100
AcDbEntity
  8
Tytuł (ISO)
  6
ByLayer
 62
  256
370
   -1
100
AcDbMText
 10
358.640000358997
 20
33.00000000000009
 30
0
 40
1.400000005960464
 41
34.92222237090328
 71
    1
 72
    5
  1
\fTahoma|b0|i0;\W1.;Materiał / Material
  7
STANDARD
210
0
220
0
230
1
 50
0
 73
    1
 44
1
  0
MTEXT
  5
11D
100
AcDbEntity
  8
Tytuł (ISO)
  6
ByLayer
 62
  256
370
   -1
100
AcDbMText
 10
333.1847834501915
 20
26.79915084689857
 30
0
 40
2.485507130622863
 41
45.29146326912859
 71
    1
 72
    5
  1
\fTahoma|b0|i0;\W1.;C-1068951
  7
STANDARD
210
0
220
0
230
1
 50
0
 73
    1
 44
1
  0
MTEXT
  5
11E
100
AcDbEntity
  8
Tytuł (ISO)
  6
ByLayer
 62
  256
370
   -1
100
AcDbMText
 10
270.0541492769637
 20
38.03160467743882
 30
0
 40
3.000000119209289
 41
46.16666850116587
 71
    1
 72
    5
  1
\fTahoma|b0|i0;\W1.;1 : 12
  7
STANDARD
210
0
220
0
230
1
 50
0
 73
    1
 44
1
  0
MTEXT
  5
11F
100
AcDbEntity
  8
Tytuł (ISO)
  6
ByLayer
 62
  256
370
   -1
100
AcDbMText
 10
266.5374385049901
 20
27.49230164289475
 30
0
 40
3.000000119209289
 41
101.083340435749
 71
    1
 72
    5
  1
\fTahoma|b0|i0;\W1.;Banda osłony stołu obrotowego
  7
STANDARD
210
0
220
0
230
1
 50
0
 73
    1
 44
1
  0
MTEXT
  5
120
100
AcDbEntity
  8
Tytuł (ISO)
  6
ByLayer
 62
  256
370
   -1
100
AcDbMText
 10
287.8286201266777
 20
37.80267417291188
 30
0
 40
2.5
 41
46.11111111111169
 71
    1
 72
    5
  1
\fTahoma|b0|i0;\W1.;19.02.2024
  7
STANDARD
210
0
220
0
230
1
 50
0
 73
    1
 44
1
  0
MTEXT
  5
121
100
AcDbEntity
  8
Tytuł (ISO)
  6
ByLayer
 62
  256
370
   -1
100
AcDbMText
 10
330.7000005149815
 20
37.06564027257271
 30
0
 40
2.000000029802322
 41
34.83333385239099
 71
    1
 72
    5
  1
\fTahoma|b0|i0;\W1.;K. Pełka
  7
STANDARD
210
0
220
0
230
1
 50
0
 73
    1
 44
1
  0
MTEXT
  5
122
100
AcDbEntity
  8
Tytuł (ISO)
  6
ByLayer
 62
  256
370
   -1
100
AcDbMText
 10
330.7000005149815
 20
41.81564027257269
 30
0
 40
2.000000029802322
 41
34.83333385239099
 71
    1
 72
    5
  1
\fTahoma|b0|i0;\W1.;K. Pełka
  7
STANDARD
210
0
220
0
230
1
 50
0
 73
    1
 44
1
  0
MTEXT
  5
123
100
AcDbEntity
  8
Tytuł (ISO)
  6
ByLayer
 62
  256
370
   -1
100
AcDbMText
 10
392.2855721422493
 20
30.56804481521254
 30
0
 40
2.485507130622863
 41
37.42069068882256
 71
    1
 72
    5
  1
\fTahoma|b0|i0;\W1.;1 / 1
  7
STANDARD
210
0
220
0
230
1
 50
0
 73
    1
 44
1
  0
MTEXT
  5
124
100
AcDbEntity
  8
Tytuł (ISO)
  6
ByLayer
 62
  256
370
   -1
100
AcDbMText
 10
394.5416155251709
 20
37.98748908936986
 30
0
 40
2.992753684520721
 41
47.63466281195564
 71
    1
 72
    5
  1
\fTahoma|b0|i0;\W1.;2,0 kg
  7
STANDARD
210
0
220
0
230
1
 50
0
 73
    1
 44
1
  0
MTEXT
  5
125
100
AcDbEntity
  8
Tytuł (ISO)
  6
ByLayer
 62
  256
370
   -1
100
AcDbMText
 10
285.6100002810046
 20
40.59973806142809
 30
0
 40
1.099999994039535
 41
30.98333316544754
 71
    1
 72
    5
  1
\fTahoma|b0|i0;\W1.;Documentation end date
  7
STANDARD
210
0
220
0
230
1
 50
0
 73
    1
 44
1
  0
MTEXT
  5
126
100
AcDbEntity
  8
Tytuł (ISO)
  6
ByLayer
 62
  256
370
   -1
100
AcDbMText
 10
285.6100002810046
 20
42.50000000000002
 30
0
 40
1.099999994039535
 41
35.38333314160583
 71
    1
 72
    5
  1
\fTahoma|b0|i0;\W1.;Data ukończenia dokumentacji
  7
STANDARD
210
0
220
0
230
1
 50
0
 73
    1
 44
1
  0
MTEXT
  5
127
100
AcDbEntity
  8
Tytuł (ISO)
  6
ByLayer
 62
  256
370
   -1
100
AcDbMText
 10
360.2073534950614
 20
34.3647506261541
 30
0
 40
1.000000014901161
 41
15.22222244905124
 71
    1
 72
    5
  1
\fTahoma|b0|i0;\W1.;Appr.
  7
STANDARD
210
0
220
0
230
1
 50
90
 73
    1
 44
1
  0
MTEXT
  5
128
100
AcDbEntity
  8
Tytuł (ISO)
  6
ByLayer
 62
  256
370
   -1
100
AcDbMText
 10
358.5163093730807
 20
33.8682010095115
 30
0
 40
1.000000014901161
 41
16.86111136236152
 71
    1
 72
    5
  1
\fTahoma|b0|i0;\W1.;Zatw. /
  7
STANDARD
210
0
220
0
230
1
 50
90
 73
    1
 44
1
  0
MTEXT
  5
129
100
AcDbEntity
  8
Tytuł (ISO)
  6
ByLayer
 62
  256
370
   -1
100
AcDbMText
 10
360.2920373872621
 20
38.97633397011706
 30
0
 40
1.000000014901161
 41
15.44444467458488
 71
    1
 72
    5
  1
\fTahoma|b0|i0;\W1.;Check
  7
STANDARD
210
0
220
0
230
1
 50
90
 73
    1
 44
1
  0
MTEXT
  5
12A
100
AcDbEntity
  8
Tytuł (ISO)
  6
ByLayer
 62
  256
370
   -1
100
AcDbMText
 10
358.6455638305051
 20
39.10427943891465
 30
0
 40
1.000000014901161
 41
15.86111113545816
 71
    1
 72
    5
  1
\fTahoma|b0|i0;\W1.;Spr. /
  7
STANDARD
210
0
220
0
230
1
 50
90
 73
    1
 44
1
  0
MTEXT
  5
12B
100
AcDbEntity
  8
Tytuł (ISO)
  6
ByLayer
 62
  256
370
   -1
100
AcDbMText
 10
327.8366079524858
 20
39.38180735230323
 30
0
 40
1.000000014901161
 41
14.44444517397094
 71
    1
 72
    5
  1
\fTahoma|b0|i0;\W1.;Des.
  7
STANDARD
210
0
220
0
230
1
 50
90
 73
    1
 44
1
  0
MTEXT
  5
12C
100
AcDbEntity
  8
Tytuł (ISO)
  6
ByLayer
 62
  256
370
   -1
100
AcDbMText
 10
326.1455638305051
 20
38.84493535280105
 30
0
 40
1.000000014901161
 41
16.41666691129434
 71
    1
 72
    5
  1
\fTahoma|b0|i0;\W1.;Proj. /
  7
STANDARD
210
0
220
0
230
1
 50
90
 73
    1
 44
1
  0
MTEXT
  5
12D
100
AcDbEntity
  8
Tytuł (ISO)
  6
ByLayer
 62
  256
370
   -1
100
AcDbMText
 10
327.8349872073158
 20
34.3062400472152
 30
0
 40
1.000000014901161
 41
15.33333356181814
 71
    1
 72
    5
  1
\fTahoma|b0|i0;\W1.;Draw.
  7
STANDARD
210
0
220
0
230
1
 50
90
 73
    1
 44
1
  0
MTEXT
  5
12E
100
AcDbEntity
  8
Tytuł (ISO)
  6
ByLayer
 62
  256
370
   -1
100
AcDbMText
 10
326.1439430853352
 20
34.33824982762215
 30
0
 40
1.000000014901161
 41
15.97222297451431
 71
    1
 72
    5
  1
\fTahoma|b0|i0;\W1.;Rys. /
  7
STANDARD
210
0
220
0
230
1
 50
90
 73
    1
 44
1
  0
MTEXT
  5
12F
100
AcDbEntity
  8
Tytuł (ISO)
  6
ByLayer
 62
  256
370
   -1
100
AcDbMText
 10
390.4935999835206
 20
33.00000000000004
 30
0
 40
1.000000014901161
 41
22.61111175032825
 71
    1
 72
    5
  1
\fTahoma|b0|i0;\W1.;Arkusz / Sheet
  7
STANDARD
210
0
220
0
230
1
 50
0
 73
    1
 44
1
  0
MTEXT
  5
130
100
AcDbEntity
  8
Tytuł (ISO)
  6
ByLayer
 62
  256
370
   -1
100
AcDbMText
 10
390.3500002574908
 20
26.00000000000006
 30
0
 40
1.000000014901161
 41
29.80555651398056
 71
    1
 72
    5
  1
\fTahoma|b0|i0;\W1.;Rewizja modelu / Revision
  7
STANDARD
210
0
220
0
230
1
 50
0
 73
    1
 44
1
  0
MTEXT
  5
131
100
AcDbEntity
  8
Tytuł (ISO)
  6
ByLayer
 62
  256
370
   -1
100
AcDbMText
 10
390.6500003899615
 20
42.50000000000004
 30
0
 40
1.500000059604644
 41
30.91667020947765
 71
    1
 72
    5
  1
\fTahoma|b0|i0;\W1.;Masa / Mass
  7
STANDARD
210
0
220
0
230
1
 50
0
 73
    1
 44
1
  0
MTEXT
  5
132
100
AcDbEntity
  8
Tytuł (ISO)
  6
ByLayer
 62
  256
370
   -1
100
AcDbMText
 10
358.140000358997
 20
19.00000000000003
 30
0
 40
1.400000005960464
 41
32.58888974763785
 71
    1
 72
    5
  1
\fTahoma|b0|i0;\W1.;Powłoka / Finish
  7
STANDARD
210
0
220
0
230
1
 50
0
 73
    1
 44
1
  0
MTEXT
  5
133
100
AcDbEntity
  8
Tytuł (ISO)
  6
ByLayer
 62
  256
370
   -1
100
AcDbMText
 10
266.1500003899615
 20
33.00000000000004
 30
0
 40
1.500000059604644
 41
50.33333610483217
 71
    1
 72
    5
  1
\fTahoma|b0|i0;\W1.;Nazwa rysunku / Drawing name
  7
STANDARD
210
0
220
0
230
1
 50
0
 73
    1
 44
1
  0
MTEXT
  5
134
100
AcDbEntity
  8
Tytuł (ISO)
  6
ByLayer
 62
  256
370
   -1
100
AcDbMText
 10
265.5768001996603
 20
42.50000000000002
 30
0
 40
1.500000059604644
 41
31.75000062562572
 71
    1
 72
    5
  1
\fTahoma|b0|i0;\W1.;Skala / Scale
  7
STANDARD
210
0
220
0
230
1
 50
0
 73
    1
 44
1
  0
MTEXT
  5
135
100
AcDbEntity
  8
Tytuł (ISO)
  6
ByLayer
 62
  256
370
   -1
100
AcDbMText
 10
326.1500003899615
 20
33.00000000000003
 30
0
 40
1.500000059604644
 41
43.83333584654503
 71
    1
 72
    5
  1
\fTahoma|b0|i0;\W1.;Nr rysunku / Drawing No
  7
STANDARD
210
0
220
0
230
1
 50
0
 73
    1
 44
1
  0
MTEXT
  5
136
100
AcDbEntity
  8
Tytuł (ISO)
  6
ByLayer
 62
  256
370
   -1
100
AcDbMText
 10
325.640000358997
 20
19.00000000000004
 30
0
 40
1.400000005960464
 41
37.41111127038835
 71
    1
 72
    5
  1
\fTahoma|b0|i0;\W1.;Producent / Producer
  7
STANDARD
210
0
220
0
230
1
 50
0
 73
    1
 44
1
  0
MTEXT
  5
137
100
AcDbEntity
  8
Tytuł (ISO)
  6
ByLayer
 62
  256
370
   -1
100
AcDbMText
 10
290.640000358997
 20
19.00000000000004
 30
0
 40
1.400000005960464
 41
46.04444464047801
 71
    1
 72
    5
  1
\fTahoma|b0|i0;\W1.;Nr producenta / Reference No
  7
STANDARD
210
0
220
0
230
1
 50
0
 73
    1
 44
1
  0
MTEXT
  5
138
100
AcDbEntity
  8
Tytuł (ISO)
  6
ByLayer
 62
  256
370
   -1
100
AcDbMText
 10
265.640000358997
 20
19.00000000000004
 30
0
 40
1.400000005960464
 41
42.93333321931854
 71
    1
 72
    5
  1
\fTahoma|b0|i0;\W1.;Nr magazynowy / Stock No
  7
STANDARD
210
0
220
0
230
1
 50
0
 73
    1
 44
1
  0
ENDBLK
  5
6F
330
6D
100
AcDbEntity
  8
0
100
AcDbBlockEnd
  0
BLOCK
  5
71
330
70
100
AcDbEntity
  8
0
100
AcDbBlockBegin
  2
*I3
 70
    0
 10
0
 20
0
  3
*I3
  1

  0
LINE
  5
139
100
AcDbEntity
  8
Symbol (ISO)
  6
ByLayer
 62
  256
370
   -1
100
AcDbLine
 10
131
 20
273.9594192677736
 11
131
 21
269.273422639668
  0
LINE
  5
13A
100
AcDbEntity
  8
Symbol (ISO)
  6
ByLayer
 62
  256
370
   -1
100
AcDbLine
 10
103
 20
273.9594192677736
 11
103
 21
269.273422639668
  0
LINE
  5
13B
100
AcDbEntity
  8
Symbol (ISO)
  6
ByLayer
 62
  256
370
   -1
100
AcDbLine
 10
86
 20
273.9594192677736
 11
86
 21
269.273422639668
  0
MTEXT
  5
13C
100
AcDbEntity
  8
Symbol (ISO)
  6
ByLayer
 62
  256
370
   -1
100
AcDbMText
 10
103.89
 20
272.7164209477603
 30
0
 40
2.199999988079071
 41
25.66666652758967
 71
    1
 72
    5
  1
\fTahoma|b0|i0;\W1.; 
  7
STANDARD
210
0
220
0
230
1
 50
0
 73
    1
 44
1
  0
LINE
  5
13D
100
AcDbEntity
  8
Symbol (ISO)
  6
ByLayer
 62
  256
370
   -1
100
AcDbLine
 10
26
 20
273.9594192677736
 11
26
 21
269.273422639668
  0
LINE
  5
13E
100
AcDbEntity
  8
Symbol (ISO)
  6
ByLayer
 62
  256
370
   -1
100
AcDbLine
 10
10
 20
273.9594192677736
 11
10
 21
269.273422639668
  0
MTEXT
  5
13F
100
AcDbEntity
  8
Symbol (ISO)
  6
ByLayer
 62
  256
370
   -1
100
AcDbMText
 10
94.02755268663169
 20
272.7164209477603
 30
0
 40
2.199999988079071
 41
25.66666652758967
 71
    1
 72
    5
  1
\fTahoma|b0|i0;\W1.; 
  7
STANDARD
210
0
220
0
230
1
 50
0
 73
    1
 44
1
  0
LINE
  5
140
100
AcDbEntity
  8
Symbol (ISO)
  6
ByLayer
 62
  256
370
   -1
100
AcDbLine
 10
10
 20
269.273422639668
 11
131
 21
269.273422639668
  0
MTEXT
  5
141
100
AcDbEntity
  8
Symbol (ISO)
  6
ByLayer
 62
  256
370
   -1
100
AcDbMText
 10
26.89
 20
272.7164209477603
 30
0
 40
2.199999988079071
 41
25.66666652758967
 71
    1
 72
    5
  1
\fTahoma|b0|i0;\W1.; 
  7
STANDARD
210
0
220
0
230
1
 50
0
 73
    1
 44
1
  0
LINE
  5
142
100
AcDbEntity
  8
Symbol (ISO)
  6
ByLayer
 62
  256
370
   -1
100
AcDbLine
 10
10
 20
273.9594192677736
 11
131
 21
273.9594192677736
  0
MTEXT
  5
143
100
AcDbEntity
  8
Symbol (ISO)
  6
ByLayer
 62
  256
370
   -1
100
AcDbMText
 10
17.06420200736922
 20
272.7164209477603
 30
0
 40
2.199999988079071
 41
27.86666651566874
 71
    1
 72
    5
  1
\fTahoma|b0|i0;\W1.;A
  7
STANDARD
210
0
220
0
230
1
 50
0
 73
    1
 44
1
  0
LINE
  5
144
100
AcDbEntity
  8
Symbol (ISO)
  6
ByLayer
 62
  256
370
   -1
100
AcDbLine
 10
131
 20
282.3140110012889
 11
131
 21
273.9594192677736
  0
MTEXT
  5
145
100
AcDbEntity
  8
Symbol (ISO)
  6
ByLayer
 62
  256
370
   -1
100
AcDbMText
 10
112.3198513910607
 20
277.402417575866
 30
0
 40
2.199999988079071
 41
34.71111092302585
 71
    1
 72
    5
  1
\fTahoma|b1|i0;\W1.;PRZEZ
  7
STANDARD
210
0
220
0
230
1
 50
0
 73
    1
 44
1
  0
MTEXT
  5
146
100
AcDbEntity
  8
Symbol (ISO)
  6
ByLayer
 62
  256
370
   -1
100
AcDbMText
 10
104.5129937470926
 20
281.0710126812756
 30
0
 40
2.199999988079071
 41
47.9111108515004
 71
    1
 72
    5
  1
\fTahoma|b1|i0;\W1.;ZATWIERDZONE
  7
STANDARD
210
0
220
0
230
1
 50
0
 73
    1
 44
1
  0
LINE
  5
147
100
AcDbEntity
  8
Symbol (ISO)
  6
ByLayer
 62
  256
370
   -1
100
AcDbLine
 10
103
 20
282.3140110012889
 11
103
 21
273.9594192677736
  0
MTEXT
  5
148
100
AcDbEntity
  8
Symbol (ISO)
  6
ByLayer
 62
  256
370
   -1
100
AcDbMText
 10
90.57309257243438
 20
279.2367151285708
 30
0
 40
2.199999988079071
 41
33.4888887074265
 71
    1
 72
    5
  1
\fTahoma|b1|i0;\W1.;DATA
  7
STANDARD
210
0
220
0
230
1
 50
0
 73
    1
 44
1
  0
MTEXT
  5
149
100
AcDbEntity
  8
Symbol (ISO)
  6
ByLayer
 62
  256
370
   -1
100
AcDbMText
 10
52.25034312207284
 20
279.2830683849007
 30
0
 40
2.199999988079071
 41
31.77777713918236
 71
    1
 72
    5
  1
\fTahoma|b1|i0;\W1.;OPIS
  7
STANDARD
210
0
220
0
230
1
 50
0
 73
    1
 44
1
  0
MTEXT
  5
14A
100
AcDbEntity
  8
Symbol (ISO)
  6
ByLayer
 62
  256
370
   -1
100
AcDbMText
 10
11.16798751805585
 20
279.2536519187688
 30
0
 40
2.199999988079071
 41
37.88888868358464
 71
    1
 72
    5
  1
\fTahoma|b1|i0;\W1.;REWIZJA
  7
STANDARD
210
0
220
0
230
1
 50
0
 73
    1
 44
1
  0
MTEXT
  5
14B
100
AcDbEntity
  8
Symbol (ISO)
  6
ByLayer
 62
  256
370
   -1
100
AcDbMText
 10
58.99991917610167
 20
285.7570093093812
 30
0
 40
2.199999988079071
 41
47.6055552976004
 71
    1
 72
    5
  1
\fTahoma|b1|i0;\W1.;TABELA ZMIAN
  7
STANDARD
210
0
220
0
230
1
 50
0
 73
    1
 44
1
  0
LINE
  5
14C
100
AcDbEntity
  8
Symbol (ISO)
  6
ByLayer
 62
  256
370
   -1
100
AcDbLine
 10
86
 20
282.3140110012889
 11
86
 21
273.9594192677736
  0
LINE
  5
14D
100
AcDbEntity
  8
Symbol (ISO)
  6
ByLayer
 62
  256
370
   -1
100
AcDbLine
 10
26
 20
282.3140110012889
 11
26
 21
273.9594192677736
  0
LINE
  5
14E
100
AcDbEntity
  8
Symbol (ISO)
  6
ByLayer
 62
  256
370
   -1
100
AcDbLine
 10
10
 20
282.3140110012889
 11
10
 21
273.9594192677736
  0
LINE
  5
14F
100
AcDbEntity
  8
Symbol (ISO)
  6
ByLayer
 62
  256
370
   -1
100
AcDbLine
 10
10
 20
282.3140110012889
 11
131
 21
282.3140110012889
  0
LINE
  5
150
100
AcDbEntity
  8
Symbol (ISO)
  6
ByLayer
 62
  256
370
   -1
100
AcDbLine
 10
131
 20
287.0000076293946
 11
131
 21
282.3140110012889
  0
LINE
  5
151
100
AcDbEntity
  8
Symbol (ISO)
  6
ByLayer
 62
  256
370
   -1
100
AcDbLine
 10
10
 20
287.0000076293946
 11
10
 21
282.3140110012889
  0
LINE
  5
152
100
AcDbEntity
  8
Symbol (ISO)
  6
ByLayer
 62
  256
370
   -1
100
AcDbLine
 10
10
 20
287.0000076293946
 11
131
 21
287.0000076293946
  0
ENDBLK
  5
72
330
70
100
AcDbEntity
  8
0
100
AcDbBlockEnd
  0
BLOCK
  5
74
330
73
100
AcDbEntity
  8
0
100
AcDbBlockBegin
  2
*I4
 70
    0
 10
0
 20
0
  3
*I4
  1

  0
MTEXT
  5
153
100
AcDbEntity
  8
Symbol (ISO)
  6
ByLayer
 62
  256
370
   -1
100
AcDbMText
 10
265.3327148745066
 20
47.64129176493201
 30
0
 40
3.000000119209289
 41
91.91667186196946
 71
    1
 72
    5
  1
\fTahoma|b0|i0;\W1.;2. Ostre krawędzie zatępić;
  7
STANDARD
210
0
220
0
230
1
 50
0
 73
    1
 44
1
  0
MTEXT
  5
154
100
AcDbEntity
  8
Symbol (ISO)
  6
ByLayer
 62
  256
370
   -1
100
AcDbMText
 10
265.5655154797269
 20
52.58071288223776
 30
0
 40
3.000000119209289
 41
113.5000045100864
 71
    1
 72
    5
  1
\fTahoma|b0|i0;\W1.;1. Tolerancje ogólne PN-EN 22768-fH;
  7
STANDARD
210
0
220
0
230
1
 50
0
 73
    1
 44
1
  0
ENDBLK
  5
75
330
73
100
AcDbEntity
  8
0
100
AcDbBlockEnd
  0
BLOCK
  5
77
330
76
100
AcDbEntity
  8
0
100
AcDbBlockBegin
  2
*I5
 70
    0
 10
0
 20
0
  3
*I5
  1

  0
MTEXT
  5
155
100
AcDbEntity
  8
Symbol (ISO)
  6
ByLayer
 62
  256
370
   -1
100
AcDbMText
 10
15.38152844951834
 20
28.11894939576488
 30
0
 40
10
 41
255.166666666669
 71
    1
 72
    5
  1
\fEFN KK 3z9 Hr|b0|i0;\W1.;*C-1068951*
  7
STANDARD
210
0
220
0
230
1
 50
0
 73
    1
 44
1
  0
ENDBLK
  5
78
330
76
100
AcDbEntity
  8
0
100
AcDbBlockEnd
  0
BLOCK
  5
7A
330
79
100
AcDbEntity
  8
0
100
AcDbBlockBegin
  2
*I6
 70
    0
 10
0
 20
0
  3
*I6
  1

  0
INSERT
  5
156
100
AcDbEntity
  8
IDW_BlockReferenceLayer
  6
ByLayer
 62
    7
370
   -1
100
AcDbBlockReference
  2
C-1068951_Arkusz_WIDOK1
 10
0
 20
0
 30
0
 41
1
 42
1
 43
0
 50
0
 70
    1
 71
    1
 44
0
 45
0
  0
ENDBLK
  5
7B
330
79
100
AcDbEntity
  8
0
100
AcDbBlockEnd
  0
BLOCK
  5
7D
330
7C
100
AcDbEntity
  8
0
100
AcDbBlockBegin
  2
C-1068951_Arkusz_WIDOK1
 70
    0
 10
0
 20
0
  3
C-1068951_Arkusz_WIDOK1
  1

  0
ARC
  5
157
100
AcDbEntity
  8
Widoczne (ISO)
  6
ByLayer
 62
  256
370
   -1
100
AcDbCircle
 10
501.4999999999998
 20
-225.6740990682938
 40
999.9999999999995
100
AcDbArc
 50
90
 51
-146.8048746271396
  0
ARC
  5
158
100
AcDbEntity
  8
Widoczne (ISO)
  6
ByLayer
 62
  256
370
   -1
100
AcDbCircle
 10
501.4999999999998
 20
-225.6740990682938
 40
1003
100
AcDbArc
 50
90
 51
213.1956394948237
  0
LINE
  5
159
100
AcDbEntity
  8
Ukryte (ISO)
  6
ByLayer
 62
  256
370
   -1
100
AcDbLine
 10
384.4931609520328
 20
770.477696400651
 11
384.8431315573607
 21
767.498179564752
  0
LINE
  5
15A
100
AcDbEntity
  8
Ukryte (ISO)
  6
ByLayer
 62
  256
370
   -1
100
AcDbLine
 10
374.4215405866877
 20
766.2185690935079
 11
374.0403052084478
 21
769.1942470979934
  0
LINE
  5
15B
100
AcDbEntity
  8
Ukryte (ISO)
  6
ByLayer
 62
  256
370
   -1
100
AcDbLine
 10
146.9778334618343
 20
712.5812144967745
 11
148.038218805418
 21
709.7748675967792
  0
LINE
  5
15C
100
AcDbEntity
  8
Ukryte (ISO)
  6
ByLayer
 62
  256
370
   -1
100
AcDbLine
 10
138.2357594164101
 20
706.0120559824436
 11
137.1459666946593
 21
708.8071144475957
  0
LINE
  5
15D
100
AcDbEntity
  8
Widoczne (ISO)
  6
ByLayer
 62
  256
370
   -1
100
AcDbLine
 10
501.4999999999998
 20
777.3259009317059
 11
501.4999999999998
 21
774.325900931706
  0
LINE
  5
15E
100
AcDbEntity
  8
Widoczne (ISO)
  6
ByLayer
 62
  256
370
   -1
100
AcDbLine
 10
-336.170148387777
 20
-777.3240990682934
 11
-333.6646544245035
 21
-775.6740990682933
  0
SPLINE
  5
15F
100
AcDbEntity
  8
Widoczne (ISO)
  6
ByLayer
 62
  256
370
   -1
100
AcDbSpline
210
0
220
0
230
0
 70
    8
 71
    3
 72
   14
 73
   10
 74
    0
 42
1e-07
 43
1e-07
 40
0.4520262
 40
0.4520262
 40
0.4520262
 40
0.4520262
 40
0.5650324210000001
 40
0.5650324210000001
 40
0.6780386420000001
 40
0.6780386420000001
 40
0.791044658
 40
0.791044658
 40
0.9040506740000001
 40
0.9040506740000001
 40
0.9040506740000001
 40
0.9040506740000001
 10
-337.8164013794513
 20
-774.8161375022925
 30
0
 10
-337.6101651994269
 20
-775.131351775354
 30
0
 10
-337.3899865539569
 20
-775.4674484654136
 30
0
 10
-336.9846003148595
 20
-776.0855012182059
 30
0
 10
-336.7994028681169
 20
-776.36746392544
 30
0
 10
-336.5067989112562
 20
-776.8126260512831
 30
0
 10
-336.3798906213591
 20
-777.0054987962413
 30
0
 10
-336.2115602950619
 20
-777.2612319690273
 30
0
 10
-336.1701483877771
 20
-777.3240990682934
 30
0
 10
-336.1701483877771
 20
-777.3240990682934
 30
0
  0
SPLINE
  5
160
100
AcDbEntity
  8
Widoczne (ISO)
  6
ByLayer
 62
  256
370
   -1
100
AcDbSpline
210
0
220
0
230
0
 70
    8
 71
    3
 72
   14
 73
   10
 74
    0
 42
1e-07
 43
1e-07
 40
0.90405069
 40
0.90405069
 40
0.90405069
 40
0.90405069
 40
1.017056706
 40
1.017056706
 40
1.130062722
 40
1.130062722
 40
1.243068944
 40
1.243068944
 40
1.356075166
 40
1.356075166
 40
1.356075166
 40
1.356075166
 10
-333.6646544245035
 20
-775.6740990682933
 30
0
 10
-333.6646544245035
 20
-775.6740990682933
 30
0
 10
-333.7060663540126
 20
-775.6112319835888
 30
0
 10
-333.8743965057182
 20
-775.355498695701
 30
0
 10
-334.0013045684133
 20
-775.1626258010633
 30
0
 10
-334.2939073573549
 20
-774.7174629031135
 30
0
 10
-334.4791037807981
 20
-774.4354995181237
 30
0
 10
-334.8844866014198
 20
-773.8174445120605
 30
0
 10
-335.1046628212197
 20
-773.4813462266314
 30
0
 10
-335.3108961751023
 20
-773.166130099451
 30
0
  0
ENDBLK
  5
7E
330
7C
100
AcDbEntity
  8
0
100
AcDbBlockEnd
  0
BLOCK
  5
80
330
7F
100
AcDbEntity
  8
0
100
AcDbBlockBegin
  2
*I8
 70
    0
 10
0
 20
0
  3
*I8
  1

  0
INSERT
  5
161
100
AcDbEntity
  8
IDW_BlockReferenceLayer
  6
ByLayer
 62
    7
370
   -1
100
AcDbBlockReference
  2
C-1068951_Arkusz_WIDOK2
 10
0
 20
0
 30
0
 41
1
 42
1
 43
0
 50
0
 70
    1
 71
    1
 44
0
 45
0
  0
ENDBLK
  5
81
330
7F
100
AcDbEntity
  8
0
100
AcDbBlockEnd
  0
BLOCK
  5
83
330
82
100
AcDbEntity
  8
0
100
AcDbBlockBegin
  2
C-1068951_Arkusz_WIDOK2
 70
    0
 10
0
 20
0
  3
C-1068951_Arkusz_WIDOK2
  1

  0
SPLINE
  5
162
100
AcDbEntity
  8
Widoczne (ISO)
  6
ByLayer
 62
  256
370
   -1
100
AcDbSpline
210
0
220
0
230
0
 70
    8
 71
    3
 72
   14
 73
   10
 74
    0
 42
1e-07
 43
1e-07
 40
-3.141592654
 40
-3.141592654
 40
-3.141592654
 40
-3.141592654
 40
-2.075859935
 40
-2.075859935
 40
-2.075859935
 40
-1.050389978
 40
-1.050389978
 40
-1.050389978
 40
0
 40
0
 40
0
 40
0
 10
812.6679370959768
 20
189.6555916319823
 30
0
 10
813.4362510328021
 20
189.3072346829585
 30
0
 10
814.1881833470991
 20
189.4265777684436
 30
0
 10
814.5588514926854
 20
189.9549943036989
 30
0
 10
814.9155160116723
 20
190.4634475700925
 30
0
 10
814.909503397426
 20
191.3323121798982
 30
0
 10
814.5426247540131
 20
192.1653454289909
 30
0
 10
814.1668305656963
 20
193.0186222803534
 30
0
 10
813.4251900593993
 20
193.8029809724944
 30
0
 10
812.6679370959768
 20
194.1463228270847
 30
0
  0
SPLINE
  5
163
100
AcDbEntity
  8
Widoczne (ISO)
  6
ByLayer
 62
  256
370
   -1
100
AcDbSpline
210
0
220
0
230
0
 70
    8
 71
    3
 72
   14
 73
   10
 74
    0
 42
1e-07
 43
1e-07
 40
-3.141592654
 40
-3.141592654
 40
-3.141592654
 40
-3.141592654
 40
-2.075859935
 40
-2.075859935
 40
-2.075859935
 40
-1.050389978
 40
-1.050389978
 40
-1.050389978
 40
0
 40
0
 40
0
 40
0
 10
808.7278956405534
 20
195.9235788657131
 30
0
 10
807.9565744667734
 20
196.2697135428727
 30
0
 10
807.1995283555306
 20
196.1465914911007
 30
0
 10
806.8260073825697
 20
195.616066788747
 30
0
 10
806.4665978143645
 20
195.1055850005792
 30
0
 10
806.4726683821026
 20
194.2367632169345
 30
0
 10
806.84235874537
 20
193.405807757525
 30
0
 10
807.2210329813518
 20
192.554659188366
 30
0
 10
807.9676787336349
 20
191.7739992461054
 30
0
 10
808.7278956405534
 20
191.4328476706104
 30
0
  0
SPLINE
  5
164
100
AcDbEntity
  8
Widoczne (ISO)
  6
ByLayer
 62
  256
370
   -1
100
AcDbSpline
210
0
220
0
230
0
 70
    8
 71
    3
 72
   11
 73
    7
 74
    0
 42
1e-07
 43
1e-07
 40
0
 40
0
 40
0
 40
0
 40
1.067278229
 40
1.067278229
 40
1.067278229
 40
1.582744078
 40
1.582744078
 40
1.582744078
 40
1.582744078
 10
810.5689642325478
 20
192.8003839516125
 30
0
 10
809.7942071802952
 20
193.1480604983933
 30
0
 10
809.0340148356051
 20
193.950622651546
 30
0
 10
808.6597267082449
 20
194.8169797068074
 30
0
 10
808.4789559007839
 20
195.235406188924
 30
0
 10
808.3910502546881
 20
195.6614439336258
 30
0
 10
808.3955020646648
 20
196.0451120173044
 30
0
  0
ELLIPSE
  5
165
100
AcDbEntity
  8
Widoczne (ISO)
  6
ByLayer
 62
  256
370
   -1
100
AcDbEllipse
 10
195.0383649756981
 20
-264.4125793300887
 30
0
 11
-999.9999999999998
 21
1.705e-13
 31
0
 40
0.5773502691896258
 41
0.9050712162453651
 42
0.9100712058287375
  0
SPLINE
  5
166
100
AcDbEntity
  8
Widoczne (ISO)
  6
ByLayer
 62
  256
370
   -1
100
AcDbSpline
210
0
220
0
230
0
 70
    8
 71
    3
 72
    8
 73
    4
 74
    0
 42
1e-07
 43
1e-07
 40
2.999167657
 40
2.999167657
 40
2.999167657
 40
2.999167657
 40
3.141592654
 40
3.141592654
 40
3.141592654
 40
3.141592654
 10
814.8280603578673
 20
190.9025500859603
 30
0
 10
814.7265159513915
 20
190.9327283947659
 30
0
 10
814.623811663187
 20
190.9711019030033
 30
0
 10
814.5208258123373
 20
191.0177961448684
 30
0
  0
SPLINE
  5
167
100
AcDbEntity
  8
Widoczne (ISO)
  6
ByLayer
 62
  256
370
   -1
100
AcDbSpline
210
0
220
0
230
0
 70
    8
 71
    3
 72
   14
 73
   10
 74
    0
 42
1e-07
 43
1e-07
 40
-3.141592654
 40
-3.141592654
 40
-3.141592654
 40
-3.141592654
 40
-2.075859935
 40
-2.075859935
 40
-2.075859935
 40
-1.050389978
 40
-1.050389978
 40
-1.050389978
 40
0
 40
0
 40
0
 40
0
 10
604.0575935125133
 20
262.4344163866146
 30
0
 10
604.9490541240903
 20
262.2037203562158
 30
0
 10
605.8220486496263
 20
262.4382540167442
 30
0
 10
606.2524776800857
 20
263.0234600899107
 30
0
 10
606.6666453525307
 20
263.586557418558
 30
0
 10
606.6596604443766
 20
264.4545006379102
 30
0
 10
606.2336348551196
 20
265.231325144384
 30
0
 10
605.7972563866776
 20
266.0270273203372
 30
0
 10
604.9362202789112
 20
266.697772749248
 30
0
 10
604.0575935125133
 20
266.9251475817172
 30
0
  0
LINE
  5
168
100
AcDbEntity
  8
Widoczne wąskie (ISO)
  6
ByLayer
 62
  256
370
   -1
100
AcDbLine
 10
814.5208258123373
 20
191.0177961448684
 11
812.6679370959768
 21
189.6555916319822
  0
ELLIPSE
  5
169
100
AcDbEntity
  8
Widoczne (ISO)
  6
ByLayer
 62
  256
370
   -1
100
AcDbEllipse
 10
195.0383649756981
 20
-259.9218481349861
 30
0
 11
-999.9999999999998
 21
-5.96856e-11
 31
0
 40
0.577350269189626
 41
4.046663869835017
 42
4.05166385941839
  0
ELLIPSE
  5
16A
100
AcDbEntity
  8
Widoczne (ISO)
  6
ByLayer
 62
  256
370
   -1
100
AcDbEllipse
 10
195.0383649756981
 20
-264.4125793300887
 30
0
 11
-1003
 21
-1.705e-13
 31
0
 40
0.5773502691896257
 41
0.9050712162453651
 42
0.9100712058287375
  0
LINE
  5
16B
100
AcDbEntity
  8
Widoczne wąskie (ISO)
  6
ByLayer
 62
  256
370
   -1
100
AcDbLine
 10
810.5689642325478
 20
192.8003839516125
 11
808.7278956405534
 21
191.4328476706104
  0
SPLINE
  5
16C
100
AcDbEntity
  8
Widoczne (ISO)
  6
ByLayer
 62
  256
370
   -1
100
AcDbSpline
210
0
220
0
230
0
 70
    8
 71
    3
 72
   14
 73
   10
 74
    0
 42
1e-07
 43
1e-07
 40
-3.141592654
 40
-3.141592654
 40
-3.141592654
 40
-3.141592654
 40
-2.075859935
 40
-2.075859935
 40
-2.075859935
 40
-1.050389978
 40
-1.050389978
 40
-1.050389978
 40
0
 40
0
 40
0
 40
0
 10
599.4898804983814
 20
268.0992914643687
 30
0
 10
598.5964331562503
 20
268.3274112020487
 30
0
 10
597.7200602016812
 20
268.0884965638875
 30
0
 10
597.2877464513292
 20
267.5008464803208
 30
0
 10
596.8717652626107
 20
266.935397474562
 30
0
 10
596.8787884577296
 20
266.0675039038264
 30
0
 10
597.3066716092046
 20
265.2930881910369
 30
0
 10
597.7449527806197
 20
264.4998533450432
 30
0
 10
598.6092956032466
 20
263.8333958984191
 30
0
 10
599.4898804983814
 20
263.6085602692662
 30
0
  0
ELLIPSE
  5
16D
100
AcDbEntity
  8
Widoczne (ISO)
  6
ByLayer
 62
  256
370
   -1
100
AcDbEllipse
 10
195.0383649756981
 20
-264.4125793300887
 30
0
 11
-999.9999999999998
 21
5.68e-14
 31
0
 40
0.577350269189626
 41
1.149417311524571
 42
1.154417301107943
  0
SPLINE
  5
16E
100
AcDbEntity
  8
Widoczne (ISO)
  6
ByLayer
 62
  256
370
   -1
100
AcDbSpline
210
0
220
0
230
0
 70
    8
 71
    3
 72
   11
 73
    7
 74
    0
 42
1e-07
 43
1e-07
 40
0
 40
0
 40
0
 40
0
 40
1.067278229
 40
1.067278229
 40
1.067278229
 40
1.581711256
 40
1.581711256
 40
1.581711256
 40
1.581711256
 10
600.7032350449493
 20
265.1926236880643
 30
0
 10
599.8058078088471
 20
265.4217595934867
 30
0
 10
598.9257936457017
 20
266.108048000526
 30
0
 10
598.4925922894499
 20
266.9171623691147
 30
0
 10
598.2837872387086
 20
267.3071592247354
 30
0
 10
598.1820330923867
 20
267.7188825078076
 30
0
 10
598.1867472985466
 20
268.1025740565444
 30
0
  0
LINE
  5
16F
100
AcDbEntity
  8
Widoczne wąskie (ISO)
  6
ByLayer
 62
  256
370
   -1
100
AcDbLine
 10
605.2846511981239
 20
264.0149573737649
 11
604.0575935125133
 21
262.4344163866146
  0
ELLIPSE
  5
170
100
AcDbEntity
  8
Widoczne (ISO)
  6
ByLayer
 62
  256
370
   -1
100
AcDbEllipse
 10
195.0383649756981
 20
-259.9218481349861
 30
0
 11
-999.9999999999998
 21
-5.974239999999999e-11
 31
0
 40
0.5773502691896257
 41
4.291009965114282
 42
4.296009954697654
  0
LINE
  5
171
100
AcDbEntity
  8
Widoczne wąskie (ISO)
  6
ByLayer
 62
  256
370
   -1
100
AcDbLine
 10
600.7032350449493
 20
265.1926236880643
 11
599.4898804983814
 21
263.6085602692662
  0
SPLINE
  5
172
100
AcDbEntity
  8
Widoczne (ISO)
  6
ByLayer
 62
  256
370
   -1
100
AcDbSpline
210
0
220
0
230
0
 70
    8
 71
    3
 72
    8
 73
    4
 74
    0
 42
1e-07
 43
1e-07
 40
2.607696623
 40
2.607696623
 40
2.607696623
 40
2.607696623
 40
3.141592654
 40
3.141592654
 40
3.141592654
 40
3.141592654
 10
606.5613069995057
 20
264.0024823713337
 30
0
 10
606.176059020111
 20
263.899449556669
 30
0
 10
605.7325825747893
 20
263.8990397559297
 30
0
 10
605.2846511981239
 20
264.0149573737649
 30
0
  0
ELLIPSE
  5
173
100
AcDbEntity
  8
Widoczne (ISO)
  6
ByLayer
 62
  256
370
   -1
100
AcDbEllipse
 10
195.0383649756981
 20
-264.4125793300886
 30
0
 11
-1003
 21
-2.84e-14
 31
0
 40
0.5773502691896258
 41
1.149417311524571
 42
1.154417301107943
  0
ELLIPSE
  5
174
100
AcDbEntity
  8
Widoczne (ISO)
  6
ByLayer
 62
  256
370
   -1
100
AcDbEllipse
 10
195.0383649756981
 20
-343.8168718253101
 30
0
 11
-999.9999999999998
 21
-5.974239999999999e-11
 31
0
 40
0.577350269189626
 41
3.926990816987069
 42
6.080151381650709
  0
LINE
  5
175
100
AcDbEntity
  8
Widoczne (ISO)
  6
ByLayer
 62
  256
370
   -1
100
AcDbLine
 10
904.2664665058051
 20
65.65616350994452
 11
902.1451461622454
 21
64.43141863855294
  0
LINE
  5
176
100
AcDbEntity
  8
Widoczne (ISO)
  6
ByLayer
 62
  256
370
   -1
100
AcDbLine
 10
902.1451461622454
 20
158.3285254452415
 11
902.1451461622454
 21
64.43141863855294
  0
ELLIPSE
  5
177
100
AcDbEntity
  8
Widoczne (ISO)
  6
ByLayer
 62
  256
370
   -1
100
AcDbEllipse
 10
195.0383649756981
 20
-249.9197650186215
 30
0
 11
999.9999999999991
 21
-5.68e-14
 31
0
 40
0.5773502691896258
 41
3.926990816987242
 42
6.077151377150862
  0
LINE
  5
178
100
AcDbEntity
  8
Widoczne (ISO)
  6
ByLayer
 62
  256
370
   -1
100
AcDbLine
 10
904.2664665058051
 20
159.553270316633
 11
902.1451461622454
 21
158.3285254452415
  0
ELLIPSE
  5
179
100
AcDbEntity
  8
Widoczne (ISO)
  6
ByLayer
 62
  256
370
   -1
100
AcDbEllipse
 10
195.0383649756981
 20
-249.9197650186215
 30
0
 11
-1003
 21
-5.9913e-11
 31
0
 40
0.5773502691896257
 41
3.926990816987069
 42
6.077160350271706
  0
LINE
  5
17A
100
AcDbEntity
  8
Widoczne (ISO)
  6
ByLayer
 62
  256
370
   -1
100
AcDbLine
 10
904.2664665058051
 20
65.65616350994452
 11
904.2664665058051
 21
159.553270316633
  0
SPLINE
  5
17B
100
AcDbEntity
  8
Widoczne (ISO)
  6
ByLayer
 62
  256
370
   -1
100
AcDbSpline
210
0
220
0
230
0
 70
    8
 71
    3
 72
   14
 73
   10
 74
    0
 42
1e-07
 43
1e-07
 40
0.4520262
 40
0.4520262
 40
0.4520262
 40
0.4520262
 40
0.5650324210000001
 40
0.5650324210000001
 40
0.6780386420000001
 40
0.6780386420000001
 40
0.791044658
 40
0.791044658
 40
0.9040506740000001
 40
0.9040506740000001
 40
0.9040506740000001
 40
0.9040506740000001
 10
-786.7500132120859
 20
-131.4565774097
 30
0
 10
-786.8270723606732
 20
-131.6694586657339
 30
0
 10
-786.9090387960644
 20
-131.958023448015
 30
0
 10
-787.0594167300293
 20
-132.6258198594787
 30
0
 10
-787.1278401019061
 20
-133.0050500767365
 30
0
 10
-787.2357150177191
 20
-133.7412024882943
 30
0
 10
-787.28235893121
 20
-134.1471922264452
 30
0
 10
-787.3441620766572
 20
-134.9238190511399
 30
0
 10
-787.3593331883991
 20
-135.2944547248693
 30
0
 10
-787.3593331883991
 20
-135.6020181438741
 30
0
  0
SPLINE
  5
17C
100
AcDbEntity
  8
Widoczne (ISO)
  6
ByLayer
 62
  256
370
   -1
100
AcDbSpline
210
0
220
0
230
0
 70
    8
 71
    3
 72
   14
 73
   10
 74
    0
 42
1e-07
 43
1e-07
 40
0.90405069
 40
0.90405069
 40
0.90405069
 40
0.90405069
 40
1.017056706
 40
1.017056706
 40
1.130062722
 40
1.130062722
 40
1.243068944
 40
1.243068944
 40
1.356075166
 40
1.356075166
 40
1.356075166
 40
1.356075166
 10
-784.4209552277885
 20
-135.9512720918828
 30
0
 10
-784.4209552277885
 20
-135.6437086727674
 30
0
 10
-784.4057841420582
 20
-135.2730729958131
 30
0
 10
-784.3439807917669
 20
-134.4964461953704
 30
0
 10
-784.2973366117805
 20
-134.0904564889371
 30
0
 10
-784.1894603241622
 20
-133.3543042369434
 30
0
 10
-784.1210357494577
 20
-132.9750741600884
 30
0
 10
-783.9706538049624
 20
-132.3072782254706
 30
0
 10
-783.8886845262668
 20
-132.0187137838682
 30
0
 10
-783.8116220682354
 20
-131.805832924661
 30
0
  0
LINE
  5
17D
100
AcDbEntity
  8
Widoczne (ISO)
  6
ByLayer
 62
  256
370
   -1
100
AcDbLine
 10
-784.4209552277877
 20
-227.398889155788
 11
-784.4209552277885
 21
-135.9512720918828
  0
LINE
  5
17E
100
AcDbEntity
  8
Widoczne (ISO)
  6
ByLayer
 62
  256
370
   -1
100
AcDbLine
 10
-787.3593331883986
 20
-227.0496352077794
 11
-784.4209552277877
 21
-227.398889155788
  0
LINE
  5
17F
100
AcDbEntity
  8
Widoczne (ISO)
  6
ByLayer
 62
  256
370
   -1
100
AcDbLine
 10
-787.3593331883986
 20
-227.0496352077794
 11
-787.3593331883989
 21
-135.6020181438742
  0
LINE
  5
180
100
AcDbEntity
  8
Widoczne wąskie (ISO)
  6
ByLayer
 62
  256
370
   -1
100
AcDbLine
 10
-787.3593331883989
 20
-135.6020181438742
 11
-784.4209552277885
 21
-135.9512720918828
  0
LINE
  5
181
100
AcDbEntity
  8
Widoczne wąskie (ISO)
  6
ByLayer
 62
  256
370
   -1
100
AcDbLine
 10
-783.8116220682352
 20
-131.8058329246611
 11
-786.7500132120859
 21
-131.4565774097
  0
ENDBLK
  5
84
330
82
100
AcDbEntity
  8
0
100
AcDbBlockEnd
  0
BLOCK
  5
86
330
85
100
AcDbEntity
  8
0
100
AcDbBlockBegin
  2
*I10
 70
    0
 10
0
 20
0
  3
*I10
  1

  0
INSERT
  5
182
100
AcDbEntity
  8
IDW_BlockReferenceLayer
  6
ByLayer
 62
    7
370
   -1
100
AcDbBlockReference
  2
C-1068951_Arkusz_WIDOK3
 10
0
 20
0
 30
0
 41
1
 42
1
 43
0
 50
0
 70
    1
 71
    1
 44
0
 45
0
  0
ENDBLK
  5
87
330
85
100
AcDbEntity
  8
0
100
AcDbBlockEnd
  0
BLOCK
  5
89
330
88
100
AcDbEntity
  8
0
100
AcDbBlockBegin
  2
C-1068951_Arkusz_WIDOK3
 70
    0
 10
0
 20
0
  3
C-1068951_Arkusz_WIDOK3
  1

  0
SPLINE
  5
183
100
AcDbEntity
  8
Ukryte (ISO)
  6
ByLayer
 62
  256
370
   -1
100
AcDbSpline
210
0
220
0
230
0
 70
    8
 71
    3
 72
   14
 73
   10
 74
    0
 42
1e-07
 43
1e-07
 40
-3.141592654
 40
-3.141592654
 40
-3.141592654
 40
-3.141592654
 40
-2.075859935
 40
-2.075859935
 40
-2.075859935
 40
-1.050389978
 40
-1.050389978
 40
-1.050389978
 40
0
 40
0
 40
0
 40
0
 10
39.74909906819912
 20
767.1736232872565
 30
0
 10
39.74909906819912
 20
767.2902548953354
 30
0
 10
40.31439738449224
 20
767.4028178493591
 30
0
 10
41.16842832853139
 20
767.4580643061463
 30
0
 10
41.99019448103884
 20
767.5112235839811
 30
0
 10
43.05096803904193
 20
767.5103359404649
 30
0
 10
43.8664892127416
 20
767.4556455896603
 30
0
 10
44.70182842647858
 20
767.3996262046174
 30
0
 10
45.24909906819913
 20
767.2885758172227
 30
0
 10
45.24909906819913
 20
767.1736232872565
 30
0
  0
SPLINE
  5
184
100
AcDbEntity
  8
Ukryte (ISO)
  6
ByLayer
 62
  256
370
   -1
100
AcDbSpline
210
0
220
0
230
0
 70
    8
 71
    3
 72
   14
 73
   10
 74
    0
 42
1e-07
 43
1e-07
 40
-3.141592654
 40
-3.141592654
 40
-3.141592654
 40
-3.141592654
 40
-2.075859935
 40
-2.075859935
 40
-2.075859935
 40
-1.050389978
 40
-1.050389978
 40
-1.050389978
 40
0
 40
0
 40
0
 40
0
 10
45.24909906819913
 20
766.5642784744302
 30
0
 10
45.24909906819913
 20
766.4427987126398
 30
0
 10
44.68380075190618
 20
766.3219914885392
 30
0
 10
43.82976980786732
 20
766.2621458113276
 30
0
 10
43.00800365535976
 20
766.2045610689366
 30
0
 10
41.94723009735628
 20
766.2055421428814
 30
0
 10
41.1317089236564
 20
766.2647654421201
 30
0
 10
40.29636970991953
 20
766.3254279311105
 30
0
 10
39.74909906819912
 20
766.44454758683
 30
0
 10
39.74909906819912
 20
766.5642784744302
 30
0
  0
SPLINE
  5
185
100
AcDbEntity
  8
Widoczne (ISO)
  6
ByLayer
 62
  256
370
   -1
100
AcDbSpline
210
0
220
0
230
0
 70
    8
 71
    3
 72
   14
 73
   10
 74
    0
 42
1e-07
 43
1e-07
 40
0
 40
0
 40
0
 40
0
 40
1.067278229
 40
1.067278229
 40
1.067278229
 40
2.095708736
 40
2.095708736
 40
2.095708736
 40
3.141592654
 40
3.141592654
 40
3.141592654
 40
3.141592654
 10
39.74909906819912
 20
769.5409936070583
 30
0
 10
39.74909906819912
 20
769.4189727092113
 30
0
 10
40.3158078237393
 20
769.2976606727813
 30
0
 10
41.17218197821552
 20
769.2376912055565
 30
0
 10
41.99738508051609
 20
769.1799045592192
 30
0
 10
43.06184439150761
 20
769.1813577865464
 30
0
 10
43.87723544150453
 20
769.2413688474589
 30
0
 10
44.70646442680482
 20
769.3023983512138
 30
0
 10
45.24909906819913
 20
769.4214187003799
 30
0
 10
45.24909906819913
 20
769.5409936070583
 30
0
  0
SPLINE
  5
186
100
AcDbEntity
  8
Widoczne (ISO)
  6
ByLayer
 62
  256
370
   -1
100
AcDbSpline
210
0
220
0
230
0
 70
    8
 71
    3
 72
   14
 73
   10
 74
    0
 42
1e-07
 43
1e-07
 40
0
 40
0
 40
0
 40
0
 40
1.067278229
 40
1.067278229
 40
1.067278229
 40
2.095708736
 40
2.095708736
 40
2.095708736
 40
3.141592654
 40
3.141592654
 40
3.141592654
 40
3.141592654
 10
45.24909906819913
 20
770.1521664543232
 30
0
 10
45.24909906819913
 20
770.2693176021799
 30
0
 10
44.68239031265881
 20
770.3823450322157
 30
0
 10
43.82601615818252
 20
770.4377038945082
 30
0
 10
43.00081305588109
 20
770.4910477567265
 30
0
 10
41.93635374488829
 20
770.4897316124793
 30
0
 10
41.12096269489103
 20
770.4343081976693
 30
0
 10
40.29173370959213
 20
770.3779441965868
 30
0
 10
39.74909906819912
 20
770.2669692284329
 30
0
 10
39.74909906819912
 20
770.1521664543232
 30
0
  0
SPLINE
  5
187
100
AcDbEntity
  8
Ukryte (ISO)
  6
ByLayer
 62
  256
370
   -1
100
AcDbSpline
210
0
220
0
230
0
 70
    8
 71
    3
 72
    8
 73
    4
 74
    0
 42
1e-07
 43
1e-07
 40
-0.534860075
 40
-0.534860075
 40
-0.534860075
 40
-0.534860075
 40
0
 40
0
 40
0
 40
0
 10
44.85762222060829
 20
709.2958971681498
 30
0
 10
45.10719940212431
 20
709.1463205664247
 30
0
 10
45.2490990681992
 20
708.9738847814808
 30
0
 10
45.2490990681992
 20
708.7993270778773
 30
0
  0
SPLINE
  5
188
100
AcDbEntity
  8
Ukryte (ISO)
  6
ByLayer
 62
  256
370
   -1
100
AcDbSpline
210
0
220
0
230
0
 70
    8
 71
    3
 72
    8
 73
    4
 74
    0
 42
1e-07
 43
1e-07
 40
-3.141592654
 40
-3.141592654
 40
-3.141592654
 40
-3.141592654
 40
-2.6067502
 40
-2.6067502
 40
-2.6067502
 40
-2.6067502
 10
39.74909906819919
 20
708.7993270778773
 30
0
 10
39.74909906819919
 20
708.9738790306174
 30
0
 10
39.89147377369354
 20
709.1462730335219
 30
0
 10
40.14126643701506
 20
709.2958280354625
 30
0
  0
SPLINE
  5
189
100
AcDbEntity
  8
Ukryte (ISO)
  6
ByLayer
 62
  256
370
   -1
100
AcDbSpline
210
0
220
0
230
0
 70
    8
 71
    3
 72
   14
 73
   10
 74
    0
 42
1e-07
 43
1e-07
 40
-3.141592654
 40
-3.141592654
 40
-3.141592654
 40
-3.141592654
 40
-2.075859935
 40
-2.075859935
 40
-2.075859935
 40
-1.050389978
 40
-1.050389978
 40
-1.050389978
 40
0
 40
0
 40
0
 40
0
 10
45.2490990681992
 20
707.0074929296238
 30
0
 10
45.2490990681992
 20
706.6551187341565
 30
0
 10
44.68380075190641
 20
706.3081183136366
 30
0
 10
43.82976980786757
 20
706.1367358471803
 30
0
 10
43.00800365535836
 20
705.9718281104639
 30
0
 10
41.94723009735243
 20
705.974619617692
 30
0
 10
41.13170892365185
 20
706.1442381967921
 30
0
 10
40.2963697099175
 20
706.3179786894603
 30
0
 10
39.74909906819919
 20
706.6601916625748
 30
0
 10
39.74909906819919
 20
707.0074929296238
 30
0
  0
SPLINE
  5
18A
100
AcDbEntity
  8
Widoczne (ISO)
  6
ByLayer
 62
  256
370
   -1
100
AcDbSpline
210
0
220
0
230
0
 70
    8
 71
    3
 72
   14
 73
   10
 74
    0
 42
1e-07
 43
1e-07
 40
-2.6067502
 40
-2.6067502
 40
-2.6067502
 40
-2.6067502
 40
-2.075859935
 40
-2.075859935
 40
-2.075859935
 40
-1.050389978
 40
-1.050389978
 40
-1.050389978
 40
-0.534860075
 40
-0.534860075
 40
-0.534860075
 40
-0.534860075
 10
40.14126643701506
 20
709.2958280354625
 30
0
 10
40.38921327133232
 20
709.4442779090272
 30
0
 10
40.74299641085507
 20
709.5702250695863
 30
0
 10
41.16842832853071
 20
709.6534435509924
 30
0
 10
41.99019448103864
 20
709.8141887335737
 30
0
 10
43.05096803904286
 20
709.8114851062084
 30
0
 10
43.86648921274296
 20
709.6461301796609
 30
0
 10
44.27647250767286
 20
709.5630020404966
 30
0
 10
44.61706491155665
 20
709.440067979718
 30
0
 10
44.85762222060829
 20
709.2958971681498
 30
0
  0
SPLINE
  5
18B
100
AcDbEntity
  8
Widoczne (ISO)
  6
ByLayer
 62
  256
370
   -1
100
AcDbSpline
210
0
220
0
230
0
 70
    8
 71
    3
 72
   14
 73
   10
 74
    0
 42
1e-07
 43
1e-07
 40
0
 40
0
 40
0
 40
0
 40
1.067278229
 40
1.067278229
 40
1.067278229
 40
2.095708736
 40
2.095708736
 40
2.095708736
 40
3.141592654
 40
3.141592654
 40
3.141592654
 40
3.141592654
 10
39.74909906819919
 20
709.8055377056176
 30
0
 10
39.74909906819919
 20
709.4515938463659
 30
0
 10
40.31580782373938
 20
709.1031493153423
 30
0
 10
41.17218197821556
 20
708.9314142175394
 30
0
 10
41.99738508051533
 20
708.7659300833674
 30
0
 10
43.06184439150562
 20
708.7700663481443
 30
0
 10
43.87723544150214
 20
708.9419467148193
 30
0
 10
44.70646442680366
 20
709.1167440492418
 30
0
 10
45.2490990681992
 20
709.4586888896677
 30
0
 10
45.2490990681992
 20
709.8055377056176
 30
0
  0
SPLINE
  5
18C
100
AcDbEntity
  8
Widoczne (ISO)
  6
ByLayer
 62
  256
370
   -1
100
AcDbSpline
210
0
220
0
230
0
 70
    8
 71
    3
 72
   14
 73
   10
 74
    0
 42
1e-07
 43
1e-07
 40
0
 40
0
 40
0
 40
0
 40
1.067278229
 40
1.067278229
 40
1.067278229
 40
2.095708736
 40
2.095708736
 40
2.095708736
 40
3.141592654
 40
3.141592654
 40
3.141592654
 40
3.141592654
 10
45.2490990681992
 20
711.6027473563158
 30
0
 10
45.2490990681992
 20
711.9521107703505
 30
0
 10
44.68239031265916
 20
712.2927628714117
 30
0
 10
43.82601615818296
 20
712.4601612736244
 30
0
 10
43.00081305588341
 20
712.6214665630285
 30
0
 10
41.93635374489346
 20
712.6174592374252
 30
0
 10
41.12096269489692
 20
712.4498939714617
 30
0
 10
40.29173370959493
 20
712.2794849689748
 30
0
 10
39.74909906819919
 20
711.9451075451612
 30
0
 10
39.74909906819919
 20
711.6027473563158
 30
0
  0
LINE
  5
18D
100
AcDbEntity
  8
Ukryte (ISO)
  6
ByLayer
 62
  256
370
   -1
100
AcDbLine
 10
39.74909906819912
 20
769.5409936070583
 11
39.74909906819912
 21
766.5642784744302
  0
LINE
  5
18E
100
AcDbEntity
  8
Ukryte (ISO)
  6
ByLayer
 62
  256
370
   -1
100
AcDbLine
 10
45.24909906819913
 20
769.5409936070583
 11
45.24909906819913
 21
766.5642784744302
  0
LINE
  5
18F
100
AcDbEntity
  8
Widoczne (ISO)
  6
ByLayer
 62
  256
370
   -1
100
AcDbLine
 10
45.24909906819914
 20
769.5409936070586
 11
45.24909906819914
 21
770.1521664543232
  0
LINE
  5
190
100
AcDbEntity
  8
Widoczne (ISO)
  6
ByLayer
 62
  256
370
   -1
100
AcDbLine
 10
39.74909906819913
 20
770.152166454323
 11
39.74909906819913
 21
769.5409936070585
  0
LINE
  5
191
100
AcDbEntity
  8
Ukryte (ISO)
  6
ByLayer
 62
  256
370
   -1
100
AcDbLine
 10
39.74909906819919
 20
709.8055377056176
 11
39.74909906819919
 21
707.0074929296238
  0
LINE
  5
192
100
AcDbEntity
  8
Ukryte (ISO)
  6
ByLayer
 62
  256
370
   -1
100
AcDbLine
 10
45.2490990681992
 20
709.8055377056176
 11
45.2490990681992
 21
707.0074929296238
  0
LINE
  5
193
100
AcDbEntity
  8
Widoczne (ISO)
  6
ByLayer
 62
  256
370
   -1
100
AcDbLine
 10
45.24909906819926
 20
709.8055377056178
 11
45.24909906819926
 21
711.6027473563162
  0
LINE
  5
194
100
AcDbEntity
  8
Widoczne (ISO)
  6
ByLayer
 62
  256
370
   -1
100
AcDbLine
 10
39.74909906819925
 20
711.6027473563157
 11
39.74909906819925
 21
709.8055377056176
  0
LINE
  5
195
100
AcDbEntity
  8
Ukryte (ISO)
  6
ByLayer
 62
  256
370
   -1
100
AcDbLine
 10
57.49909906819907
 20
774.325900931706
 11
-57.50090093180093
 21
774.325900931706
  0
LINE
  5
196
100
AcDbEntity
  8
Ukryte (ISO)
  6
ByLayer
 62
  256
370
   -1
100
AcDbLine
 10
-57.50090093180074
 20
-775.6740990682929
 11
54.49909906819925
 21
-775.6740990682933
  0
SPLINE
  5
197
100
AcDbEntity
  8
Widoczne (ISO)
  6
ByLayer
 62
  256
370
   -1
100
AcDbSpline
210
0
220
0
230
0
 70
    8
 71
    3
 72
   14
 73
   10
 74
    0
 42
1e-07
 43
1e-07
 40
0.4520262
 40
0.4520262
 40
0.4520262
 40
0.4520262
 40
0.5650324210000001
 40
0.5650324210000001
 40
0.6780386420000001
 40
0.6780386420000001
 40
0.791044658
 40
0.791044658
 40
0.9040506740000001
 40
0.9040506740000001
 40
0.9040506740000001
 40
0.9040506740000001
 10
57.49909906819926
 20
-774.8161375022925
 30
0
 10
57.49909906819926
 20
-775.131351775354
 30
0
 10
57.42381849880112
 20
-775.4674484654136
 30
0
 10
57.11765776467207
 20
-776.0855012182059
 30
0
 10
56.88677757799706
 20
-776.36746392544
 30
0
 10
56.35406172873103
 20
-776.8126260512831
 30
0
 10
56.01671839652081
 20
-777.0054987962413
 30
0
 10
55.27758042553259
 20
-777.2612319690273
 30
0
 10
54.87578578825311
 20
-777.3240990682934
 30
0
 10
54.49909906819925
 20
-777.3240990682934
 30
0
  0
SPLINE
  5
198
100
AcDbEntity
  8
Ukryte (ISO)
  6
ByLayer
 62
  256
370
   -1
100
AcDbSpline
210
0
220
0
230
0
 70
    8
 71
    3
 72
   14
 73
   10
 74
    0
 42
1e-07
 43
1e-07
 40
0.90405069
 40
0.90405069
 40
0.90405069
 40
0.90405069
 40
1.017056706
 40
1.017056706
 40
1.130062722
 40
1.130062722
 40
1.243068944
 40
1.243068944
 40
1.356075166
 40
1.356075166
 40
1.356075166
 40
1.356075166
 10
54.49909906819925
 20
-775.6740990682933
 30
0
 10
54.87578578838841
 20
-775.6740990682933
 30
0
 10
55.27758042578607
 20
-775.6112319835888
 30
0
 10
56.01671839681687
 20
-775.355498695701
 30
0
 10
56.35406172894246
 20
-775.1626258010633
 30
0
 10
56.88677758068928
 20
-774.7174629031135
 30
0
 10
57.11765776817841
 20
-774.4354995181237
 30
0
 10
57.4238185008954
 20
-773.8174445120605
 30
0
 10
57.49909906819926
 20
-773.4813462266314
 30
0
 10
57.49909906819926
 20
-773.166130099451
 30
0
  0
LINE
  5
199
100
AcDbEntity
  8
Widoczne (ISO)
  6
ByLayer
 62
  256
370
   -1
100
AcDbLine
 10
-57.50090093180093
 20
-777.3240990682934
 11
-57.50090093180093
 21
777.3259009317059
  0
LINE
  5
19A
100
AcDbEntity
  8
Widoczne (ISO)
  6
ByLayer
 62
  256
370
   -1
100
AcDbLine
 10
-57.50090093180093
 20
777.3259009317059
 11
57.49909906819907
 21
777.3259009317059
  0
LINE
  5
19B
100
AcDbEntity
  8
Widoczne (ISO)
  6
ByLayer
 62
  256
370
   -1
100
AcDbLine
 10
57.49909906819907
 20
-774.8161375022926
 11
57.49909906819907
 21
777.3259009317059
  0
LINE
  5
19C
100
AcDbEntity
  8
Widoczne (ISO)
  6
ByLayer
 62
  256
370
   -1
100
AcDbLine
 10
-57.50090093180073
 20
-777.324099068293
 11
54.49909906819926
 21
-777.3240990682934
  0
ENDBLK
  5
8A
330
88
100
AcDbEntity
  8
0
100
AcDbBlockEnd
  0
BLOCK
  5
8C
330
8B
100
AcDbEntity
  8
0
100
AcDbBlockBegin
  2
*I12
 70
    0
 10
0
 20
0
  3
*I12
  1

  0
MTEXT
  5
19D
100
AcDbEntity
  8
Wymiar (ISO)
  6
ByLayer
 62
  256
370
   -1
100
AcDbMText
 10
327.960178495039
 20
249.2750124384046
 30
0
 40
3.000000119209289
 41
40.6666682826157
 71
    1
 72
    5
  1
\fTahoma|b0|i0;\W1.;115
  7
STANDARD
210
0
220
0
230
1
 50
0
 73
    1
 44
1
  0
HATCH
  5
19E
100
AcDbEntity
  8
Wymiar (ISO)
  6
ByLayer
 62
  256
370
   -1
100
AcDbHatch
 10
0
 20
0
 30
0
210
0
220
0
230
1
  2
SOLID
 70
    1
 71
    0
 91
    1
 92
    0
 93
    3
 72
    1
 10
328.5965270996094
 20
245.7020721435547
 11
326.0965270996094
 21
245.2020874023438
 72
    1
 10
326.0965270996094
 20
245.2020874023438
 11
328.5965270996094
 21
244.7020721435547
 72
    1
 10
328.5965270996094
 20
244.7020721435547
 11
328.5965270996094
 21
245.7020721435547
 97
    0
 75
    0
 76
    1
 98
    0
  0
LINE
  5
19F
100
AcDbEntity
  8
Wymiar (ISO)
  6
ByLayer
 62
  256
370
   -1
100
AcDbLine
 10
326.0965343253191
 20
234.5993534546928
 11
326.0965343253191
 21
246.7020787394002
  0
LINE
  5
1A0
100
AcDbEntity
  8
Wymiar (ISO)
  6
ByLayer
 62
  256
370
   -1
100
AcDbLine
 10
335.6798676586525
 20
234.5993534546927
 11
335.6798676586525
 21
246.7020787394002
  0
LINE
  5
1A1
100
AcDbEntity
  8
Wymiar (ISO)
  6
ByLayer
 62
  256
370
   -1
100
AcDbLine
 10
333.1798676586525
 20
245.2020787394002
 11
328.5965343253191
 21
245.2020787394002
  0
LINE
  5
1A2
100
AcDbEntity
  8
Wymiar (ISO)
  6
ByLayer
 62
  256
370
   -1
100
AcDbLine
 10
328.5965343253191
 20
244.7020787394002
 11
328.5965343253191
 21
245.7020787394002
  0
HATCH
  5
1A3
100
AcDbEntity
  8
Wymiar (ISO)
  6
ByLayer
 62
  256
370
   -1
100
AcDbHatch
 10
0
 20
0
 30
0
210
0
220
0
230
1
  2
SOLID
 70
    1
 71
    0
 91
    1
 92
    0
 93
    3
 72
    1
 10
333.1798706054688
 20
244.7020721435547
 11
335.6798706054687
 21
245.2020874023438
 72
    1
 10
335.6798706054687
 20
245.2020874023438
 11
333.1798706054688
 21
245.7020721435547
 72
    1
 10
333.1798706054688
 20
245.7020721435547
 11
333.1798706054688
 21
244.7020721435547
 97
    0
 75
    0
 76
    1
 98
    0
  0
LINE
  5
1A4
100
AcDbEntity
  8
Wymiar (ISO)
  6
ByLayer
 62
  256
370
   -1
100
AcDbLine
 10
326.0965343253191
 20
245.2020787394002
 11
328.5965343253191
 21
244.7020787394002
  0
LINE
  5
1A5
100
AcDbEntity
  8
Wymiar (ISO)
  6
ByLayer
 62
  256
370
   -1
100
AcDbLine
 10
328.5965343253191
 20
245.7020787394002
 11
326.0965343253191
 21
245.2020787394002
  0
LINE
  5
1A6
100
AcDbEntity
  8
Wymiar (ISO)
  6
ByLayer
 62
  256
370
   -1
100
AcDbLine
 10
328.5965343253191
 20
245.2020787394002
 11
326.0965343253191
 21
245.2020787394002
  0
LINE
  5
1A7
100
AcDbEntity
  8
Wymiar (ISO)
  6
ByLayer
 62
  256
370
   -1
100
AcDbLine
 10
333.1798676586525
 20
245.7020787394002
 11
333.1798676586525
 21
244.7020787394002
  0
LINE
  5
1A8
100
AcDbEntity
  8
Wymiar (ISO)
  6
ByLayer
 62
  256
370
   -1
100
AcDbLine
 10
335.6798676586525
 20
245.2020787394002
 11
333.1798676586525
 21
245.7020787394002
  0
LINE
  5
1A9
100
AcDbEntity
  8
Wymiar (ISO)
  6
ByLayer
 62
  256
370
   -1
100
AcDbLine
 10
333.1798676586525
 20
244.7020787394002
 11
335.6798676586525
 21
245.2020787394002
  0
LINE
  5
1AA
100
AcDbEntity
  8
Wymiar (ISO)
  6
ByLayer
 62
  256
370
   -1
100
AcDbLine
 10
333.1798676586525
 20
245.2020787394002
 11
335.6798676586525
 21
245.2020787394002
  0
ENDBLK
  5
8D
330
8B
100
AcDbEntity
  8
0
100
AcDbBlockEnd
  0
BLOCK
  5
8F
330
8E
100
AcDbEntity
  8
0
100
AcDbBlockBegin
  2
*I13
 70
    0
 10
0
 20
0
  3
*I13
  1

  0
MTEXT
  5
1AB
100
AcDbEntity
  8
Wymiar (ISO)
  6
ByLayer
 62
  256
370
   -1
100
AcDbMText
 10
184.934215378876
 20
177.7070768027358
 30
0
 40
3.000000119209289
 41
43.66666840182479
 71
    1
 72
    5
  1
\fTahoma|b0|i0;\W1.;1000
  7
STANDARD
210
0
220
0
230
1
 50
-47.78680037357367
 73
    1
 44
1
  0
MTEXT
  5
1AC
100
AcDbEntity
  8
Wymiar (ISO)
  6
ByLayer
 62
  256
370
   -1
100
AcDbMText
 10
183.0692026965816
 20
179.6724891927688
 30
0
 40
3.000000119209289
 41
37.66666816340621
 71
    1
 72
    5
  1
\fTahoma|b0|i0;\W1.;R
  7
STANDARD
210
0
220
0
230
1
 50
-47.78680037357367
 73
    1
 44
1
  0
LINE
  5
1AD
100
AcDbEntity
  8
Wymiar (ISO)
  6
ByLayer
 62
  256
370
   -1
100
AcDbLine
 10
149.041329247022
 20
211.1352145266947
 11
203.3525374736298
 21
151.2660201213594
  0
HATCH
  5
1AE
100
AcDbEntity
  8
Wymiar (ISO)
  6
ByLayer
 62
  256
370
   -1
100
AcDbHatch
 10
0
 20
0
 30
0
210
0
220
0
230
1
  2
SOLID
 70
    1
 71
    0
 91
    1
 92
    0
 93
    3
 72
    1
 10
149.4116516113281
 20
211.4711608886719
 11
147.3616027832031
 21
212.986831665039
 72
    1
 10
147.3616027832031
 20
212.986831665039
 11
148.6710052490234
 21
210.7992706298828
 72
    1
 10
148.6710052490234
 20
210.7992706298828
 11
149.4116516113281
 21
211.4711608886719
 97
    0
 75
    0
 76
    1
 98
    0
  0
LINE
  5
1AF
100
AcDbEntity
  8
Wymiar (ISO)
  6
ByLayer
 62
  256
370
   -1
100
AcDbLine
 10
148.6710043331745
 20
210.7992689087981
 11
149.4116541608694
 21
211.4711601445912
  0
LINE
  5
1B0
100
AcDbEntity
  8
Wymiar (ISO)
  6
ByLayer
 62
  256
370
   -1
100
AcDbLine
 10
147.3616011575393
 20
212.9868390959318
 11
148.6710043331745
 21
210.7992689087981
  0
LINE
  5
1B1
100
AcDbEntity
  8
Wymiar (ISO)
  6
ByLayer
 62
  256
370
   -1
100
AcDbLine
 10
149.4116541608694
 20
211.4711601445912
 11
147.3616011575393
 21
212.9868390959318
  0
LINE
  5
1B2
100
AcDbEntity
  8
Wymiar (ISO)
  6
ByLayer
 62
  256
370
   -1
100
AcDbLine
 10
149.041329247022
 20
211.1352145266947
 11
147.3616011575393
 21
212.9868390959318
  0
ENDBLK
  5
90
330
8E
100
AcDbEntity
  8
0
100
AcDbBlockEnd
  0
BLOCK
  5
92
330
91
100
AcDbEntity
  8
0
100
AcDbBlockBegin
  2
*I14
 70
    0
 10
0
 20
0
  3
*I14
  1

  0
MTEXT
  5
1B3
100
AcDbEntity
  8
Symbol (ISO)
  6
ByLayer
 62
  256
370
   -1
100
AcDbMText
 10
194.9980750592921
 20
383.1333124830904
 30
0
 40
3.000000119209289
 41
70.91666915130934
 71
    1
 72
    5
  1
\fTahoma|b0|i0;\W1.;WIDOK4 ( 1 : 12 )
  7
STANDARD
210
0
220
0
230
1
 50
0
 73
    1
 44
1
  0
ENDBLK
  5
93
330
91
100
AcDbEntity
  8
0
100
AcDbBlockEnd
  0
BLOCK
  5
95
330
94
100
AcDbEntity
  8
0
100
AcDbBlockBegin
  2
*I15
 70
    0
 10
0
 20
0
  3
*I15
  1

  0
INSERT
  5
1B4
100
AcDbEntity
  8
IDW_BlockReferenceLayer
  6
ByLayer
 62
    7
370
   -1
100
AcDbBlockReference
  2
C-1068951_Arkusz_WIDOK4
 10
0
 20
0
 30
0
 41
1
 42
1
 43
0
 50
0
 70
    1
 71
    1
 44
0
 45
0
  0
ENDBLK
  5
96
330
94
100
AcDbEntity
  8
0
100
AcDbBlockEnd
  0
BLOCK
  5
98
330
97
100
AcDbEntity
  8
0
100
AcDbBlockBegin
  2
C-1068951_Arkusz_WIDOK4
 70
    0
 10
0
 20
0
  3
C-1068951_Arkusz_WIDOK4
  1

  0
LINE
  5
1B5
100
AcDbEntity
  8
Linia środkowa zgięcia (ISO)
  6
ByLayer
 62
  256
370
   -1
100
AcDbLine
 10
0.0045297511080662
 20
-57.50452975110798
 11
0.0045297511080662
 21
57.49547024889202
  0
LINE
  5
1B6
100
AcDbEntity
  8
Widoczne (ISO)
  6
ByLayer
 62
  256
370
   -1
100
AcDbLine
 10
953.1682872083081
 20
39.74547024889223
 11
958.1748767779306
 21
39.74547024889223
  0
SPLINE
  5
1B7
100
AcDbEntity
  8
Widoczne (ISO)
  6
ByLayer
 62
  256
370
   -1
100
AcDbSpline
210
0
220
0
230
0
 70
    8
 71
    3
 72
   14
 73
   10
 74
    0
 42
1e-07
 43
1e-07
 40
-3.141592654
 40
-3.141592654
 40
-3.141592654
 40
-3.141592654
 40
-2.11028366
 40
-2.11028366
 40
-2.11028366
 40
-1.048715612
 40
-1.048715612
 40
-1.048715612
 40
0
 40
0
 40
0
 40
0
 10
958.1748767779306
 20
39.74547024889223
 30
0
 10
959.1214853230489
 20
39.74547024889223
 30
0
 10
960.0511207679319
 20
40.27170749014685
 30
0
 10
960.5373815420586
 20
41.08280568439828
 30
0
 10
961.0379094184977
 20
41.91770185195676
 30
0
 10
961.0475451027816
 20
43.02338283041073
 30
0
 10
960.5616439907334
 20
43.86685329706529
 30
0
 10
960.0816256975065
 20
44.70011184237802
 30
0
 10
959.1374623523837
 20
45.24547024889224
 30
0
 10
958.1748767779306
 20
45.24547024889224
 30
0
  0
SPLINE
  5
1B8
100
AcDbEntity
  8
Widoczne (ISO)
  6
ByLayer
 62
  256
370
   -1
100
AcDbSpline
210
0
220
0
230
0
 70
    8
 71
    3
 72
   14
 73
   10
 74
    0
 42
1e-07
 43
1e-07
 40
-3.141592654
 40
-3.141592654
 40
-3.141592654
 40
-3.141592654
 40
-2.11028366
 40
-2.11028366
 40
-2.11028366
 40
-1.048715612
 40
-1.048715612
 40
-1.048715612
 40
0
 40
0
 40
0
 40
0
 10
953.1682872083081
 20
45.24547024889224
 30
0
 10
952.2216786631899
 20
45.24547024889224
 30
0
 10
951.2920432183067
 20
44.71923300763761
 30
0
 10
950.8057824441801
 20
43.90813481338619
 30
0
 10
950.3052545677409
 20
43.0732386458277
 30
0
 10
950.2956188834572
 20
41.96755766737374
 30
0
 10
950.7815199955052
 20
41.12408720071917
 30
0
 10
951.2615382887323
 20
40.29082865540645
 30
0
 10
952.2057016338548
 20
39.74547024889223
 30
0
 10
953.1682872083081
 20
39.74547024889223
 30
0
  0
SPLINE
  5
1B9
100
AcDbEntity
  8
Widoczne (ISO)
  6
ByLayer
 62
  256
370
   -1
100
AcDbSpline
210
0
220
0
230
0
 70
    8
 71
    3
 72
   14
 73
   10
 74
    0
 42
1e-07
 43
1e-07
 40
-3.141592654
 40
-3.141592654
 40
-3.141592654
 40
-3.141592654
 40
-2.11028366
 40
-2.11028366
 40
-2.11028366
 40
-1.048715612
 40
-1.048715612
 40
-1.048715612
 40
0
 40
0
 40
0
 40
0
 10
713.5062446529557
 20
39.7454702488922
 30
0
 10
714.4528531980739
 20
39.7454702488922
 30
0
 10
715.3824886429572
 20
40.27170749014682
 30
0
 10
715.8687494170838
 20
41.08280568439824
 30
0
 10
716.3692772935231
 20
41.91770185195673
 30
0
 10
716.3789129778065
 20
43.02338283041069
 30
0
 10
715.8930118657586
 20
43.86685329706526
 30
0
 10
715.4129935725316
 20
44.70011184237798
 30
0
 10
714.4688302274089
 20
45.2454702488922
 30
0
 10
713.5062446529557
 20
45.2454702488922
 30
0
  0
LINE
  5
1BA
100
AcDbEntity
  8
Widoczne (ISO)
  6
ByLayer
 62
  256
370
   -1
100
AcDbLine
 10
958.1748767779306
 20
45.24547024889224
 11
953.1682872083081
 21
45.24547024889224
  0
SPLINE
  5
1BB
100
AcDbEntity
  8
Widoczne (ISO)
  6
ByLayer
 62
  256
370
   -1
100
AcDbSpline
210
0
220
0
230
0
 70
    8
 71
    3
 72
   14
 73
   10
 74
    0
 42
1e-07
 43
1e-07
 40
-3.141592654
 40
-3.141592654
 40
-3.141592654
 40
-3.141592654
 40
-2.11028366
 40
-2.11028366
 40
-2.11028366
 40
-1.048715612
 40
-1.048715612
 40
-1.048715612
 40
0
 40
0
 40
0
 40
0
 10
708.4996550833336
 20
45.2454702488922
 30
0
 10
707.5530465382155
 20
45.2454702488922
 30
0
 10
706.6234110933322
 20
44.71923300763758
 30
0
 10
706.1371503192056
 20
43.90813481338615
 30
0
 10
705.6366224427665
 20
43.07323864582767
 30
0
 10
705.6269867584829
 20
41.9675576673737
 30
0
 10
706.1128878705306
 20
41.12408720071914
 30
0
 10
706.5929061637576
 20
40.29082865540641
 30
0
 10
707.5370695088804
 20
39.7454702488922
 30
0
 10
708.4996550833336
 20
39.7454702488922
 30
0
  0
LINE
  5
1BC
100
AcDbEntity
  8
Widoczne (ISO)
  6
ByLayer
 62
  256
370
   -1
100
AcDbLine
 10
708.4996550833334
 20
39.7454702488922
 11
713.5062446529558
 21
39.7454702488922
  0
LINE
  5
1BD
100
AcDbEntity
  8
Widoczne (ISO)
  6
ByLayer
 62
  256
370
   -1
100
AcDbLine
 10
713.5062446529558
 20
45.2454702488922
 11
708.4996550833334
 21
45.2454702488922
  0
LINE
  5
1BE
100
AcDbEntity
  8
Widoczne (ISO)
  6
ByLayer
 62
  256
370
   -1
100
AcDbLine
 10
1078.005898055605
 20
-57.50452975110775
 11
-1077.99683855339
 21
-57.50452975110824
  0
LINE
  5
1BF
100
AcDbEntity
  8
Widoczne (ISO)
  6
ByLayer
 62
  256
370
   -1
100
AcDbLine
 10
1078.005898055605
 20
57.49547024889224
 11
1078.005898055605
 21
-57.50452975110775
  0
LINE
  5
1C0
100
AcDbEntity
  8
Widoczne (ISO)
  6
ByLayer
 62
  256
370
   -1
100
AcDbLine
 10
-1074.992874047431
 20
57.49547024889177
 11
1078.005898055605
 21
57.49547024889224
  0
SPLINE
  5
1C1
100
AcDbEntity
  8
Ukryte (ISO)
  6
ByLayer
 62
  256
370
   -1
100
AcDbSpline
210
0
220
0
230
0
 70
    8
 71
    3
 72
    8
 73
    4
 74
    0
 42
1e-07
 43
1e-07
 40
-0.150450001
 40
-0.150450001
 40
-0.150450001
 40
-0.150450001
 40
0.149551345
 40
0.149551345
 40
0.149551345
 40
0.149551345
 10
-1074.992874047431
 20
57.49547024889177
 30
0
 10
-1074.995878020909
 20
57.49547024889177
 30
0
 10
-1074.998872982546
 20
57.49547024889177
 30
0
 10
-1075.001859012967
 20
57.49547024889177
 30
0
  0
SPLINE
  5
1C2
100
AcDbEntity
  8
Widoczne (ISO)
  6
ByLayer
 62
  256
370
   -1
100
AcDbSpline
210
0
220
0
230
0
 70
    8
 71
    3
 72
   14
 73
   10
 74
    0
 42
1e-07
 43
1e-07
 40
0.4520262
 40
0.4520262
 40
0.4520262
 40
0.4520262
 40
0.649698208
 40
0.649698208
 40
0.649698208
 40
0.809795413
 40
0.809795413
 40
0.809795413
 40
0.9040506740000001
 40
0.9040506740000001
 40
0.9040506740000001
 40
0.9040506740000001
 10
-1075.001859012967
 20
57.49547024889178
 30
0
 10
-1075.659662053736
 20
57.49547024889175
 30
0
 10
-1076.384862232254
 20
57.2414768779229
 30
0
 10
-1076.907099004218
 20
56.81018104947804
 30
0
 10
-1077.330065556819
 20
56.46086878442496
 30
0
 10
-1077.657594546456
 20
55.99340910380118
 30
0
 10
-1077.838760011961
 20
55.45723416410279
 30
0
 10
-1077.945418951809
 20
55.14156776221938
 30
0
 10
-1077.99683855339
 20
54.80965445153338
 30
0
 10
-1077.99683855339
 20
54.49547024889177
 30
0
  0
SPLINE
  5
1C3
100
AcDbEntity
  8
Widoczne (ISO)
  6
ByLayer
 62
  256
370
   -1
100
AcDbSpline
210
0
220
0
230
0
 70
    8
 71
    3
 72
   14
 73
   10
 74
    0
 42
1e-07
 43
1e-07
 40
0.90405069
 40
0.90405069
 40
0.90405069
 40
0.90405069
 40
1.101559322
 40
1.101559322
 40
1.101559322
 40
1.261411335
 40
1.261411335
 40
1.261411335
 40
1.356075166
 40
1.356075166
 40
1.356075166
 40
1.356075166
 10
-1077.99683855339
 20
54.49547024889176
 30
0
 10
-1077.99683855339
 20
55.15383235631617
 30
0
 10
-1077.74298693389
 20
55.87961605353178
 30
0
 10
-1077.311712584707
 20
56.40260833714052
 30
0
 10
-1076.962664180256
 20
56.8258879095979
 30
0
 10
-1076.495843658475
 20
57.15376170312803
 30
0
 10
-1075.960017144444
 20
57.33573514812629
 30
0
 10
-1075.642702462365
 20
57.44349921790302
 30
0
 10
-1075.308836672668
 20
57.49547024889174
 30
0
 10
-1074.992874047431
 20
57.49547024889175
 30
0
  0
LINE
  5
1C4
100
AcDbEntity
  8
Widoczne (ISO)
  6
ByLayer
 62
  256
370
   -1
100
AcDbLine
 10
-1077.99683855339
 20
-57.50452975110824
 11
-1077.99683855339
 21
54.49547024889176
  0
ENDBLK
  5
99
330
97
100
AcDbEntity
  8
0
100
AcDbBlockEnd
  0
BLOCK
  5
9B
330
9A
100
AcDbEntity
  8
0
100
AcDbBlockBegin
  2
*I17
 70
    0
 10
0
 20
0
  3
*I17
  1

  0
MTEXT
  5
1C5
100
AcDbEntity
  8
Wymiar (ISO)
  6
ByLayer
 62
  256
370
   -1
100
AcDbMText
 10
205.3220020393718
 20
357.0039383632626
 30
0
 40
3.000000119209289
 41
51.83333539300619
 71
    1
 72
    5
  1
\fTahoma|b0|i0;\W1.;2156,003
  7
STANDARD
210
0
220
0
230
1
 50
0
 73
    1
 44
1
  0
HATCH
  5
1C6
100
AcDbEntity
  8
Wymiar (ISO)
  6
ByLayer
 62
  256
370
   -1
100
AcDbHatch
 10
0
 20
0
 30
0
210
0
220
0
230
1
  2
SOLID
 70
    1
 71
    0
 91
    1
 92
    0
 93
    3
 72
    1
 10
124.346809387207
 20
352.6943664550781
 11
121.846809387207
 21
352.1943664550781
 72
    1
 10
121.846809387207
 20
352.1943664550781
 11
124.346809387207
 21
351.6943664550781
 72
    1
 10
124.346809387207
 20
351.6943664550781
 11
124.346809387207
 21
352.6943664550781
 97
    0
 75
    0
 76
    1
 98
    0
  0
LINE
  5
1C7
100
AcDbEntity
  8
Wymiar (ISO)
  6
ByLayer
 62
  256
370
   -1
100
AcDbLine
 10
301.5137034034101
 20
361.4202117635751
 11
301.5137034034101
 21
350.6943756652561
  0
LINE
  5
1C8
100
AcDbEntity
  8
Wymiar (ISO)
  6
ByLayer
 62
  256
370
   -1
100
AcDbLine
 10
121.8468086859938
 20
361.4202117635751
 11
121.8468086859938
 21
350.6943756652561
  0
LINE
  5
1C9
100
AcDbEntity
  8
Wymiar (ISO)
  6
ByLayer
 62
  256
370
   -1
100
AcDbLine
 10
299.0137034034101
 20
352.1943756652561
 11
124.3468086859938
 21
352.1943756652561
  0
LINE
  5
1CA
100
AcDbEntity
  8
Wymiar (ISO)
  6
ByLayer
 62
  256
370
   -1
100
AcDbLine
 10
124.3468086859938
 20
351.6943756652561
 11
124.3468086859938
 21
352.694375665256
  0
HATCH
  5
1CB
100
AcDbEntity
  8
Wymiar (ISO)
  6
ByLayer
 62
  256
370
   -1
100
AcDbHatch
 10
0
 20
0
 30
0
210
0
220
0
230
1
  2
SOLID
 70
    1
 71
    0
 91
    1
 92
    0
 93
    3
 72
    1
 10
299.0137023925781
 20
351.6943664550781
 11
301.5137023925781
 21
352.1943664550781
 72
    1
 10
301.5137023925781
 20
352.1943664550781
 11
299.0137023925781
 21
352.6943664550781
 72
    1
 10
299.0137023925781
 20
352.6943664550781
 11
299.0137023925781
 21
351.6943664550781
 97
    0
 75
    0
 76
    1
 98
    0
  0
LINE
  5
1CC
100
AcDbEntity
  8
Wymiar (ISO)
  6
ByLayer
 62
  256
370
   -1
100
AcDbLine
 10
121.8468086859938
 20
352.1943756652561
 11
124.3468086859938
 21
351.6943756652561
  0
LINE
  5
1CD
100
AcDbEntity
  8
Wymiar (ISO)
  6
ByLayer
 62
  256
370
   -1
100
AcDbLine
 10
124.3468086859938
 20
352.694375665256
 11
121.8468086859938
 21
352.1943756652561
  0
LINE
  5
1CE
100
AcDbEntity
  8
Wymiar (ISO)
  6
ByLayer
 62
  256
370
   -1
100
AcDbLine
 10
124.3468086859938
 20
352.1943756652561
 11
121.8468086859938
 21
352.1943756652561
  0
LINE
  5
1CF
100
AcDbEntity
  8
Wymiar (ISO)
  6
ByLayer
 62
  256
370
   -1
100
AcDbLine
 10
299.0137034034101
 20
352.694375665256
 11
299.0137034034101
 21
351.6943756652561
  0
LINE
  5
1D0
100
AcDbEntity
  8
Wymiar (ISO)
  6
ByLayer
 62
  256
370
   -1
100
AcDbLine
 10
301.5137034034101
 20
352.1943756652561
 11
299.0137034034101
 21
352.694375665256
  0
LINE
  5
1D1
100
AcDbEntity
  8
Wymiar (ISO)
  6
ByLayer
 62
  256
370
   -1
100
AcDbLine
 10
299.0137034034101
 20
351.6943756652561
 11
301.5137034034101
 21
352.1943756652561
  0
LINE
  5
1D2
100
AcDbEntity
  8
Wymiar (ISO)
  6
ByLayer
 62
  256
370
   -1
100
AcDbLine
 10
299.0137034034101
 20
352.1943756652561
 11
301.5137034034101
 21
352.1943756652561
  0
ENDBLK
  5
9C
330
9A
100
AcDbEntity
  8
0
100
AcDbBlockEnd
  0
BLOCK
  5
9E
330
9D
100
AcDbEntity
  8
0
100
AcDbBlockBegin
  2
*I18
 70
    0
 10
0
 20
0
  3
*I18
  1

  0
MTEXT
  5
1D3
100
AcDbEntity
  8
Wymiar (ISO)
  6
ByLayer
 62
  256
370
   -1
100
AcDbMText
 10
306.0264718105282
 20
362.8295818622586
 30
0
 40
3.000000119209289
 41
40.6666682826157
 71
    1
 72
    5
  1
\fTahoma|b0|i0;\W1.;115
  7
STANDARD
210
0
220
0
230
1
 50
90
 73
    1
 44
1
  0
HATCH
  5
1D4
100
AcDbEntity
  8
Wymiar (ISO)
  6
ByLayer
 62
  256
370
   -1
100
AcDbHatch
 10
0
 20
0
 30
0
210
0
220
0
230
1
  2
SOLID
 70
    1
 71
    0
 91
    1
 92
    0
 93
    3
 72
    1
 10
309.5993957519531
 20
363.9202270507813
 11
310.0994262695313
 21
361.4202270507813
 72
    1
 10
310.0994262695313
 20
361.4202270507813
 11
310.5993957519531
 21
363.9202270507813
 72
    1
 10
310.5993957519531
 20
363.9202270507813
 11
309.5993957519531
 21
363.9202270507813
 97
    0
 75
    0
 76
    1
 98
    0
  0
LINE
  5
1D5
100
AcDbEntity
  8
Wymiar (ISO)
  6
ByLayer
 62
  256
370
   -1
100
AcDbLine
 10
301.5137034034101
 20
361.4202117635751
 11
311.5994055095325
 21
361.4202117635751
  0
LINE
  5
1D6
100
AcDbEntity
  8
Wymiar (ISO)
  6
ByLayer
 62
  256
370
   -1
100
AcDbLine
 10
310.0994055095325
 20
368.5035450969085
 11
310.0994055095325
 21
363.9202117635751
  0
LINE
  5
1D7
100
AcDbEntity
  8
Wymiar (ISO)
  6
ByLayer
 62
  256
370
   -1
100
AcDbLine
 10
310.5994055095325
 20
363.9202117635751
 11
309.5994055095325
 21
363.9202117635751
  0
LINE
  5
1D8
100
AcDbEntity
  8
Wymiar (ISO)
  6
ByLayer
 62
  256
370
   -1
100
AcDbLine
 10
310.0994055095325
 20
361.4202117635751
 11
310.5994055095325
 21
363.9202117635751
  0
HATCH
  5
1D9
100
AcDbEntity
  8
Wymiar (ISO)
  6
ByLayer
 62
  256
370
   -1
100
AcDbHatch
 10
0
 20
0
 30
0
210
0
220
0
230
1
  2
SOLID
 70
    1
 71
    0
 91
    1
 92
    0
 93
    3
 72
    1
 10
310.5993957519531
 20
368.5035400390625
 11
310.0994262695313
 21
371.0035400390625
 72
    1
 10
310.0994262695313
 20
371.0035400390625
 11
309.5993957519531
 21
368.5035400390625
 72
    1
 10
309.5993957519531
 20
368.5035400390625
 11
310.5993957519531
 21
368.5035400390625
 97
    0
 75
    0
 76
    1
 98
    0
  0
LINE
  5
1DA
100
AcDbEntity
  8
Wymiar (ISO)
  6
ByLayer
 62
  256
370
   -1
100
AcDbLine
 10
309.5994055095325
 20
363.9202117635751
 11
310.0994055095325
 21
361.4202117635751
  0
LINE
  5
1DB
100
AcDbEntity
  8
Wymiar (ISO)
  6
ByLayer
 62
  256
370
   -1
100
AcDbLine
 10
310.0994055095325
 20
363.9202117635751
 11
310.0994055095325
 21
361.4202117635751
  0
LINE
  5
1DC
100
AcDbEntity
  8
Wymiar (ISO)
  6
ByLayer
 62
  256
370
   -1
100
AcDbLine
 10
309.5994055095325
 20
368.5035450969085
 11
310.5994055095325
 21
368.5035450969085
  0
LINE
  5
1DD
100
AcDbEntity
  8
Wymiar (ISO)
  6
ByLayer
 62
  256
370
   -1
100
AcDbLine
 10
310.0994055095325
 20
371.0035450969085
 11
309.5994055095325
 21
368.5035450969085
  0
LINE
  5
1DE
100
AcDbEntity
  8
Wymiar (ISO)
  6
ByLayer
 62
  256
370
   -1
100
AcDbLine
 10
310.5994055095325
 20
368.5035450969085
 11
310.0994055095325
 21
371.0035450969085
  0
LINE
  5
1DF
100
AcDbEntity
  8
Wymiar (ISO)
  6
ByLayer
 62
  256
370
   -1
100
AcDbLine
 10
310.0994055095325
 20
368.5035450969085
 11
310.0994055095325
 21
371.0035450969085
  0
LINE
  5
1E0
100
AcDbEntity
  8
Wymiar (ISO)
  6
ByLayer
 62
  256
370
   -1
100
AcDbLine
 10
301.5137034034101
 20
371.0035450969085
 11
311.5994055095325
 21
371.0035450969085
  0
ENDBLK
  5
9F
330
9D
100
AcDbEntity
  8
0
100
AcDbBlockEnd
  0
BLOCK
  5
A1
330
A0
100
AcDbEntity
  8
0
100
AcDbBlockBegin
  2
*I19
 70
    0
 10
0
 20
0
  3
*I19
  1

  0
LINE
  5
1E1
100
AcDbEntity
  8
Symbol (ISO)
  6
ByLayer
 62
  256
370
   -1
100
AcDbLine
 10
49.27958993288483
 20
82.50480377787154
 11
39.94830165686732
 21
82.50480377787154
  0
HATCH
  5
1E2
100
AcDbEntity
  8
Symbol (ISO)
  6
ByLayer
 62
  256
370
   -1
100
AcDbHatch
 10
0
 20
0
 30
0
210
0
220
0
230
1
  2
SOLID
 70
    1
 71
    0
 91
    1
 92
    0
 93
    3
 72
    1
 10
60.90229797363281
 20
65.13748931884766
 11
62.75080871582031
 21
63.38163375854492
 72
    1
 10
62.75080871582031
 20
63.38163375854492
 11
61.71981811523437
 21
65.71338653564453
 72
    1
 10
61.71981811523437
 20
65.71338653564453
 11
60.90229797363281
 21
65.13748931884766
 97
    0
 75
    0
 76
    1
 98
    0
  0
LINE
  5
1E3
100
AcDbEntity
  8
Symbol (ISO)
  6
ByLayer
 62
  256
370
   -1
100
AcDbLine
 10
61.31105896818626
 20
65.42543834749522
 11
49.27958993288483
 21
82.50480377787154
  0
LINE
  5
1E4
100
AcDbEntity
  8
Symbol (ISO)
  6
ByLayer
 62
  256
370
   -1
100
AcDbLine
 10
61.7198195682776
 20
65.71338759964387
 11
60.90229836809491
 21
65.13748909534658
  0
LINE
  5
1E5
100
AcDbEntity
  8
Symbol (ISO)
  6
ByLayer
 62
  256
370
   -1
100
AcDbLine
 10
62.75080522892948
 20
63.38163534703848
 11
61.7198195682776
 21
65.71338759964387
  0
LINE
  5
1E6
100
AcDbEntity
  8
Symbol (ISO)
  6
ByLayer
 62
  256
370
   -1
100
AcDbLine
 10
60.90229836809491
 20
65.13748909534658
 11
62.75080522892948
 21
63.38163534703848
  0
LINE
  5
1E7
100
AcDbEntity
  8
Symbol (ISO)
  6
ByLayer
 62
  256
370
   -1
100
AcDbLine
 10
61.31105896818626
 20
65.42543834749522
 11
62.75080522892948
 21
63.38163534703848
  0
MTEXT
  5
1E8
100
AcDbEntity
  8
Symbol (ISO)
  6
ByLayer
 62
  256
370
   -1
100
AcDbMText
 10
27.49359023709038
 20
64.72848092877669
 30
0
 40
3.000000119209289
 41
48.33333679678992
 71
    1
 72
    5
  1
\fTahoma|b0|i0;\W1.;osłony
  7
STANDARD
210
0
220
0
230
1
 50
0
 73
    1
 44
1
  0
MTEXT
  5
1E9
100
AcDbEntity
  8
Symbol (ISO)
  6
ByLayer
 62
  256
370
   -1
100
AcDbMText
 10
20.86673974671378
 20
69.66790204608245
 30
0
 40
3.000000119209289
 41
54.00000368862969
 71
    1
 72
    5
  1
\fTahoma|b0|i0;\W1.;podstawy 
  7
STANDARD
210
0
220
0
230
1
 50
0
 73
    1
 44
1
  0
MTEXT
  5
1EA
100
AcDbEntity
  8
Symbol (ISO)
  6
ByLayer
 62
  256
370
   -1
100
AcDbMText
 10
23.30471115525457
 20
74.6073231633882
 30
0
 40
3.000000119209289
 41
52.58333542280796
 71
    1
 72
    5
  1
\fTahoma|b0|i0;\W1.;do płyty 
  7
STANDARD
210
0
220
0
230
1
 50
0
 73
    1
 44
1
  0
MTEXT
  5
1EB
100
AcDbEntity
  8
Symbol (ISO)
  6
ByLayer
 62
  256
370
   -1
100
AcDbMText
 10
17.83955650742742
 20
79.78985612952513
 30
0
 40
3.000000119209289
 41
56.33333711468151
 71
    1
 72
    5
  1
\fTahoma|b0|i0;\W1.;dopasować 
  7
STANDARD
210
0
220
0
230
1
 50
0
 73
    1
 44
1
  0
MTEXT
  5
1EC
100
AcDbEntity
  8
Symbol (ISO)
  6
ByLayer
 62
  256
370
   -1
100
AcDbMText
 10
13.66782337566353
 20
84.48616539799971
 30
0
 40
3.000000119209289
 41
64.25000409592853
 71
    1
 72
    5
  1
\fTahoma|b0|i0;\W1.;Kształt bandy 
  7
STANDARD
210
0
220
0
230
1
 50
0
 73
    1
 44
1
  0
ENDBLK
  5
A2
330
A0
100
AcDbEntity
  8
0
100
AcDbBlockEnd
  0
BLOCK
  5
A4
330
A3
100
AcDbEntity
  8
0
100
AcDbBlockBegin
  2
*I20
 70
    0
 10
0
 20
0
  3
*I20
  1

  0
MTEXT
  5
1ED
100
AcDbEntity
  8
Wymiar (ISO)
  6
ByLayer
 62
  256
370
   -1
100
AcDbMText
 10
328.0132167268396
 20
241.1791313380445
 30
0
 40
3.000000119209289
 41
39.00000154972165
 71
    1
 72
    5
  1
\fTahoma|b0|i0;\W1.;15
  7
STANDARD
210
0
220
0
230
1
 50
0
 73
    1
 44
1
  0
LINE
  5
1EE
100
AcDbEntity
  8
Wymiar (ISO)
  6
ByLayer
 62
  256
370
   -1
100
AcDbLine
 10
327.0644155600749
 20
237.1061976390402
 11
329.4298676586525
 21
237.1061976390402
  0
HATCH
  5
1EF
100
AcDbEntity
  8
Wymiar (ISO)
  6
ByLayer
 62
  256
370
   -1
100
AcDbHatch
 10
0
 20
0
 30
0
210
0
220
0
230
1
  2
SOLID
 70
    1
 71
    0
 91
    1
 92
    0
 93
    3
 72
    1
 10
331.9298706054687
 20
236.606201171875
 11
334.4298706054687
 21
237.1061859130859
 72
    1
 10
334.4298706054687
 20
237.1061859130859
 11
331.9298706054687
 21
237.606201171875
 72
    1
 10
331.9298706054687
 20
237.606201171875
 11
331.9298706054687
 21
236.606201171875
 97
    0
 75
    0
 76
    1
 98
    0
  0
LINE
  5
1F0
100
AcDbEntity
  8
Wymiar (ISO)
  6
ByLayer
 62
  256
370
   -1
100
AcDbLine
 10
335.6798676586525
 20
234.5993534546928
 11
335.6798676586525
 21
238.6061976390402
  0
LINE
  5
1F1
100
AcDbEntity
  8
Wymiar (ISO)
  6
ByLayer
 62
  256
370
   -1
100
AcDbLine
 10
334.4298676586525
 20
236.6279031766672
 11
334.4298676586525
 21
238.6061976390402
  0
LINE
  5
1F2
100
AcDbEntity
  8
Wymiar (ISO)
  6
ByLayer
 62
  256
370
   -1
100
AcDbLine
 10
331.9298676586525
 20
237.1061976390402
 11
329.4298676586525
 21
237.1061976390402
  0
LINE
  5
1F3
100
AcDbEntity
  8
Wymiar (ISO)
  6
ByLayer
 62
  256
370
   -1
100
AcDbLine
 10
338.1798676586525
 20
237.1061976390402
 11
340.6798676586525
 21
237.1061976390402
  0
HATCH
  5
1F4
100
AcDbEntity
  8
Wymiar (ISO)
  6
ByLayer
 62
  256
370
   -1
100
AcDbHatch
 10
0
 20
0
 30
0
210
0
220
0
230
1
  2
SOLID
 70
    1
 71
    0
 91
    1
 92
    0
 93
    3
 72
    1
 10
338.1798706054687
 20
237.606201171875
 11
335.6798706054687
 21
237.1061859130859
 72
    1
 10
335.6798706054687
 20
237.1061859130859
 11
338.1798706054687
 21
236.606201171875
 72
    1
 10
338.1798706054687
 20
236.606201171875
 11
338.1798706054687
 21
237.606201171875
 97
    0
 75
    0
 76
    1
 98
    0
  0
LINE
  5
1F5
100
AcDbEntity
  8
Wymiar (ISO)
  6
ByLayer
 62
  256
370
   -1
100
AcDbLine
 10
335.6798676586525
 20
237.1061976390402
 11
334.4298676586525
 21
237.1061976390402
  0
LINE
  5
1F6
100
AcDbEntity
  8
Wymiar (ISO)
  6
ByLayer
 62
  256
370
   -1
100
AcDbLine
 10
331.9298676586525
 20
237.6061976390402
 11
331.9298676586525
 21
236.6061976390402
  0
LINE
  5
1F7
100
AcDbEntity
  8
Wymiar (ISO)
  6
ByLayer
 62
  256
370
   -1
100
AcDbLine
 10
334.4298676586525
 20
237.1061976390402
 11
331.9298676586525
 21
237.6061976390402
  0
LINE
  5
1F8
100
AcDbEntity
  8
Wymiar (ISO)
  6
ByLayer
 62
  256
370
   -1
100
AcDbLine
 10
331.9298676586525
 20
236.6061976390402
 11
334.4298676586525
 21
237.1061976390402
  0
LINE
  5
1F9
100
AcDbEntity
  8
Wymiar (ISO)
  6
ByLayer
 62
  256
370
   -1
100
AcDbLine
 10
331.9298676586525
 20
237.1061976390402
 11
334.4298676586525
 21
237.1061976390402
  0
LINE
  5
1FA
100
AcDbEntity
  8
Wymiar (ISO)
  6
ByLayer
 62
  256
370
   -1
100
AcDbLine
 10
338.1798676586525
 20
236.6061976390402
 11
338.1798676586525
 21
237.6061976390402
  0
LINE
  5
1FB
100
AcDbEntity
  8
Wymiar (ISO)
  6
ByLayer
 62
  256
370
   -1
100
AcDbLine
 10
335.6798676586525
 20
237.1061976390402
 11
338.1798676586525
 21
236.6061976390402
  0
LINE
  5
1FC
100
AcDbEntity
  8
Wymiar (ISO)
  6
ByLayer
 62
  256
370
   -1
100
AcDbLine
 10
338.1798676586525
 20
237.6061976390402
 11
335.6798676586525
 21
237.1061976390402
  0
LINE
  5
1FD
100
AcDbEntity
  8
Wymiar (ISO)
  6
ByLayer
 62
  256
370
   -1
100
AcDbLine
 10
338.1798676586525
 20
237.1061976390402
 11
335.6798676586525
 21
237.1061976390402
  0
ENDBLK
  5
A5
330
A3
100
AcDbEntity
  8
0
100
AcDbBlockEnd
  0
BLOCK
  5
A7
330
A6
100
AcDbEntity
  8
0
100
AcDbBlockBegin
  2
*I21
 70
    0
 10
0
 20
0
  3
*I21
  1

  0
ENDBLK
  5
A8
330
A6
100
AcDbEntity
  8
0
100
AcDbBlockEnd
  0
BLOCK
  5
AA
330
A9
100
AcDbEntity
  8
0
100
AcDbBlockBegin
  2
*I22
 70
    0
 10
0
 20
0
  3
*I22
  1

  0
MTEXT
  5
1FE
100
AcDbEntity
  8
Wymiar (ISO)
  6
ByLayer
 62
  256
370
   -1
100
AcDbMText
 10
213.4153476903003
 20
239.5943745996312
 30
0
 40
3.000000119209289
 41
37.33333481682759
 71
    1
 72
    5
  1
\fTahoma|b0|i0;\W1.;3
  7
STANDARD
210
0
220
0
230
1
 50
90
 73
    1
 44
1
  0
LINE
  5
1FF
100
AcDbEntity
  8
Wymiar (ISO)
  6
ByLayer
 62
  256
370
   -1
100
AcDbLine
 10
217.5417661271777
 20
232.0993534546927
 11
217.5417661271777
 21
234.5993534546927
  0
HATCH
  5
200
100
AcDbEntity
  8
Wymiar (ISO)
  6
ByLayer
 62
  256
370
   -1
100
AcDbHatch
 10
0
 20
0
 30
0
210
0
220
0
230
1
  2
SOLID
 70
    1
 71
    0
 91
    1
 92
    0
 93
    3
 72
    1
 10
218.0417633056641
 20
232.099365234375
 11
217.5417785644531
 21
234.599365234375
 72
    1
 10
217.5417785644531
 20
234.599365234375
 11
217.041763305664
 21
232.099365234375
 72
    1
 10
217.041763305664
 20
232.099365234375
 11
218.0417633056641
 21
232.099365234375
 97
    0
 75
    0
 76
    1
 98
    0
  0
LINE
  5
201
100
AcDbEntity
  8
Wymiar (ISO)
  6
ByLayer
 62
  256
370
   -1
100
AcDbLine
 10
218.0417661271778
 20
232.0993534546927
 11
217.5417661271777
 21
234.5993534546927
  0
LINE
  5
202
100
AcDbEntity
  8
Wymiar (ISO)
  6
ByLayer
 62
  256
370
   -1
100
AcDbLine
 10
217.5417661271777
 20
234.5993534546927
 11
217.0417661271777
 21
232.0993534546927
  0
LINE
  5
203
100
AcDbEntity
  8
Wymiar (ISO)
  6
ByLayer
 62
  256
370
   -1
100
AcDbLine
 10
217.0417661271777
 20
232.0993534546927
 11
218.0417661271778
 21
232.0993534546927
  0
LINE
  5
204
100
AcDbEntity
  8
Wymiar (ISO)
  6
ByLayer
 62
  256
370
   -1
100
AcDbLine
 10
217.5417661271777
 20
237.3493534546927
 11
217.5417661271777
 21
234.8493534546927
  0
HATCH
  5
205
100
AcDbEntity
  8
Wymiar (ISO)
  6
ByLayer
 62
  256
370
   -1
100
AcDbHatch
 10
0
 20
0
 30
0
210
0
220
0
230
1
  2
SOLID
 70
    1
 71
    0
 91
    1
 92
    0
 93
    3
 72
    1
 10
217.041763305664
 20
237.349365234375
 11
217.5417785644531
 21
234.849365234375
 72
    1
 10
217.5417785644531
 20
234.849365234375
 11
218.0417633056641
 21
237.349365234375
 72
    1
 10
218.0417633056641
 20
237.349365234375
 11
217.041763305664
 21
237.349365234375
 97
    0
 75
    0
 76
    1
 98
    0
  0
LINE
  5
206
100
AcDbEntity
  8
Wymiar (ISO)
  6
ByLayer
 62
  256
370
   -1
100
AcDbLine
 10
217.0417661271777
 20
237.3493534546927
 11
217.5417661271777
 21
234.8493534546927
  0
LINE
  5
207
100
AcDbEntity
  8
Wymiar (ISO)
  6
ByLayer
 62
  256
370
   -1
100
AcDbLine
 10
217.5417661271777
 20
234.8493534546927
 11
218.0417661271778
 21
237.3493534546927
  0
LINE
  5
208
100
AcDbEntity
  8
Wymiar (ISO)
  6
ByLayer
 62
  256
370
   -1
100
AcDbLine
 10
218.0417661271778
 20
237.3493534546927
 11
217.0417661271777
 21
237.3493534546927
  0
LINE
  5
209
100
AcDbEntity
  8
Wymiar (ISO)
  6
ByLayer
 62
  256
370
   -1
100
AcDbLine
 10
217.5417661271777
 20
234.5993534546927
 11
217.5417661271777
 21
234.8493534546927
  0
LINE
  5
20A
100
AcDbEntity
  8
Wymiar (ISO)
  6
ByLayer
 62
  256
370
   -1
100
AcDbLine
 10
217.5417661271777
 20
232.0993534546927
 11
217.5417661271777
 21
229.5993534546927
  0
LINE
  5
20B
100
AcDbEntity
  8
Wymiar (ISO)
  6
ByLayer
 62
  256
370
   -1
100
AcDbLine
 10
217.5417661271777
 20
237.3493534546927
 11
217.5417661271777
 21
239.8493534546927
  0
LINE
  5
20C
100
AcDbEntity
  8
Wymiar (ISO)
  6
ByLayer
 62
  256
370
   -1
100
AcDbLine
 10
217.5417661271777
 20
242.1535898266176
 11
217.5417661271777
 21
239.8493534546927
  0
LINE
  5
20D
100
AcDbEntity
  8
Wymiar (ISO)
  6
ByLayer
 62
  256
370
   -1
100
AcDbLine
 10
203.4525374736299
 20
234.8493534546927
 11
219.0417661271777
 21
234.8493534546927
  0
LINE
  5
20E
100
AcDbEntity
  8
Wymiar (ISO)
  6
ByLayer
 62
  256
370
   -1
100
AcDbLine
 10
203.4525374736299
 20
234.5993534546927
 11
219.0417661271777
 21
234.5993534546927
  0
ENDBLK
  5
AB
330
A9
100
AcDbEntity
  8
0
100
AcDbBlockEnd
  0
BLOCK
  5
AD
330
AC
100
AcDbEntity
  8
0
100
AcDbBlockBegin
  2
*I23
 70
    0
 10
0
 20
0
  3
*I23
  1

  0
MTEXT
  5
20F
100
AcDbEntity
  8
Wymiar (ISO)
  6
ByLayer
 62
  256
370
   -1
100
AcDbMText
 10
213.4177789637607
 20
165.9623898358498
 30
0
 40
3.000000119209289
 41
43.66666840182516
 71
    1
 72
    5
  1
\fTahoma|b0|i0;\W1.;1550
  7
STANDARD
210
0
220
0
230
1
 50
90
 73
    1
 44
1
  0
LINE
  5
210
100
AcDbEntity
  8
Wymiar (ISO)
  6
ByLayer
 62
  256
370
   -1
100
AcDbLine
 10
217.5417661271777
 20
232.0993534546927
 11
217.5417661271777
 21
234.5993534546927
  0
HATCH
  5
211
100
AcDbEntity
  8
Wymiar (ISO)
  6
ByLayer
 62
  256
370
   -1
100
AcDbHatch
 10
0
 20
0
 30
0
210
0
220
0
230
1
  2
SOLID
 70
    1
 71
    0
 91
    1
 92
    0
 93
    3
 72
    1
 10
218.0417633056641
 20
232.099365234375
 11
217.5417785644531
 21
234.599365234375
 72
    1
 10
217.5417785644531
 20
234.599365234375
 11
217.041763305664
 21
232.099365234375
 72
    1
 10
217.041763305664
 20
232.099365234375
 11
218.0417633056641
 21
232.099365234375
 97
    0
 75
    0
 76
    1
 98
    0
  0
LINE
  5
212
100
AcDbEntity
  8
Wymiar (ISO)
  6
ByLayer
 62
  256
370
   -1
100
AcDbLine
 10
218.0417661271778
 20
232.0993534546927
 11
217.5417661271777
 21
234.5993534546927
  0
LINE
  5
213
100
AcDbEntity
  8
Wymiar (ISO)
  6
ByLayer
 62
  256
370
   -1
100
AcDbLine
 10
217.5417661271777
 20
234.5993534546927
 11
217.0417661271777
 21
232.0993534546927
  0
LINE
  5
214
100
AcDbEntity
  8
Wymiar (ISO)
  6
ByLayer
 62
  256
370
   -1
100
AcDbLine
 10
217.0417661271777
 20
232.0993534546927
 11
218.0417661271778
 21
232.0993534546927
  0
LINE
  5
215
100
AcDbEntity
  8
Wymiar (ISO)
  6
ByLayer
 62
  256
370
   -1
100
AcDbLine
 10
217.5417661271777
 20
107.9326867880261
 11
217.5417661271777
 21
105.4326867880261
  0
HATCH
  5
216
100
AcDbEntity
  8
Wymiar (ISO)
  6
ByLayer
 62
  256
370
   -1
100
AcDbHatch
 10
0
 20
0
 30
0
210
0
220
0
230
1
  2
SOLID
 70
    1
 71
    0
 91
    1
 92
    0
 93
    3
 72
    1
 10
217.041763305664
 20
107.9326782226562
 11
217.5417785644531
 21
105.4326782226562
 72
    1
 10
217.5417785644531
 20
105.4326782226562
 11
218.0417633056641
 21
107.9326782226562
 72
    1
 10
218.0417633056641
 20
107.9326782226562
 11
217.041763305664
 21
107.9326782226562
 97
    0
 75
    0
 76
    1
 98
    0
  0
LINE
  5
217
100
AcDbEntity
  8
Wymiar (ISO)
  6
ByLayer
 62
  256
370
   -1
100
AcDbLine
 10
217.0417661271777
 20
107.9326867880261
 11
217.5417661271777
 21
105.4326867880261
  0
LINE
  5
218
100
AcDbEntity
  8
Wymiar (ISO)
  6
ByLayer
 62
  256
370
   -1
100
AcDbLine
 10
217.5417661271777
 20
105.4326867880261
 11
218.0417661271778
 21
107.9326867880261
  0
LINE
  5
219
100
AcDbEntity
  8
Wymiar (ISO)
  6
ByLayer
 62
  256
370
   -1
100
AcDbLine
 10
218.0417661271778
 20
107.9326867880261
 11
217.0417661271777
 21
107.9326867880261
  0
LINE
  5
21A
100
AcDbEntity
  8
Wymiar (ISO)
  6
ByLayer
 62
  256
370
   -1
100
AcDbLine
 10
217.5417661271777
 20
232.0993534546927
 11
217.5417661271777
 21
107.9326867880261
  0
LINE
  5
21B
100
AcDbEntity
  8
Wymiar (ISO)
  6
ByLayer
 62
  256
370
   -1
100
AcDbLine
 10
203.4525374736299
 20
234.5993534546927
 11
219.0417661271777
 21
234.5993534546927
  0
LINE
  5
21C
100
AcDbEntity
  8
Wymiar (ISO)
  6
ByLayer
 62
  256
370
   -1
100
AcDbLine
 10
133.9373011200726
 20
105.4326867880261
 11
219.0417661271778
 21
105.4326867880261
  0
ENDBLK
  5
AE
330
AC
100
AcDbEntity
  8
0
100
AcDbBlockEnd
  0
BLOCK
  5
B0
330
AF
100
AcDbEntity
  8
0
100
AcDbBlockBegin
  2
*I24
 70
    0
 10
0
 20
0
  3
*I24
  1

  0
MTEXT
  5
21D
100
AcDbEntity
  8
Wymiar (ISO)
  6
ByLayer
 62
  256
370
   -1
100
AcDbMText
 10
196.7219521651288
 20
228.5517141236939
 30
0
 40
3.000000119209289
 41
39.33333489630026
 71
    1
 72
    5
  1
\fTahoma|b0|i0;\W1.;7%%D
  7
STANDARD
210
0
220
0
230
1
 50
3.500000000001196
 73
    1
 44
1
  0
LINE
  5
21E
100
AcDbEntity
  8
Wymiar (ISO)
  6
ByLayer
 62
  256
370
   -1
100
AcDbLine
 10
200.8528990854482
 20
224.7187749505335
 11
203.3525374736298
 21
224.7612946909971
  0
HATCH
  5
21F
100
AcDbEntity
  8
Wymiar (ISO)
  6
ByLayer
 62
  256
370
   -1
100
AcDbHatch
 10
0
 20
0
 30
0
210
0
220
0
230
1
  2
SOLID
 70
    1
 71
    0
 91
    1
 92
    0
 93
    3
 72
    1
 10
200.8613891601562
 20
224.2188415527344
 11
203.3525390625
 21
224.7612915039062
 72
    1
 10
203.3525390625
 20
224.7612915039062
 11
200.8444061279297
 21
225.2186889648438
 72
    1
 10
200.8444061279297
 20
225.2186889648438
 11
200.8613891601562
 21
224.2188415527344
 97
    0
 75
    0
 76
    1
 98
    0
  0
LINE
  5
220
100
AcDbEntity
  8
Wymiar (ISO)
  6
ByLayer
 62
  256
370
   -1
100
AcDbLine
 10
200.861403033541
 20
224.2188472728972
 11
203.3525374736298
 21
224.7612946909971
  0
LINE
  5
221
100
AcDbEntity
  8
Wymiar (ISO)
  6
ByLayer
 62
  256
370
   -1
100
AcDbLine
 10
203.3525374736298
 20
224.7612946909971
 11
200.8443951373556
 21
225.2187026281698
  0
LINE
  5
222
100
AcDbEntity
  8
Wymiar (ISO)
  6
ByLayer
 62
  256
370
   -1
100
AcDbLine
 10
200.8443951373556
 20
225.2187026281698
 11
200.861403033541
 21
224.2188472728972
  0
LINE
  5
223
100
AcDbEntity
  8
Wymiar (ISO)
  6
ByLayer
 62
  256
370
   -1
100
AcDbLine
 10
196.8819049339842
 20
224.4758985436276
 11
194.3957166184476
 21
224.2134720592754
  0
HATCH
  5
224
100
AcDbEntity
  8
Wymiar (ISO)
  6
ByLayer
 62
  256
370
   -1
100
AcDbHatch
 10
0
 20
0
 30
0
210
0
220
0
230
1
  2
SOLID
 70
    1
 71
    0
 91
    1
 92
    0
 93
    3
 72
    1
 10
196.8294067382812
 20
224.97314453125
 11
194.3957214355469
 21
224.2134704589844
 72
    1
 10
194.3957214355469
 20
224.2134704589844
 11
196.9343872070312
 21
223.9786529541015
 72
    1
 10
196.9343872070312
 20
223.9786529541015
 11
196.8294067382812
 21
224.97314453125
 97
    0
 75
    0
 76
    1
 98
    0
  0
LINE
  5
225
100
AcDbEntity
  8
Wymiar (ISO)
  6
ByLayer
 62
  256
370
   -1
100
AcDbLine
 10
196.8294196371137
 20
224.9731362067349
 11
194.3957166184476
 21
224.2134720592754
  0
LINE
  5
226
100
AcDbEntity
  8
Wymiar (ISO)
  6
ByLayer
 62
  256
370
   -1
100
AcDbLine
 10
194.3957166184476
 20
224.2134720592754
 11
196.9343902308546
 21
223.9786608805203
  0
LINE
  5
227
100
AcDbEntity
  8
Wymiar (ISO)
  6
ByLayer
 62
  256
370
   -1
100
AcDbLine
 10
196.9343902308546
 20
223.9786608805203
 11
196.8294196371137
 21
224.9731362067349
  0
ARC
  5
228
100
AcDbEntity
  8
Wymiar (ISO)
  6
ByLayer
 62
  256
370
   -1
100
AcDbCircle
 10
203.3525374736298
 20
151.2660201213913
 40
73.49527456960574
100
AcDbArc
 50
91.94905531407539
 51
95.05094468592723
  0
LINE
  5
229
100
AcDbEntity
  8
Wymiar (ISO)
  6
ByLayer
 62
  256
370
   -1
100
AcDbLine
 10
193.3187681563703
 20
232.9845134195034
 11
194.5785206335554
 21
222.7246528318135
  0
ENDBLK
  5
B1
330
AF
100
AcDbEntity
  8
0
100
AcDbBlockEnd
  0
BLOCK
  5
B3
330
B2
100
AcDbEntity
  8
0
100
AcDbBlockBegin
  2
*I25
 70
    0
 10
0
 20
0
  3
*I25
  1

  0
MTEXT
  5
22A
100
AcDbEntity
  8
Wymiar (ISO)
  6
ByLayer
 62
  256
370
   -1
100
AcDbMText
 10
181.9040134506905
 20
225.8263019953765
 30
0
 40
3.000000119209289
 41
41.33333497577313
 71
    1
 72
    5
  1
\fTahoma|b0|i0;\W1.;14%%D
  7
STANDARD
210
0
220
0
230
1
 50
14.00000000000155
 73
    1
 44
1
  0
LINE
  5
22B
100
AcDbEntity
  8
Wymiar (ISO)
  6
ByLayer
 62
  256
370
   -1
100
AcDbLine
 10
191.9213478081295
 20
223.8547843940386
 11
194.3971714595125
 21
224.2016233296448
  0
HATCH
  5
22C
100
AcDbEntity
  8
Wymiar (ISO)
  6
ByLayer
 62
  256
370
   -1
100
AcDbHatch
 10
0
 20
0
 30
0
210
0
220
0
230
1
  2
SOLID
 70
    1
 71
    0
 91
    1
 92
    0
 93
    3
 72
    1
 10
191.99072265625
 20
223.359619140625
 11
194.3971557617187
 21
224.2016296386719
 72
    1
 10
194.3971557617187
 20
224.2016296386719
 11
191.8519744873047
 21
224.3499603271484
 72
    1
 10
191.8519744873047
 20
224.3499603271484
 11
191.99072265625
 21
223.359619140625
 97
    0
 75
    0
 76
    1
 98
    0
  0
LINE
  5
22D
100
AcDbEntity
  8
Wymiar (ISO)
  6
ByLayer
 62
  256
370
   -1
100
AcDbLine
 10
191.9907155952508
 20
223.359619663762
 11
194.3971714595125
 21
224.2016233296448
  0
LINE
  5
22E
100
AcDbEntity
  8
Wymiar (ISO)
  6
ByLayer
 62
  256
370
   -1
100
AcDbLine
 10
194.3971714595125
 20
224.2016233296448
 11
191.8519800210083
 21
224.3499491243153
  0
LINE
  5
22F
100
AcDbEntity
  8
Wymiar (ISO)
  6
ByLayer
 62
  256
370
   -1
100
AcDbLine
 10
191.8519800210083
 20
224.3499491243153
 11
191.9907155952508
 21
223.359619663762
  0
LINE
  5
230
100
AcDbEntity
  8
Wymiar (ISO)
  6
ByLayer
 62
  256
370
   -1
100
AcDbLine
 10
179.3673182685066
 20
220.7247132812899
 11
177.0184647180407
 21
219.8686250857958
  0
HATCH
  5
231
100
AcDbEntity
  8
Wymiar (ISO)
  6
ByLayer
 62
  256
370
   -1
100
AcDbHatch
 10
0
 20
0
 30
0
210
0
220
0
230
1
  2
SOLID
 70
    1
 71
    0
 91
    1
 92
    0
 93
    3
 72
    1
 10
179.1961059570312
 20
221.1944732666016
 11
177.0184631347656
 21
219.8686218261719
 72
    1
 10
177.0184631347656
 20
219.8686218261719
 11
179.5385437011718
 21
220.2549438476562
 72
    1
 10
179.5385437011718
 20
220.2549438476562
 11
179.1961059570312
 21
221.1944732666016
 97
    0
 75
    0
 76
    1
 98
    0
  0
LINE
  5
232
100
AcDbEntity
  8
Wymiar (ISO)
  6
ByLayer
 62
  256
370
   -1
100
AcDbLine
 10
179.1961006294077
 20
221.194483991383
 11
177.0184647180407
 21
219.8686250857958
  0
LINE
  5
233
100
AcDbEntity
  8
Wymiar (ISO)
  6
ByLayer
 62
  256
370
   -1
100
AcDbLine
 10
177.0184647180407
 20
219.8686250857958
 11
179.5385359076053
 21
220.2549425711967
  0
LINE
  5
234
100
AcDbEntity
  8
Wymiar (ISO)
  6
ByLayer
 62
  256
370
   -1
100
AcDbLine
 10
179.5385359076053
 20
220.2549425711967
 11
179.1961006294077
 21
221.194483991383
  0
ARC
  5
235
100
AcDbEntity
  8
Wymiar (ISO)
  6
ByLayer
 62
  256
370
   -1
100
AcDbCircle
 10
203.3525374736352
 20
151.2660201213475
 40
73.48333685812776
100
AcDbArc
 50
98.94937197776677
 51
109.0506280222363
  0
LINE
  5
236
100
AcDbEntity
  8
Wymiar (ISO)
  6
ByLayer
 62
  256
370
   -1
100
AcDbLine
 10
193.3187681563703
 20
232.9845134195034
 11
194.5799754746204
 21
222.7128041021828
  0
LINE
  5
237
100
AcDbEntity
  8
Wymiar (ISO)
  6
ByLayer
 62
  256
370
   -1
100
AcDbLine
 10
173.8473211824179
 20
228.129736433021
 11
177.5560166423588
 21
218.46825444605
  0
ENDBLK
  5
B4
330
B2
100
AcDbEntity
  8
0
100
AcDbBlockEnd
  0
BLOCK
  5
B6
330
B5
100
AcDbEntity
  8
0
100
AcDbBlockBegin
  2
*I26
 70
    0
 10
0
 20
0
  3
*I26
  1

  0
LINE
  5
238
100
AcDbEntity
  8
Linia przekroju (ISO)
  6
CONTINUOUS
 62
  256
370
   -1
100
AcDbLine
 10
190.5823312046181
 20
235.8420547664017
 11
191.7143800213935
 21
235.9810528832902
  0
LINE
  5
239
100
AcDbEntity
  8
Linia przekroju (ISO)
  6
CONTINUOUS
 62
  256
370
   -1
100
AcDbLine
 10
192.0519758628429
 20
236.0225044404452
 11
192.4570908725821
 21
236.0722463090312
  0
LINE
  5
23A
100
AcDbEntity
  8
Linia przekroju (ISO)
  6
CONTINUOUS
 62
  256
370
   -1
100
AcDbLine
 10
192.7946867140315
 20
236.1136978661862
 11
193.926735530807
 21
236.2526959830747
  0
LINE
  5
23B
100
AcDbEntity
  8
Linia przekroju (ISO)
  6
CONTINUOUS
 62
  256
370
   -1
100
AcDbLine
 10
194.2643313722564
 20
236.2941475402297
 11
194.6694463819956
 21
236.3438894088157
  0
LINE
  5
23C
100
AcDbEntity
  8
Linia przekroju (ISO)
  6
CONTINUOUS
 62
  256
370
   35
100
AcDbLine
 10
190.5823312046181
 20
235.8420547664017
 11
192.0800534848497
 21
236.0259519389345
  0
LINE
  5
23D
100
AcDbEntity
  8
Linia przekroju (ISO)
  6
CONTINUOUS
 62
  256
370
   35
100
AcDbLine
 10
193.5093199432132
 20
236.201443793438
 11
195.0070422234449
 21
236.3853409659708
  0
LINE
  5
23E
100
AcDbEntity
  8
Linia przekroju (ISO)
  6
CONTINUOUS
 62
  256
370
   -1
100
AcDbLine
 10
191.026518986221
 20
238.4153687317715
 11
191.3311923447339
 21
235.9340033526681
  0
HATCH
  5
23F
100
AcDbEntity
  8
Linia przekroju (ISO)
  6
CONTINUOUS
 62
  256
370
   -1
100
AcDbHatch
 10
0
 20
0
 30
0
210
0
220
0
230
1
  2
SOLID
 70
    1
 71
    0
 91
    1
 92
    0
 93
    3
 72
    1
 10
190.5302429199219
 20
238.3544311523437
 11
191.3311920166015
 21
235.9340057373047
 72
    1
 10
191.3311920166015
 20
235.9340057373047
 11
191.5227966308593
 21
238.476303100586
 72
    1
 10
191.5227966308593
 20
238.476303100586
 11
190.5302429199219
 21
238.3544311523437
 97
    0
 75
    0
 76
    1
 98
    0
  0
LINE
  5
240
100
AcDbEntity
  8
Linia przekroju (ISO)
  6
CONTINUOUS
 62
  256
370
   -1
100
AcDbLine
 10
190.5302459104003
 20
238.3544340600689
 11
191.3311923447339
 21
235.9340033526681
  0
LINE
  5
241
100
AcDbEntity
  8
Linia przekroju (ISO)
  6
CONTINUOUS
 62
  256
370
   -1
100
AcDbLine
 10
191.3311923447339
 20
235.9340033526681
 11
191.5227920620417
 21
238.476303403474
  0
LINE
  5
242
100
AcDbEntity
  8
Linia przekroju (ISO)
  6
CONTINUOUS
 62
  256
370
   -1
100
AcDbLine
 10
191.5227920620417
 20
238.476303403474
 11
190.5302459104003
 21
238.3544340600689
  0
LINE
  5
243
100
AcDbEntity
  8
Linia przekroju (ISO)
  6
CONTINUOUS
 62
  256
370
   -1
100
AcDbLine
 10
190.7149472927728
 20
240.9529165403638
 11
191.026518986221
 21
238.4153687317715
  0
LINE
  5
244
100
AcDbEntity
  8
Linia przekroju (ISO)
  6
CONTINUOUS
 62
  256
370
   -1
100
AcDbLine
 10
193.9535077248162
 20
238.7747577588076
 11
194.2581810833291
 21
236.2933923797044
  0
HATCH
  5
245
100
AcDbEntity
  8
Linia przekroju (ISO)
  6
CONTINUOUS
 62
  256
370
   -1
100
AcDbHatch
 10
0
 20
0
 30
0
210
0
220
0
230
1
  2
SOLID
 70
    1
 71
    0
 91
    1
 92
    0
 93
    3
 72
    1
 10
193.4572296142578
 20
238.7138214111328
 11
194.2581787109375
 21
236.2933959960937
 72
    1
 10
194.2581787109375
 20
236.2933959960937
 11
194.4497833251953
 21
238.835693359375
 72
    1
 10
194.4497833251953
 20
238.835693359375
 11
193.4572296142578
 21
238.7138214111328
 97
    0
 75
    0
 76
    1
 98
    0
  0
LINE
  5
246
100
AcDbEntity
  8
Linia przekroju (ISO)
  6
CONTINUOUS
 62
  256
370
   -1
100
AcDbLine
 10
193.4572346489955
 20
238.7138230871051
 11
194.2581810833291
 21
236.2933923797044
  0
LINE
  5
247
100
AcDbEntity
  8
Linia przekroju (ISO)
  6
CONTINUOUS
 62
  256
370
   -1
100
AcDbLine
 10
194.2581810833291
 20
236.2933923797044
 11
194.4497808006368
 21
238.8356924305103
  0
LINE
  5
248
100
AcDbEntity
  8
Linia przekroju (ISO)
  6
CONTINUOUS
 62
  256
370
   -1
100
AcDbLine
 10
194.4497808006368
 20
238.8356924305103
 11
193.4572346489955
 21
238.7138230871051
  0
LINE
  5
249
100
AcDbEntity
  8
Linia przekroju (ISO)
  6
CONTINUOUS
 62
  256
370
   -1
100
AcDbLine
 10
193.641936031368
 20
241.3123055674
 11
193.9535077248162
 21
238.7747577588076
  0
MTEXT
  5
24A
100
AcDbEntity
  8
Linia przekroju (ISO)
  6
ByLayer
 62
  256
370
   -1
100
AcDbMText
 10
189.0123163301662
 20
247.4268281903178
 30
0
 40
3.000000119209289
 41
38.00000150998503
 71
    1
 72
    5
  1
\fTahoma|b0|i0;\W1.;A
  7
STANDARD
210
0
220
0
230
1
 50
0
 73
    1
 44
1
  0
MTEXT
  5
24B
100
AcDbEntity
  8
Linia przekroju (ISO)
  6
ByLayer
 62
  256
370
   -1
100
AcDbMText
 10
191.9393050687613
 20
247.7862172173539
 30
0
 40
3.000000119209289
 41
38.00000150998503
 71
    1
 72
    5
  1
\fTahoma|b0|i0;\W1.;A
  7
STANDARD
210
0
220
0
230
1
 50
0
 73
    1
 44
1
  0
ENDBLK
  5
B7
330
B5
100
AcDbEntity
  8
0
100
AcDbBlockEnd
  0
BLOCK
  5
B9
330
B8
100
AcDbEntity
  8
0
100
AcDbBlockBegin
  2
*I27
 70
    0
 10
0
 20
0
  3
*I27
  1

  0
MTEXT
  5
24C
100
AcDbEntity
  8
Symbol (ISO)
  6
ByLayer
 62
  256
370
   -1
100
AcDbMText
 10
41.50409896774303
 20
246.4490225938887
 30
0
 40
3.000000119209289
 41
56.91666859499914
 71
    1
 72
    5
  1
\fTahoma|b0|i0;\W1.;A ( 1 : 2 )
  7
STANDARD
210
0
220
0
230
1
 50
0
 73
    1
 44
1
  0
MTEXT
  5
24D
100
AcDbEntity
  8
Symbol (ISO)
  6
ByLayer
 62
  256
370
   -1
100
AcDbMText
 10
41.7392995792026
 20
241.43909901658
 30
0
 40
3.000000119209289
 41
62.91667070961314
 71
    1
 72
    5
  1
\fTahoma|b0|i0;\W1.;2 wystąpienia
  7
STANDARD
210
0
220
0
230
1
 50
0
 73
    1
 44
1
  0
ENDBLK
  5
BA
330
B8
100
AcDbEntity
  8
0
100
AcDbBlockEnd
  0
BLOCK
  5
BC
330
BB
100
AcDbEntity
  8
0
100
AcDbBlockBegin
  2
*I28
 70
    0
 10
0
 20
0
  3
*I28
  1

  0
INSERT
  5
24E
100
AcDbEntity
  8
IDW_BlockReferenceLayer
  6
ByLayer
 62
    7
370
   -1
100
AcDbBlockReference
  2
C-1068951_Arkusz_A
 10
0
 20
0
 30
0
 41
1
 42
1
 43
0
 50
0
 70
    1
 71
    1
 44
0
 45
0
  0
ENDBLK
  5
BD
330
BB
100
AcDbEntity
  8
0
100
AcDbBlockEnd
  0
BLOCK
  5
BF
330
BE
100
AcDbEntity
  8
0
100
AcDbBlockBegin
  2
C-1068951_Arkusz_A
 70
    0
 10
0
 20
0
  3
C-1068951_Arkusz_A
  1

  0
LINE
  5
24F
100
AcDbEntity
  8
Widoczne (ISO)
  6
ByLayer
 62
  256
370
   -1
100
AcDbLine
 10
-26.74762281926976
 20
-57.5
 11
-26.74762281926976
 21
57.5
  0
LINE
  5
250
100
AcDbEntity
  8
Widoczne (ISO)
  6
ByLayer
 62
  256
370
   -1
100
AcDbLine
 10
26.74765509613932
 20
57.5
 11
26.74765509613932
 21
-57.5
  0
LINE
  5
251
100
AcDbEntity
  8
Widoczne (ISO)
  6
ByLayer
 62
  256
370
   -1
100
AcDbLine
 10
-26.7476228192698
 20
57.5
 11
26.74765509613932
 21
57.5
  0
LINE
  5
252
100
AcDbEntity
  8
Widoczne (ISO)
  6
ByLayer
 62
  256
370
   -1
100
AcDbLine
 10
-26.7476228192698
 20
-57.5
 11
26.74765509613932
 21
-57.5
  0
LINE
  5
253
100
AcDbEntity
  8
Widoczne (ISO)
  6
ByLayer
 62
  256
370
   -1
100
AcDbLine
 10
4.173388680483973
 20
-39.75000000000003
 11
-0.8415956477144392
 21
-39.75000000000003
  0
SPLINE
  5
254
100
AcDbEntity
  8
Widoczne (ISO)
  6
ByLayer
 62
  256
370
   -1
100
AcDbSpline
210
0
220
0
230
0
 70
    8
 71
    3
 72
   14
 73
   10
 74
    0
 42
1e-07
 43
1e-07
 40
0
 40
0
 40
0
 40
0
 40
1.067278229
 40
1.067278229
 40
1.067278229
 40
2.095708736
 40
2.095708736
 40
2.095708736
 40
3.141592654
 40
3.141592654
 40
3.141592654
 40
3.141592654
 10
4.173388680484002
 20
-45.25000000000003
 30
0
 10
5.154652873025035
 20
-45.25000000000003
 30
0
 10
6.116090179234085
 20
-44.68329124445971
 30
0
 10
6.589254004913648
 20
-43.82691708998343
 30
0
 10
7.045195201651871
 20
-43.00171398768199
 30
0
 10
7.033833149895848
 20
-41.93725467668919
 30
0
 10
6.560233832390871
 20
-41.12186362669193
 30
0
 10
6.078597099323708
 20
-40.29263464139304
 30
0
 10
5.134982770675598
 20
-39.75000000000001
 30
0
 10
4.173388680484002
 20
-39.75000000000001
 30
0
  0
LINE
  5
255
100
AcDbEntity
  8
Widoczne (ISO)
  6
ByLayer
 62
  256
370
   -1
100
AcDbLine
 10
-0.8415956477144259
 20
-45.25000000000004
 11
4.173388680483986
 21
-45.25000000000004
  0
SPLINE
  5
256
100
AcDbEntity
  8
Widoczne (ISO)
  6
ByLayer
 62
  256
370
   -1
100
AcDbSpline
210
0
220
0
230
0
 70
    8
 71
    3
 72
   14
 73
   10
 74
    0
 42
1e-07
 43
1e-07
 40
0
 40
0
 40
0
 40
0
 40
1.067278229
 40
1.067278229
 40
1.067278229
 40
2.095708736
 40
2.095708736
 40
2.095708736
 40
3.141592654
 40
3.141592654
 40
3.141592654
 40
3.141592654
 10
-0.8415956477144207
 20
-39.75000000000001
 30
0
 10
-1.822859840255383
 20
-39.75000000000001
 30
0
 10
-2.784297146464346
 20
-40.3167087555402
 30
0
 10
-3.257460972143981
 20
-41.17308291001641
 30
0
 10
-3.713402168881806
 20
-41.998286012317
 30
0
 10
-3.702040117126408
 20
-43.06274532330852
 30
0
 10
-3.22844079962288
 20
-43.87813637330544
 30
0
 10
-2.74680406655613
 20
-44.70736535860573
 30
0
 10
-1.80318973790704
 20
-45.25000000000003
 30
0
 10
-0.8415956477144207
 20
-45.25000000000003
 30
0
  0
SPLINE
  5
257
100
AcDbEntity
  8
Widoczne (ISO)
  6
ByLayer
 62
  256
370
   -1
100
AcDbSpline
210
0
220
0
230
0
 70
    8
 71
    3
 72
   14
 73
   10
 74
    0
 42
1e-07
 43
1e-07
 40
-3.141592654
 40
-3.141592654
 40
-3.141592654
 40
-3.141592654
 40
-2.075859935
 40
-2.075859935
 40
-2.075859935
 40
-1.050389978
 40
-1.050389978
 40
-1.050389978
 40
0
 40
0
 40
0
 40
0
 10
-0.8340956711518787
 20
-45.25000000000003
 30
0
 10
-1.811008171113393
 20
-45.25000000000003
 30
0
 10
-2.768468725194217
 20
-44.68470168370709
 30
0
 10
-3.240663498641929
 20
-43.83067073966822
 30
0
 10
-3.695019028636217
 20
-43.00890458716065
 30
0
 10
-3.687352139618973
 20
-41.94813102915718
 30
0
 10
-3.219992396551312
 20
-41.1326098554573
 30
0
 10
-2.741275309985418
 20
-40.29727064172043
 30
0
 10
-1.796944124295244
 20
-39.75000000000001
 30
0
 10
-0.8340956711518787
 20
-39.75000000000001
 30
0
  0
SPLINE
  5
258
100
AcDbEntity
  8
Widoczne (ISO)
  6
ByLayer
 62
  256
370
   -1
100
AcDbSpline
210
0
220
0
230
0
 70
    8
 71
    3
 72
   14
 73
   10
 74
    0
 42
1e-07
 43
1e-07
 40
-3.141592654
 40
-3.141592654
 40
-3.141592654
 40
-3.141592654
 40
-2.075859935
 40
-2.075859935
 40
-2.075859935
 40
-1.050389978
 40
-1.050389978
 40
-1.050389978
 40
0
 40
0
 40
0
 40
0
 10
4.165888703921389
 20
-39.75000000000001
 30
0
 10
5.142801203883102
 20
-39.75000000000001
 30
0
 10
6.100261757963998
 20
-40.31529831629313
 30
0
 10
6.572456531411638
 20
-41.16932926033229
 30
0
 10
7.026812061405642
 20
-41.99109541283974
 30
0
 10
7.019145172388427
 20
-43.05186897084283
 30
0
 10
6.551785429320979
 20
-43.86739014454249
 30
0
 10
6.073068342755128
 20
-44.70272935827948
 30
0
 10
5.12873715706484
 20
-45.25000000000003
 30
0
 10
4.165888703921389
 20
-45.25000000000003
 30
0
  0
ENDBLK
  5
C0
330
BE
100
AcDbEntity
  8
0
100
AcDbBlockEnd
  0
BLOCK
  5
C2
330
C1
100
AcDbEntity
  8
0
100
AcDbBlockBegin
  2
*I30
 70
    0
 10
0
 20
0
  3
*I30
  1

  0
MTEXT
  5
259
100
AcDbEntity
  8
Wymiar (ISO)
  6
ByLayer
 62
  256
370
   -1
100
AcDbMText
 10
30.07820822204426
 20
173.4793028269245
 30
0
 40
3.000000119209289
 41
39.00000154972165
 71
    1
 72
    5
  1
\fTahoma|b0|i0;\W1.;15
  7
STANDARD
210
0
220
0
230
1
 50
90
 73
    1
 44
1
  0
LINE
  5
25A
100
AcDbEntity
  8
Wymiar (ISO)
  6
ByLayer
 62
  256
370
   -1
100
AcDbLine
 10
34.15114192104861
 20
174.031717386297
 11
34.15114192104861
 21
171.531717386297
  0
HATCH
  5
25B
100
AcDbEntity
  8
Wymiar (ISO)
  6
ByLayer
 62
  256
370
   -1
100
AcDbHatch
 10
0
 20
0
 30
0
210
0
220
0
230
1
  2
SOLID
 70
    1
 71
    0
 91
    1
 92
    0
 93
    3
 72
    1
 10
33.65114212036133
 20
174.0317077636718
 11
34.15114212036133
 21
171.5317077636719
 72
    1
 10
34.15114212036133
 20
171.5317077636719
 11
34.65114212036133
 21
174.0317077636718
 72
    1
 10
34.65114212036133
 20
174.0317077636718
 11
33.65114212036133
 21
174.0317077636718
 97
    0
 75
    0
 76
    1
 98
    0
  0
LINE
  5
25C
100
AcDbEntity
  8
Wymiar (ISO)
  6
ByLayer
 62
  256
370
   -1
100
AcDbLine
 10
33.65114192104861
 20
174.031717386297
 11
34.15114192104861
 21
171.531717386297
  0
LINE
  5
25D
100
AcDbEntity
  8
Wymiar (ISO)
  6
ByLayer
 62
  256
370
   -1
100
AcDbLine
 10
34.15114192104861
 20
171.531717386297
 11
34.65114192104862
 21
174.031717386297
  0
LINE
  5
25E
100
AcDbEntity
  8
Wymiar (ISO)
  6
ByLayer
 62
  256
370
   -1
100
AcDbLine
 10
34.65114192104862
 20
174.031717386297
 11
33.65114192104861
 21
174.031717386297
  0
LINE
  5
25F
100
AcDbEntity
  8
Wymiar (ISO)
  6
ByLayer
 62
  256
370
   -1
100
AcDbLine
 10
34.15114192104861
 20
176.531717386297
 11
34.15114192104861
 21
179.031717386297
  0
HATCH
  5
260
100
AcDbEntity
  8
Wymiar (ISO)
  6
ByLayer
 62
  256
370
   -1
100
AcDbHatch
 10
0
 20
0
 30
0
210
0
220
0
230
1
  2
SOLID
 70
    1
 71
    0
 91
    1
 92
    0
 93
    3
 72
    1
 10
34.65114212036133
 20
176.5317077636719
 11
34.15114212036133
 21
179.0317077636719
 72
    1
 10
34.15114212036133
 20
179.0317077636719
 11
33.65114212036133
 21
176.5317077636719
 72
    1
 10
33.65114212036133
 20
176.5317077636719
 11
34.65114212036133
 21
176.5317077636719
 97
    0
 75
    0
 76
    1
 98
    0
  0
LINE
  5
261
100
AcDbEntity
  8
Wymiar (ISO)
  6
ByLayer
 62
  256
370
   -1
100
AcDbLine
 10
34.65114192104862
 20
176.531717386297
 11
34.15114192104861
 21
179.031717386297
  0
LINE
  5
262
100
AcDbEntity
  8
Wymiar (ISO)
  6
ByLayer
 62
  256
370
   -1
100
AcDbLine
 10
34.15114192104861
 20
179.031717386297
 11
33.65114192104861
 21
176.531717386297
  0
LINE
  5
263
100
AcDbEntity
  8
Wymiar (ISO)
  6
ByLayer
 62
  256
370
   -1
100
AcDbLine
 10
33.65114192104861
 20
176.531717386297
 11
34.65114192104862
 21
176.531717386297
  0
LINE
  5
264
100
AcDbEntity
  8
Wymiar (ISO)
  6
ByLayer
 62
  256
370
   -1
100
AcDbLine
 10
34.15114192104861
 20
174.031717386297
 11
34.15114192104861
 21
176.531717386297
  0
LINE
  5
265
100
AcDbEntity
  8
Wymiar (ISO)
  6
ByLayer
 62
  256
370
   -1
100
AcDbLine
 10
40.37025136536249
 20
171.531717386297
 11
32.65114192104861
 21
171.531717386297
  0
LINE
  5
266
100
AcDbEntity
  8
Wymiar (ISO)
  6
ByLayer
 62
  256
370
   -1
100
AcDbLine
 10
51.44804197798787
 20
179.031717386297
 11
32.65114192104861
 21
179.031717386297
  0
ENDBLK
  5
C3
330
C1
100
AcDbEntity
  8
0
100
AcDbBlockEnd
  0
BLOCK
  5
C5
330
C4
100
AcDbEntity
  8
0
100
AcDbBlockBegin
  2
*I31
 70
    0
 10
0
 20
0
  3
*I31
  1

  0
MTEXT
  5
267
100
AcDbEntity
  8
Wymiar (ISO)
  6
ByLayer
 62
  256
370
   -1
100
AcDbMText
 10
60.12326797358706
 20
167.7963731888754
 30
0
 40
3.000000119209289
 41
37.33333481682759
 71
    1
 72
    5
  1
\fTahoma|b0|i0;\W1.;5
  7
STANDARD
210
0
220
0
230
1
 50
0
 73
    1
 44
1
  0
LINE
  5
268
100
AcDbEntity
  8
Wymiar (ISO)
  6
ByLayer
 62
  256
370
   -1
100
AcDbLine
 10
58.33098007031204
 20
163.7331639876662
 11
55.83098007031204
 21
163.7331639876662
  0
HATCH
  5
269
100
AcDbEntity
  8
Wymiar (ISO)
  6
ByLayer
 62
  256
370
   -1
100
AcDbHatch
 10
0
 20
0
 30
0
210
0
220
0
230
1
  2
SOLID
 70
    1
 71
    0
 91
    1
 92
    0
 93
    3
 72
    1
 10
58.33097839355469
 20
164.233169555664
 11
55.83097839355469
 21
163.733154296875
 72
    1
 10
55.83097839355469
 20
163.733154296875
 11
58.33097839355469
 21
163.233169555664
 72
    1
 10
58.33097839355469
 20
163.233169555664
 11
58.33097839355469
 21
164.233169555664
 97
    0
 75
    0
 76
    1
 98
    0
  0
LINE
  5
26A
100
AcDbEntity
  8
Wymiar (ISO)
  6
ByLayer
 62
  256
370
   -1
100
AcDbLine
 10
58.33098007031204
 20
164.2331639876662
 11
55.83098007031204
 21
163.7331639876662
  0
LINE
  5
26B
100
AcDbEntity
  8
Wymiar (ISO)
  6
ByLayer
 62
  256
370
   -1
100
AcDbLine
 10
55.83098007031204
 20
163.7331639876662
 11
58.33098007031204
 21
163.2331639876662
  0
LINE
  5
26C
100
AcDbEntity
  8
Wymiar (ISO)
  6
ByLayer
 62
  256
370
   -1
100
AcDbLine
 10
58.33098007031204
 20
163.2331639876662
 11
58.33098007031204
 21
164.2331639876662
  0
LINE
  5
26D
100
AcDbEntity
  8
Wymiar (ISO)
  6
ByLayer
 62
  256
370
   -1
100
AcDbLine
 10
50.82304199606385
 20
163.7331639876662
 11
53.32304199606385
 21
163.7331639876662
  0
HATCH
  5
26E
100
AcDbEntity
  8
Wymiar (ISO)
  6
ByLayer
 62
  256
370
   -1
100
AcDbHatch
 10
0
 20
0
 30
0
210
0
220
0
230
1
  2
SOLID
 70
    1
 71
    0
 91
    1
 92
    0
 93
    3
 72
    1
 10
50.82304000854492
 20
163.233169555664
 11
53.32304000854492
 21
163.733154296875
 72
    1
 10
53.32304000854492
 20
163.733154296875
 11
50.82304000854492
 21
164.233169555664
 72
    1
 10
50.82304000854492
 20
164.233169555664
 11
50.82304000854492
 21
163.233169555664
 97
    0
 75
    0
 76
    1
 98
    0
  0
LINE
  5
26F
100
AcDbEntity
  8
Wymiar (ISO)
  6
ByLayer
 62
  256
370
   -1
100
AcDbLine
 10
50.82304199606385
 20
163.2331639876662
 11
53.32304199606385
 21
163.7331639876662
  0
LINE
  5
270
100
AcDbEntity
  8
Wymiar (ISO)
  6
ByLayer
 62
  256
370
   -1
100
AcDbLine
 10
53.32304199606385
 20
163.7331639876662
 11
50.82304199606385
 21
164.2331639876662
  0
LINE
  5
271
100
AcDbEntity
  8
Wymiar (ISO)
  6
ByLayer
 62
  256
370
   -1
100
AcDbLine
 10
50.82304199606385
 20
164.2331639876662
 11
50.82304199606385
 21
163.2331639876662
  0
LINE
  5
272
100
AcDbEntity
  8
Wymiar (ISO)
  6
ByLayer
 62
  256
370
   -1
100
AcDbLine
 10
55.83098007031204
 20
163.7331639876662
 11
53.32304199606385
 21
163.7331639876662
  0
LINE
  5
273
100
AcDbEntity
  8
Wymiar (ISO)
  6
ByLayer
 62
  256
370
   -1
100
AcDbLine
 10
58.33098007031204
 20
163.7331639876662
 11
60.83098007031204
 21
163.7331639876662
  0
LINE
  5
274
100
AcDbEntity
  8
Wymiar (ISO)
  6
ByLayer
 62
  256
370
   -1
100
AcDbLine
 10
50.82304199606385
 20
163.7331639876662
 11
48.32304199606385
 21
163.7331639876662
  0
LINE
  5
275
100
AcDbEntity
  8
Wymiar (ISO)
  6
ByLayer
 62
  256
370
   -1
100
AcDbLine
 10
62.62728305706773
 20
163.7331639876662
 11
60.83098007031204
 21
163.7331639876662
  0
LINE
  5
276
100
AcDbEntity
  8
Wymiar (ISO)
  6
ByLayer
 62
  256
370
   -1
100
AcDbLine
 10
55.83098007031204
 20
177.156717368221
 11
55.83098007031204
 21
162.2331639876662
  0
LINE
  5
277
100
AcDbEntity
  8
Wymiar (ISO)
  6
ByLayer
 62
  256
370
   -1
100
AcDbLine
 10
53.32304199606385
 20
177.156717368221
 11
53.32304199606385
 21
162.2331639876662
  0
ENDBLK
  5
C6
330
C4
100
AcDbEntity
  8
0
100
AcDbBlockEnd
  0
BLOCK
  5
C8
330
C7
100
AcDbEntity
  8
0
100
AcDbBlockBegin
  2
*I32
 70
    0
 10
0
 20
0
  3
*I32
  1

  0
MTEXT
  5
278
100
AcDbEntity
  8
Wymiar (ISO)
  6
ByLayer
 62
  256
370
   -1
100
AcDbMText
 10
71.88799738079246
 20
168.971776713108
 30
0
 40
3.000000119209289
 41
40.83333495590528
 71
    1
 72
    5
  1
\fTahoma|b0|i0;\W1.;5,5
  7
STANDARD
210
0
220
0
230
1
 50
90
 73
    1
 44
1
  0
LINE
  5
279
100
AcDbEntity
  8
Wymiar (ISO)
  6
ByLayer
 62
  256
370
   -1
100
AcDbLine
 10
76.6343508431309
 20
175.156717386297
 11
76.6343508431309
 21
177.656717386297
  0
HATCH
  5
27A
100
AcDbEntity
  8
Wymiar (ISO)
  6
ByLayer
 62
  256
370
   -1
100
AcDbHatch
 10
0
 20
0
 30
0
210
0
220
0
230
1
  2
SOLID
 70
    1
 71
    0
 91
    1
 92
    0
 93
    3
 72
    1
 10
77.13435363769531
 20
175.1567230224609
 11
76.63435363769531
 21
177.6567230224609
 72
    1
 10
76.63435363769531
 20
177.6567230224609
 11
76.13435363769531
 21
175.1567230224609
 72
    1
 10
76.13435363769531
 20
175.1567230224609
 11
77.13435363769531
 21
175.1567230224609
 97
    0
 75
    0
 76
    1
 98
    0
  0
LINE
  5
27B
100
AcDbEntity
  8
Wymiar (ISO)
  6
ByLayer
 62
  256
370
   -1
100
AcDbLine
 10
77.1343508431309
 20
175.156717386297
 11
76.6343508431309
 21
177.656717386297
  0
LINE
  5
27C
100
AcDbEntity
  8
Wymiar (ISO)
  6
ByLayer
 62
  256
370
   -1
100
AcDbLine
 10
76.6343508431309
 20
177.656717386297
 11
76.1343508431309
 21
175.156717386297
  0
LINE
  5
27D
100
AcDbEntity
  8
Wymiar (ISO)
  6
ByLayer
 62
  256
370
   -1
100
AcDbLine
 10
76.1343508431309
 20
175.156717386297
 11
77.1343508431309
 21
175.156717386297
  0
LINE
  5
27E
100
AcDbEntity
  8
Wymiar (ISO)
  6
ByLayer
 62
  256
370
   -1
100
AcDbLine
 10
76.6343508431309
 20
182.906717386297
 11
76.6343508431309
 21
180.406717386297
  0
HATCH
  5
27F
100
AcDbEntity
  8
Wymiar (ISO)
  6
ByLayer
 62
  256
370
   -1
100
AcDbHatch
 10
0
 20
0
 30
0
210
0
220
0
230
1
  2
SOLID
 70
    1
 71
    0
 91
    1
 92
    0
 93
    3
 72
    1
 10
76.13435363769531
 20
182.9067230224609
 11
76.63435363769531
 21
180.4067230224609
 72
    1
 10
76.63435363769531
 20
180.4067230224609
 11
77.13435363769531
 21
182.9067230224609
 72
    1
 10
77.13435363769531
 20
182.9067230224609
 11
76.13435363769531
 21
182.9067230224609
 97
    0
 75
    0
 76
    1
 98
    0
  0
LINE
  5
280
100
AcDbEntity
  8
Wymiar (ISO)
  6
ByLayer
 62
  256
370
   -1
100
AcDbLine
 10
76.1343508431309
 20
182.906717386297
 11
76.6343508431309
 21
180.406717386297
  0
LINE
  5
281
100
AcDbEntity
  8
Wymiar (ISO)
  6
ByLayer
 62
  256
370
   -1
100
AcDbLine
 10
76.6343508431309
 20
180.406717386297
 11
77.1343508431309
 21
182.906717386297
  0
LINE
  5
282
100
AcDbEntity
  8
Wymiar (ISO)
  6
ByLayer
 62
  256
370
   -1
100
AcDbLine
 10
77.1343508431309
 20
182.906717386297
 11
76.1343508431309
 21
182.906717386297
  0
LINE
  5
283
100
AcDbEntity
  8
Wymiar (ISO)
  6
ByLayer
 62
  256
370
   -1
100
AcDbLine
 10
76.6343508431309
 20
177.656717386297
 11
76.6343508431309
 21
180.406717386297
  0
LINE
  5
284
100
AcDbEntity
  8
Wymiar (ISO)
  6
ByLayer
 62
  256
370
   -1
100
AcDbLine
 10
76.6343508431309
 20
175.156717386297
 11
76.6343508431309
 21
172.6567173862969
  0
LINE
  5
285
100
AcDbEntity
  8
Wymiar (ISO)
  6
ByLayer
 62
  256
370
   -1
100
AcDbLine
 10
76.6343508431309
 20
182.906717386297
 11
76.6343508431309
 21
185.406717386297
  0
LINE
  5
286
100
AcDbEntity
  8
Wymiar (ISO)
  6
ByLayer
 62
  256
370
   -1
100
AcDbLine
 10
76.6343508431309
 20
168.2245760704515
 11
76.6343508431309
 21
172.6567173862969
  0
LINE
  5
287
100
AcDbEntity
  8
Wymiar (ISO)
  6
ByLayer
 62
  256
370
   -1
100
AcDbLine
 10
55.93098007031205
 20
180.406717386297
 11
78.1343508431309
 21
180.406717386297
  0
LINE
  5
288
100
AcDbEntity
  8
Wymiar (ISO)
  6
ByLayer
 62
  256
370
   -1
100
AcDbLine
 10
55.93098007031205
 20
177.656717386297
 11
78.1343508431309
 21
177.656717386297
  0
ENDBLK
  5
C9
330
C7
100
AcDbEntity
  8
0
100
AcDbBlockEnd
  0
ENDSEC
  0
SECTION
  2
ENTITIES
  0
LINE
  5
289
100
AcDbEntity
  8
Widoczne (ISO)
  6
ByLayer
 62
  256
370
   -1
100
AcDbLine
 10
2532.971182127336
 20
596.1302354102878
 11
2537.977771696958
 21
596.1302354102878
  0
SPLINE
  5
28A
100
AcDbEntity
  8
Widoczne (ISO)
  6
ByLayer
 62
  256
370
   -1
100
AcDbSpline
210
0
220
0
230
0
 70
    8
 71
    3
 72
   14
 73
   10
 74
    0
 42
1e-07
 43
1e-07
 40
-3.141592654
 40
-3.141592654
 40
-3.141592654
 40
-3.141592654
 40
-2.11028366
 40
-2.11028366
 40
-2.11028366
 40
-1.048715612
 40
-1.048715612
 40
-1.048715612
 40
0
 40
0
 40
0
 40
0
 10
2537.977771696958
 20
596.1302354102878
 30
0
 10
2538.924380242077
 20
596.1302354102878
 30
0
 10
2539.854015686959
 20
596.6564726515423
 30
0
 10
2540.340276461086
 20
597.4675708457938
 30
0
 10
2540.840804337526
 20
598.3024670133523
 30
0
 10
2540.850440021809
 20
599.4081479918062
 30
0
 10
2540.364538909761
 20
600.2516184584608
 30
0
 10
2539.884520616535
 20
601.0848770037735
 30
0
 10
2538.940357271412
 20
601.6302354102878
 30
0
 10
2537.977771696958
 20
601.6302354102878
 30
0
  0
SPLINE
  5
28B
100
AcDbEntity
  8
Widoczne (ISO)
  6
ByLayer
 62
  256
370
   -1
100
AcDbSpline
210
0
220
0
230
0
 70
    8
 71
    3
 72
   14
 73
   10
 74
    0
 42
1e-07
 43
1e-07
 40
-3.141592654
 40
-3.141592654
 40
-3.141592654
 40
-3.141592654
 40
-2.11028366
 40
-2.11028366
 40
-2.11028366
 40
-1.048715612
 40
-1.048715612
 40
-1.048715612
 40
0
 40
0
 40
0
 40
0
 10
2532.971182127336
 20
601.6302354102878
 30
0
 10
2532.024573582217
 20
601.6302354102878
 30
0
 10
2531.094938137334
 20
601.103998169033
 30
0
 10
2530.608677363208
 20
600.2928999747816
 30
0
 10
2530.108149486768
 20
599.4580038072232
 30
0
 10
2530.098513802485
 20
598.3523228287692
 30
0
 10
2530.584414914533
 20
597.5088523621146
 30
0
 10
2531.06443320776
 20
596.6755938168019
 30
0
 10
2532.008596552883
 20
596.1302354102878
 30
0
 10
2532.971182127336
 20
596.1302354102878
 30
0
  0
SPLINE
  5
28C
100
AcDbEntity
  8
Widoczne (ISO)
  6
ByLayer
 62
  256
370
   -1
100
AcDbSpline
210
0
220
0
230
0
 70
    8
 71
    3
 72
   14
 73
   10
 74
    0
 42
1e-07
 43
1e-07
 40
-3.141592654
 40
-3.141592654
 40
-3.141592654
 40
-3.141592654
 40
-2.11028366
 40
-2.11028366
 40
-2.11028366
 40
-1.048715612
 40
-1.048715612
 40
-1.048715612
 40
0
 40
0
 40
0
 40
0
 10
2293.309139571983
 20
596.1302354102876
 30
0
 10
2294.255748117102
 20
596.1302354102876
 30
0
 10
2295.185383561985
 20
596.6564726515423
 30
0
 10
2295.671644336111
 20
597.4675708457937
 30
0
 10
2296.17217221255
 20
598.3024670133523
 30
0
 10
2296.181807896834
 20
599.4081479918062
 30
0
 10
2295.695906784786
 20
600.2516184584608
 30
0
 10
2295.21588849156
 20
601.0848770037735
 30
0
 10
2294.271725146437
 20
601.6302354102877
 30
0
 10
2293.309139571983
 20
601.6302354102877
 30
0
  0
LINE
  5
28D
100
AcDbEntity
  8
Widoczne (ISO)
  6
ByLayer
 62
  256
370
   -1
100
AcDbLine
 10
2537.977771696958
 20
601.6302354102878
 11
2532.971182127336
 21
601.6302354102878
  0
SPLINE
  5
28E
100
AcDbEntity
  8
Widoczne (ISO)
  6
ByLayer
 62
  256
370
   -1
100
AcDbSpline
210
0
220
0
230
0
 70
    8
 71
    3
 72
   14
 73
   10
 74
    0
 42
1e-07
 43
1e-07
 40
-3.141592654
 40
-3.141592654
 40
-3.141592654
 40
-3.141592654
 40
-2.11028366
 40
-2.11028366
 40
-2.11028366
 40
-1.048715612
 40
-1.048715612
 40
-1.048715612
 40
0
 40
0
 40
0
 40
0
 10
2288.302550002361
 20
601.6302354102877
 30
0
 10
2287.355941457243
 20
601.6302354102877
 30
0
 10
2286.426306012359
 20
601.103998169033
 30
0
 10
2285.940045238234
 20
600.2928999747816
 30
0
 10
2285.439517361794
 20
599.4580038072232
 30
0
 10
2285.42988167751
 20
598.3523228287692
 30
0
 10
2285.915782789558
 20
597.5088523621146
 30
0
 10
2286.395801082785
 20
596.6755938168018
 30
0
 10
2287.339964427908
 20
596.1302354102876
 30
0
 10
2288.302550002361
 20
596.1302354102876
 30
0
  0
LINE
  5
28F
100
AcDbEntity
  8
Widoczne (ISO)
  6
ByLayer
 62
  256
370
   -1
100
AcDbLine
 10
2288.302550002361
 20
596.1302354102876
 11
2293.309139571984
 21
596.1302354102876
  0
LINE
  5
290
100
AcDbEntity
  8
Widoczne (ISO)
  6
ByLayer
 62
  256
370
   -1
100
AcDbLine
 10
2293.309139571984
 20
601.6302354102877
 11
2288.302550002361
 21
601.6302354102877
  0
LINE
  5
291
100
AcDbEntity
  8
Widoczne (ISO)
  6
ByLayer
 62
  256
370
   -1
100
AcDbLine
 10
2657.808792974634
 20
498.8802354102878
 11
501.8060563656379
 21
498.8802354102872
  0
LINE
  5
292
100
AcDbEntity
  8
Widoczne (ISO)
  6
ByLayer
 62
  256
370
   -1
100
AcDbLine
 10
2657.808792974634
 20
613.8802354102878
 11
2657.808792974634
 21
498.8802354102878
  0
LINE
  5
293
100
AcDbEntity
  8
Widoczne (ISO)
  6
ByLayer
 62
  256
370
   -1
100
AcDbLine
 10
504.8100208715961
 20
613.8802354102872
 11
2657.808792974634
 21
613.8802354102878
  0
SPLINE
  5
294
100
AcDbEntity
  8
Ukryte (ISO)
  6
ByLayer
 62
  256
370
   -1
100
AcDbSpline
210
0
220
0
230
0
 70
    8
 71
    3
 72
    8
 73
    4
 74
    0
 42
1e-07
 43
1e-07
 40
-0.150450001
 40
-0.150450001
 40
-0.150450001
 40
-0.150450001
 40
0.149551345
 40
0.149551345
 40
0.149551345
 40
0.149551345
 10
504.8100208715961
 20
613.8802354102872
 30
0
 10
504.8070168981187
 20
613.8802354102872
 30
0
 10
504.8040219364809
 20
613.8802354102872
 30
0
 10
504.8010359060602
 20
613.8802354102872
 30
0
  0
SPLINE
  5
295
100
AcDbEntity
  8
Widoczne (ISO)
  6
ByLayer
 62
  256
370
   -1
100
AcDbSpline
210
0
220
0
230
0
 70
    8
 71
    3
 72
   14
 73
   10
 74
    0
 42
1e-07
 43
1e-07
 40
0.4520262
 40
0.4520262
 40
0.4520262
 40
0.4520262
 40
0.649698208
 40
0.649698208
 40
0.649698208
 40
0.809795413
 40
0.809795413
 40
0.809795413
 40
0.9040506740000001
 40
0.9040506740000001
 40
0.9040506740000001
 40
0.9040506740000001
 10
504.8010359060606
 20
613.8802354102874
 30
0
 10
504.1432328652915
 20
613.8802354102872
 30
0
 10
503.4180326867733
 20
613.6262420393184
 30
0
 10
502.8957959148094
 20
613.1949462108735
 30
0
 10
502.4728293622081
 20
612.8456339458205
 30
0
 10
502.1453003725712
 20
612.3781742651967
 30
0
 10
501.9641349070663
 20
611.8419993254983
 30
0
 10
501.8574759672181
 20
611.526332923615
 30
0
 10
501.8060563656379
 20
611.1944196129289
 30
0
 10
501.8060563656379
 20
610.8802354102872
 30
0
  0
SPLINE
  5
296
100
AcDbEntity
  8
Widoczne (ISO)
  6
ByLayer
 62
  256
370
   -1
100
AcDbSpline
210
0
220
0
230
0
 70
    8
 71
    3
 72
   14
 73
   10
 74
    0
 42
1e-07
 43
1e-07
 40
0.90405069
 40
0.90405069
 40
0.90405069
 40
0.90405069
 40
1.101559322
 40
1.101559322
 40
1.101559322
 40
1.261411335
 40
1.261411335
 40
1.261411335
 40
1.356075166
 40
1.356075166
 40
1.356075166
 40
1.356075166
 10
501.8060563656379
 20
610.8802354102872
 30
0
 10
501.8060563656379
 20
611.5385975177117
 30
0
 10
502.0599079851369
 20
612.2643812149273
 30
0
 10
502.4911823343201
 20
612.7873734985359
 30
0
 10
502.8402307387716
 20
613.2106530709934
 30
0
 10
503.3070512605525
 20
613.5385268645235
 30
0
 10
503.8428777745837
 20
613.7205003095218
 30
0
 10
504.1601924566618
 20
613.8282643792986
 30
0
 10
504.4940582463588
 20
613.8802354102872
 30
0
 10
504.8100208715961
 20
613.8802354102872
 30
0
  0
LINE
  5
297
100
AcDbEntity
  8
Widoczne (ISO)
  6
ByLayer
 62
  256
370
   -1
100
AcDbLine
 10
501.8060563656379
 20
498.8802354102872
 11
501.8060563656379
 21
610.8802354102872
  0
ENDSEC
  0
SECTION
  2
OBJECTS
  0
DICTIONARY
  5
C
330
0
100
AcDbDictionary
281
    1
  3
ACAD_GROUP
350
D
  0
DICTIONARY
  5
D
330
C
100
AcDbDictionary
281
    1
  0
PLOTSETTINGS
  5
298
100
AcDbPlotSettings
  6
1x1
 40
0
 41
0
 42
0
 43
0
  0
ENDSEC
  0
EOF
